<ttFont>
    <TTGlyph name=".notdef" xMin="193" yMin="0" xMax="1034" yMax="1462">
      <contour>
        <pt x="1034" y="1462" on="1"/>
        <pt x="1034" y="0" on="1"/>
        <pt x="193" y="0" on="1"/>
        <pt x="193" y="1462" on="1"/>
      </contour>
      <contour>
        <pt x="930" y="104" on="1"/>
        <pt x="930" y="1358" on="1"/>
        <pt x="297" y="1358" on="1"/>
        <pt x="297" y="104" on="1"/>
      </contour>
    </TTGlyph>
    <TTGlyph name="A" xMin="-117" yMin="0" xMax="1040" yMax="1462">
      <contour>
        <pt x="317" y="465" on="1"/>
        <pt x="72" y="0" on="1"/>
        <pt x="-117" y="0" on="1"/>
        <pt x="682" y="1462" on="1"/>
        <pt x="856" y="1462" on="1"/>
        <pt x="1040" y="0" on="1"/>
        <pt x="870" y="0" on="1"/>
        <pt x="813" y="465" on="1"/>
      </contour>
      <contour>
        <pt x="795" y="621" on="1"/>
        <pt x="760" y="920" on="1"/>
        <pt x="735" y="1103" on="0"/>
        <pt x="731" y="1270" on="1"/>
        <pt x="695" y="1185" on="0"/>
        <pt x="606" y="1008" on="0"/>
        <pt x="401" y="621" on="1"/>
      </contour>
    </TTGlyph>
    <TTGlyph name="AE" xMin="-119" yMin="0" xMax="1757" yMax="1462">
      <contour>
        <pt x="711" y="0" on="1"/>
        <pt x="809" y="465" on="1"/>
        <pt x="371" y="465" on="1"/>
        <pt x="78" y="0" on="1"/>
        <pt x="-119" y="0" on="1"/>
        <pt x="819" y="1462" on="1"/>
        <pt x="1757" y="1462" on="1"/>
        <pt x="1724" y="1309" on="1"/>
        <pt x="1159" y="1309" on="1"/>
        <pt x="1059" y="840" on="1"/>
        <pt x="1587" y="840" on="1"/>
        <pt x="1559" y="690" on="1"/>
        <pt x="1030" y="690" on="1"/>
        <pt x="915" y="152" on="1"/>
        <pt x="1481" y="152" on="1"/>
        <pt x="1448" y="0" on="1"/>
      </contour>
      <contour>
        <pt x="987" y="1309" on="1"/>
        <pt x="903" y="1309" on="1"/>
        <pt x="469" y="621" on="1"/>
        <pt x="840" y="621" on="1"/>
      </contour>
    </TTGlyph>
    <TTGlyph name="Aacute" xMin="-117" yMin="0" xMax="1101" yMax="1907">
      <contour>
        <pt x="679" y="1579" on="1"/>
        <pt x="679" y="1606" on="1"/>
        <pt x="739" y="1671" on="0"/>
        <pt x="869" y="1841" on="0"/>
        <pt x="911" y="1907" on="1"/>
        <pt x="1101" y="1907" on="1"/>
        <pt x="1101" y="1886" on="1"/>
        <pt x="1067" y="1841" on="0"/>
        <pt x="859" y="1633" on="0"/>
        <pt x="784" y="1579" on="1"/>
      </contour>
      <contour>
        <pt x="72" y="0" on="1"/>
        <pt x="-117" y="0" on="1"/>
        <pt x="682" y="1462" on="1"/>
        <pt x="856" y="1462" on="1"/>
        <pt x="1040" y="0" on="1"/>
        <pt x="870" y="0" on="1"/>
        <pt x="813" y="465" on="1"/>
        <pt x="317" y="465" on="1"/>
      </contour>
      <contour>
        <pt x="795" y="621" on="1"/>
        <pt x="760" y="920" on="1"/>
        <pt x="735" y="1103" on="0"/>
        <pt x="731" y="1270" on="1"/>
        <pt x="695" y="1185" on="0"/>
        <pt x="606" y="1008" on="0"/>
        <pt x="401" y="621" on="1"/>
      </contour>
    </TTGlyph>
    <TTGlyph name="Acircumflex" xMin="-117" yMin="0" xMax="1080" yMax="1907">
      <contour>
        <pt x="1080" y="1579" on="1"/>
        <pt x="977" y="1579" on="1"/>
        <pt x="919" y="1628" on="0"/>
        <pt x="816" y="1768" on="1"/>
        <pt x="684" y="1651" on="0"/>
        <pt x="574" y="1579" on="1"/>
        <pt x="465" y="1579" on="1"/>
        <pt x="465" y="1606" on="1"/>
        <pt x="616" y="1744" on="0"/>
        <pt x="669" y="1803" on="1"/>
        <pt x="730" y="1868" on="0"/>
        <pt x="752" y="1907" on="1"/>
        <pt x="910" y="1907" on="1"/>
        <pt x="948" y="1806" on="0"/>
        <pt x="1038" y="1672" on="1"/>
        <pt x="1080" y="1606" on="1"/>
      </contour>
      <contour>
        <pt x="72" y="0" on="1"/>
        <pt x="-117" y="0" on="1"/>
        <pt x="682" y="1462" on="1"/>
        <pt x="856" y="1462" on="1"/>
        <pt x="1040" y="0" on="1"/>
        <pt x="870" y="0" on="1"/>
        <pt x="813" y="465" on="1"/>
        <pt x="317" y="465" on="1"/>
      </contour>
      <contour>
        <pt x="795" y="621" on="1"/>
        <pt x="760" y="920" on="1"/>
        <pt x="735" y="1103" on="0"/>
        <pt x="731" y="1270" on="1"/>
        <pt x="695" y="1185" on="0"/>
        <pt x="606" y="1008" on="0"/>
        <pt x="401" y="621" on="1"/>
      </contour>
    </TTGlyph>
    <TTGlyph name="Adieresis" xMin="-117" yMin="0" xMax="1067" yMax="1829">
      <contour>
        <pt x="569" y="1632" on="0"/>
        <pt x="523" y="1677" on="0"/>
        <pt x="523" y="1763" on="0"/>
        <pt x="580" y="1829" on="0"/>
        <pt x="625" y="1829" on="1"/>
        <pt x="703" y="1829" on="0"/>
        <pt x="703" y="1749" on="1"/>
        <pt x="703" y="1700" on="0"/>
        <pt x="673" y="1666" on="1"/>
        <pt x="645" y="1632" on="0"/>
      </contour>
      <contour>
        <pt x="933" y="1632" on="0"/>
        <pt x="887" y="1677" on="0"/>
        <pt x="887" y="1763" on="0"/>
        <pt x="944" y="1829" on="0"/>
        <pt x="990" y="1829" on="1"/>
        <pt x="1067" y="1829" on="0"/>
        <pt x="1067" y="1749" on="1"/>
        <pt x="1067" y="1700" on="0"/>
        <pt x="1037" y="1666" on="1"/>
        <pt x="1009" y="1632" on="0"/>
      </contour>
      <contour>
        <pt x="72" y="0" on="1"/>
        <pt x="-117" y="0" on="1"/>
        <pt x="682" y="1462" on="1"/>
        <pt x="856" y="1462" on="1"/>
        <pt x="1040" y="0" on="1"/>
        <pt x="870" y="0" on="1"/>
        <pt x="813" y="465" on="1"/>
        <pt x="317" y="465" on="1"/>
      </contour>
      <contour>
        <pt x="795" y="621" on="1"/>
        <pt x="760" y="920" on="1"/>
        <pt x="735" y="1103" on="0"/>
        <pt x="731" y="1270" on="1"/>
        <pt x="695" y="1185" on="0"/>
        <pt x="606" y="1008" on="0"/>
        <pt x="401" y="621" on="1"/>
      </contour>
    </TTGlyph>
    <TTGlyph name="Agrave" xMin="-117" yMin="0" xMax="1040" yMax="1907">
      <contour>
        <pt x="863" y="1579" on="1"/>
        <pt x="759" y="1579" on="1"/>
        <pt x="696" y="1642" on="0"/>
        <pt x="565" y="1822" on="0"/>
        <pt x="535" y="1886" on="1"/>
        <pt x="535" y="1907" on="1"/>
        <pt x="716" y="1907" on="1"/>
        <pt x="760" y="1770" on="0"/>
        <pt x="863" y="1604" on="1"/>
      </contour>
      <contour>
        <pt x="72" y="0" on="1"/>
        <pt x="-117" y="0" on="1"/>
        <pt x="682" y="1462" on="1"/>
        <pt x="856" y="1462" on="1"/>
        <pt x="1040" y="0" on="1"/>
        <pt x="870" y="0" on="1"/>
        <pt x="813" y="465" on="1"/>
        <pt x="317" y="465" on="1"/>
      </contour>
      <contour>
        <pt x="795" y="621" on="1"/>
        <pt x="760" y="920" on="1"/>
        <pt x="735" y="1103" on="0"/>
        <pt x="731" y="1270" on="1"/>
        <pt x="695" y="1185" on="0"/>
        <pt x="606" y="1008" on="0"/>
        <pt x="401" y="621" on="1"/>
      </contour>
    </TTGlyph>
    <TTGlyph name="Aring" xMin="-117" yMin="0" xMax="1040" yMax="1794">
      <contour>
        <pt x="553" y="1583" on="1"/>
        <pt x="553" y="1676" on="0"/>
        <pt x="677" y="1794" on="0"/>
        <pt x="873" y="1794" on="0"/>
        <pt x="991" y="1681" on="0"/>
        <pt x="991" y="1585" on="1"/>
        <pt x="991" y="1512" on="0"/>
        <pt x="925" y="1410" on="0"/>
        <pt x="866" y="1386" on="1"/>
        <pt x="1040" y="0" on="1"/>
        <pt x="870" y="0" on="1"/>
        <pt x="813" y="465" on="1"/>
        <pt x="317" y="465" on="1"/>
        <pt x="72" y="0" on="1"/>
        <pt x="-117" y="0" on="1"/>
        <pt x="648" y="1400" on="1"/>
        <pt x="553" y="1455" on="0"/>
      </contour>
      <contour>
        <pt x="887" y="1636" on="0"/>
        <pt x="824" y="1698" on="0"/>
        <pt x="722" y="1698" on="0"/>
        <pt x="657" y="1635" on="0"/>
        <pt x="657" y="1528" on="0"/>
        <pt x="716" y="1468" on="0"/>
        <pt x="824" y="1468" on="0"/>
        <pt x="887" y="1530" on="0"/>
      </contour>
      <contour>
        <pt x="795" y="621" on="1"/>
        <pt x="760" y="920" on="1"/>
        <pt x="735" y="1103" on="0"/>
        <pt x="731" y="1270" on="1"/>
        <pt x="695" y="1185" on="0"/>
        <pt x="606" y="1008" on="0"/>
        <pt x="401" y="621" on="1"/>
      </contour>
    </TTGlyph>
    <TTGlyph name="Atilde" xMin="-117" yMin="0" xMax="1167" yMax="1839">
      <contour>
        <pt x="934" y="1581" on="1"/>
        <pt x="889" y="1581" on="0"/>
        <pt x="782" y="1638" on="0"/>
        <pt x="684" y="1694" on="0"/>
        <pt x="607" y="1694" on="0"/>
        <pt x="555" y="1640" on="0"/>
        <pt x="532" y="1579" on="1"/>
        <pt x="432" y="1579" on="1"/>
        <pt x="490" y="1837" on="0"/>
        <pt x="663" y="1837" on="1"/>
        <pt x="702" y="1837" on="0"/>
        <pt x="790" y="1801" on="0"/>
        <pt x="822" y="1780" on="1"/>
        <pt x="906" y="1722" on="0"/>
        <pt x="989" y="1722" on="0"/>
        <pt x="1040" y="1774" on="0"/>
        <pt x="1067" y="1839" on="1"/>
        <pt x="1167" y="1839" on="1"/>
        <pt x="1101" y="1581" on="0"/>
      </contour>
      <contour>
        <pt x="72" y="0" on="1"/>
        <pt x="-117" y="0" on="1"/>
        <pt x="682" y="1462" on="1"/>
        <pt x="856" y="1462" on="1"/>
        <pt x="1040" y="0" on="1"/>
        <pt x="870" y="0" on="1"/>
        <pt x="813" y="465" on="1"/>
        <pt x="317" y="465" on="1"/>
      </contour>
      <contour>
        <pt x="795" y="621" on="1"/>
        <pt x="760" y="920" on="1"/>
        <pt x="735" y="1103" on="0"/>
        <pt x="731" y="1270" on="1"/>
        <pt x="695" y="1185" on="0"/>
        <pt x="606" y="1008" on="0"/>
        <pt x="401" y="621" on="1"/>
      </contour>
    </TTGlyph>
    <TTGlyph name="B" xMin="86" yMin="0" xMax="1202" yMax="1462">
      <contour>
        <pt x="770" y="1462" on="1"/>
        <pt x="1202" y="1462" on="0"/>
        <pt x="1202" y="1126" on="1"/>
        <pt x="1202" y="986" on="0"/>
        <pt x="1028" y="791" on="0"/>
        <pt x="870" y="762" on="1"/>
        <pt x="870" y="752" on="1"/>
        <pt x="984" y="720" on="0"/>
        <pt x="1108" y="564" on="0"/>
        <pt x="1108" y="453" on="1"/>
        <pt x="1108" y="242" on="0"/>
        <pt x="956" y="120" on="1"/>
        <pt x="804" y="0" on="0"/>
        <pt x="549" y="0" on="1"/>
        <pt x="86" y="0" on="1"/>
        <pt x="395" y="1462" on="1"/>
      </contour>
      <contour>
        <pt x="682" y="836" on="1"/>
        <pt x="839" y="836" on="0"/>
        <pt x="1024" y="982" on="0"/>
        <pt x="1024" y="1108" on="1"/>
        <pt x="1024" y="1213" on="0"/>
        <pt x="890" y="1315" on="0"/>
        <pt x="748" y="1315" on="1"/>
        <pt x="537" y="1315" on="1"/>
        <pt x="434" y="836" on="1"/>
      </contour>
      <contour>
        <pt x="553" y="145" on="1"/>
        <pt x="733" y="145" on="0"/>
        <pt x="928" y="306" on="0"/>
        <pt x="928" y="453" on="1"/>
        <pt x="928" y="569" on="0"/>
        <pt x="779" y="692" on="0"/>
        <pt x="639" y="692" on="1"/>
        <pt x="403" y="692" on="1"/>
        <pt x="287" y="145" on="1"/>
      </contour>
    </TTGlyph>
    <TTGlyph name="C" xMin="150" yMin="-20" xMax="1290" yMax="1483">
      <contour>
        <pt x="942" y="1331" on="1"/>
        <pt x="767" y="1331" on="0"/>
        <pt x="493" y="1136" on="0"/>
        <pt x="332" y="760" on="0"/>
        <pt x="332" y="541" on="1"/>
        <pt x="332" y="354" on="0"/>
        <pt x="526" y="131" on="0"/>
        <pt x="698" y="131" on="1"/>
        <pt x="837" y="131" on="0"/>
        <pt x="1020" y="188" on="1"/>
        <pt x="1020" y="39" on="1"/>
        <pt x="935" y="8" on="0"/>
        <pt x="775" y="-20" on="0"/>
        <pt x="668" y="-20" on="1"/>
        <pt x="426" y="-20" on="0"/>
        <pt x="150" y="279" on="0"/>
        <pt x="150" y="798" on="0"/>
        <pt x="362" y="1247" on="0"/>
        <pt x="539" y="1365" on="1"/>
        <pt x="717" y="1483" on="0"/>
        <pt x="942" y="1483" on="1"/>
        <pt x="1138" y="1483" on="0"/>
        <pt x="1290" y="1403" on="1"/>
        <pt x="1221" y="1262" on="1"/>
        <pt x="1083" y="1331" on="0"/>
      </contour>
    </TTGlyph>
    <TTGlyph name="Ccedilla" xMin="150" yMin="-492" xMax="1290" yMax="1483">
      <contour>
        <pt x="942" y="1331" on="1"/>
        <pt x="767" y="1331" on="0"/>
        <pt x="493" y="1136" on="0"/>
        <pt x="332" y="760" on="0"/>
        <pt x="332" y="541" on="1"/>
        <pt x="332" y="354" on="0"/>
        <pt x="526" y="131" on="0"/>
        <pt x="698" y="131" on="1"/>
        <pt x="837" y="131" on="0"/>
        <pt x="1020" y="188" on="1"/>
        <pt x="1020" y="39" on="1"/>
        <pt x="935" y="8" on="0"/>
        <pt x="778" y="-20" on="0"/>
        <pt x="678" y="-20" on="1"/>
        <pt x="627" y="-121" on="1"/>
        <pt x="758" y="-159" on="0"/>
        <pt x="758" y="-276" on="1"/>
        <pt x="758" y="-374" on="0"/>
        <pt x="595" y="-492" on="0"/>
        <pt x="463" y="-492" on="1"/>
        <pt x="422" y="-492" on="0"/>
        <pt x="377" y="-483" on="1"/>
        <pt x="377" y="-383" on="1"/>
        <pt x="414" y="-389" on="0"/>
        <pt x="445" y="-389" on="1"/>
        <pt x="619" y="-389" on="0"/>
        <pt x="619" y="-279" on="1"/>
        <pt x="619" y="-201" on="0"/>
        <pt x="481" y="-182" on="1"/>
        <pt x="574" y="-14" on="1"/>
        <pt x="398" y="10" on="0"/>
        <pt x="288" y="129" on="1"/>
        <pt x="150" y="279" on="0"/>
        <pt x="150" y="798" on="0"/>
        <pt x="362" y="1247" on="0"/>
        <pt x="539" y="1365" on="1"/>
        <pt x="717" y="1483" on="0"/>
        <pt x="942" y="1483" on="1"/>
        <pt x="1138" y="1483" on="0"/>
        <pt x="1290" y="1403" on="1"/>
        <pt x="1221" y="1262" on="1"/>
        <pt x="1083" y="1331" on="0"/>
      </contour>
    </TTGlyph>
    <TTGlyph name="D" xMin="86" yMin="0" xMax="1300" yMax="1462">
      <contour>
        <pt x="737" y="1462" on="1"/>
        <pt x="1013" y="1462" on="0"/>
        <pt x="1300" y="1163" on="0"/>
        <pt x="1300" y="877" on="1"/>
        <pt x="1300" y="616" on="0"/>
        <pt x="1090" y="216" on="0"/>
        <pt x="700" y="0" on="0"/>
        <pt x="438" y="0" on="1"/>
        <pt x="86" y="0" on="1"/>
        <pt x="395" y="1462" on="1"/>
      </contour>
      <contour>
        <pt x="449" y="147" on="1"/>
        <pt x="652" y="147" on="0"/>
        <pt x="956" y="329" on="0"/>
        <pt x="1120" y="662" on="0"/>
        <pt x="1120" y="1094" on="0"/>
        <pt x="914" y="1315" on="0"/>
        <pt x="715" y="1315" on="1"/>
        <pt x="537" y="1315" on="1"/>
        <pt x="287" y="147" on="1"/>
      </contour>
    </TTGlyph>
    <TTGlyph name="E" xMin="86" yMin="0" xMax="1130" yMax="1462">
      <contour>
        <pt x="86" y="0" on="1"/>
        <pt x="395" y="1462" on="1"/>
        <pt x="1130" y="1462" on="1"/>
        <pt x="1098" y="1309" on="1"/>
        <pt x="532" y="1309" on="1"/>
        <pt x="434" y="840" on="1"/>
        <pt x="961" y="840" on="1"/>
        <pt x="932" y="688" on="1"/>
        <pt x="403" y="688" on="1"/>
        <pt x="289" y="152" on="1"/>
        <pt x="854" y="152" on="1"/>
        <pt x="821" y="0" on="1"/>
      </contour>
    </TTGlyph>
    <TTGlyph name="Eacute" xMin="86" yMin="0" xMax="1130" yMax="1907">
      <contour>
        <pt x="657" y="1579" on="1"/>
        <pt x="657" y="1606" on="1"/>
        <pt x="717" y="1671" on="0"/>
        <pt x="847" y="1841" on="0"/>
        <pt x="889" y="1907" on="1"/>
        <pt x="1079" y="1907" on="1"/>
        <pt x="1079" y="1886" on="1"/>
        <pt x="1045" y="1841" on="0"/>
        <pt x="837" y="1633" on="0"/>
        <pt x="762" y="1579" on="1"/>
      </contour>
      <contour>
        <pt x="395" y="1462" on="1"/>
        <pt x="1130" y="1462" on="1"/>
        <pt x="1098" y="1309" on="1"/>
        <pt x="532" y="1309" on="1"/>
        <pt x="434" y="840" on="1"/>
        <pt x="961" y="840" on="1"/>
        <pt x="932" y="688" on="1"/>
        <pt x="403" y="688" on="1"/>
        <pt x="289" y="152" on="1"/>
        <pt x="854" y="152" on="1"/>
        <pt x="821" y="0" on="1"/>
        <pt x="86" y="0" on="1"/>
      </contour>
    </TTGlyph>
    <TTGlyph name="Ecircumflex" xMin="86" yMin="0" xMax="1130" yMax="1907">
      <contour>
        <pt x="1084" y="1579" on="1"/>
        <pt x="981" y="1579" on="1"/>
        <pt x="923" y="1628" on="0"/>
        <pt x="820" y="1768" on="1"/>
        <pt x="688" y="1651" on="0"/>
        <pt x="578" y="1579" on="1"/>
        <pt x="469" y="1579" on="1"/>
        <pt x="469" y="1606" on="1"/>
        <pt x="620" y="1744" on="0"/>
        <pt x="673" y="1803" on="1"/>
        <pt x="734" y="1868" on="0"/>
        <pt x="756" y="1907" on="1"/>
        <pt x="914" y="1907" on="1"/>
        <pt x="952" y="1806" on="0"/>
        <pt x="1042" y="1672" on="1"/>
        <pt x="1084" y="1606" on="1"/>
      </contour>
      <contour>
        <pt x="395" y="1462" on="1"/>
        <pt x="1130" y="1462" on="1"/>
        <pt x="1098" y="1309" on="1"/>
        <pt x="532" y="1309" on="1"/>
        <pt x="434" y="840" on="1"/>
        <pt x="961" y="840" on="1"/>
        <pt x="932" y="688" on="1"/>
        <pt x="403" y="688" on="1"/>
        <pt x="289" y="152" on="1"/>
        <pt x="854" y="152" on="1"/>
        <pt x="821" y="0" on="1"/>
        <pt x="86" y="0" on="1"/>
      </contour>
    </TTGlyph>
    <TTGlyph name="Edieresis" xMin="86" yMin="0" xMax="1130" yMax="1829">
      <contour>
        <pt x="569" y="1632" on="0"/>
        <pt x="523" y="1677" on="0"/>
        <pt x="523" y="1763" on="0"/>
        <pt x="580" y="1829" on="0"/>
        <pt x="625" y="1829" on="1"/>
        <pt x="703" y="1829" on="0"/>
        <pt x="703" y="1749" on="1"/>
        <pt x="703" y="1700" on="0"/>
        <pt x="673" y="1666" on="1"/>
        <pt x="645" y="1632" on="0"/>
      </contour>
      <contour>
        <pt x="933" y="1632" on="0"/>
        <pt x="887" y="1677" on="0"/>
        <pt x="887" y="1763" on="0"/>
        <pt x="944" y="1829" on="0"/>
        <pt x="990" y="1829" on="1"/>
        <pt x="1067" y="1829" on="0"/>
        <pt x="1067" y="1749" on="1"/>
        <pt x="1067" y="1700" on="0"/>
        <pt x="1037" y="1666" on="1"/>
        <pt x="1009" y="1632" on="0"/>
      </contour>
      <contour>
        <pt x="395" y="1462" on="1"/>
        <pt x="1130" y="1462" on="1"/>
        <pt x="1098" y="1309" on="1"/>
        <pt x="532" y="1309" on="1"/>
        <pt x="434" y="840" on="1"/>
        <pt x="961" y="840" on="1"/>
        <pt x="932" y="688" on="1"/>
        <pt x="403" y="688" on="1"/>
        <pt x="289" y="152" on="1"/>
        <pt x="854" y="152" on="1"/>
        <pt x="821" y="0" on="1"/>
        <pt x="86" y="0" on="1"/>
      </contour>
    </TTGlyph>
    <TTGlyph name="Egrave" xMin="86" yMin="0" xMax="1130" yMax="1907">
      <contour>
        <pt x="898" y="1579" on="1"/>
        <pt x="794" y="1579" on="1"/>
        <pt x="731" y="1642" on="0"/>
        <pt x="600" y="1822" on="0"/>
        <pt x="570" y="1886" on="1"/>
        <pt x="570" y="1907" on="1"/>
        <pt x="751" y="1907" on="1"/>
        <pt x="794" y="1770" on="0"/>
        <pt x="898" y="1604" on="1"/>
      </contour>
      <contour>
        <pt x="395" y="1462" on="1"/>
        <pt x="1130" y="1462" on="1"/>
        <pt x="1098" y="1309" on="1"/>
        <pt x="532" y="1309" on="1"/>
        <pt x="434" y="840" on="1"/>
        <pt x="961" y="840" on="1"/>
        <pt x="932" y="688" on="1"/>
        <pt x="403" y="688" on="1"/>
        <pt x="289" y="152" on="1"/>
        <pt x="854" y="152" on="1"/>
        <pt x="821" y="0" on="1"/>
        <pt x="86" y="0" on="1"/>
      </contour>
    </TTGlyph>
    <TTGlyph name="Euro" xMin="63" yMin="-20" xMax="1239" yMax="1481">
      <contour>
        <pt x="928" y="1329" on="1"/>
        <pt x="786" y="1329" on="0"/>
        <pt x="559" y="1129" on="0"/>
        <pt x="485" y="932" on="1"/>
        <pt x="911" y="932" on="1"/>
        <pt x="885" y="799" on="1"/>
        <pt x="444" y="799" on="1"/>
        <pt x="422" y="732" on="0"/>
        <pt x="412" y="635" on="1"/>
        <pt x="793" y="635" on="1"/>
        <pt x="764" y="504" on="1"/>
        <pt x="403" y="504" on="1"/>
        <pt x="403" y="131" on="0"/>
        <pt x="700" y="131" on="1"/>
        <pt x="824" y="131" on="0"/>
        <pt x="956" y="186" on="1"/>
        <pt x="956" y="39" on="1"/>
        <pt x="827" y="-20" on="0"/>
        <pt x="678" y="-20" on="1"/>
        <pt x="466" y="-20" on="0"/>
        <pt x="349" y="113" on="1"/>
        <pt x="233" y="247" on="0"/>
        <pt x="233" y="492" on="1"/>
        <pt x="233" y="504" on="1"/>
        <pt x="63" y="504" on="1"/>
        <pt x="90" y="635" on="1"/>
        <pt x="244" y="635" on="1"/>
        <pt x="252" y="715" on="0"/>
        <pt x="274" y="799" on="1"/>
        <pt x="123" y="799" on="1"/>
        <pt x="150" y="932" on="1"/>
        <pt x="309" y="932" on="1"/>
        <pt x="406" y="1198" on="0"/>
        <pt x="730" y="1481" on="0"/>
        <pt x="938" y="1481" on="1"/>
        <pt x="1027" y="1481" on="0"/>
        <pt x="1169" y="1438" on="0"/>
        <pt x="1239" y="1389" on="1"/>
        <pt x="1159" y="1251" on="1"/>
        <pt x="1046" y="1329" on="0"/>
      </contour>
    </TTGlyph>
    <TTGlyph name="F" xMin="86" yMin="0" xMax="1130" yMax="1462">
      <contour>
        <pt x="86" y="0" on="1"/>
        <pt x="395" y="1462" on="1"/>
        <pt x="1130" y="1462" on="1"/>
        <pt x="1100" y="1309" on="1"/>
        <pt x="532" y="1309" on="1"/>
        <pt x="422" y="776" on="1"/>
        <pt x="950" y="776" on="1"/>
        <pt x="918" y="623" on="1"/>
        <pt x="389" y="623" on="1"/>
        <pt x="258" y="0" on="1"/>
      </contour>
    </TTGlyph>
    <TTGlyph name="G" xMin="150" yMin="-20" xMax="1358" yMax="1483">
      <contour>
        <pt x="707" y="-20" on="1"/>
        <pt x="443" y="-20" on="0"/>
        <pt x="296" y="124" on="1"/>
        <pt x="150" y="270" on="0"/>
        <pt x="150" y="795" on="0"/>
        <pt x="251" y="1017" on="1"/>
        <pt x="354" y="1239" on="0"/>
        <pt x="713" y="1483" on="0"/>
        <pt x="1160" y="1483" on="0"/>
        <pt x="1358" y="1399" on="1"/>
        <pt x="1292" y="1247" on="1"/>
        <pt x="1100" y="1331" on="0"/>
        <pt x="764" y="1331" on="0"/>
        <pt x="486" y="1128" on="0"/>
        <pt x="332" y="763" on="0"/>
        <pt x="332" y="539" on="1"/>
        <pt x="332" y="350" on="0"/>
        <pt x="434" y="240" on="1"/>
        <pt x="537" y="131" on="0"/>
        <pt x="721" y="131" on="1"/>
        <pt x="874" y="131" on="0"/>
        <pt x="981" y="170" on="1"/>
        <pt x="1077" y="614" on="1"/>
        <pt x="788" y="614" on="1"/>
        <pt x="821" y="766" on="1"/>
        <pt x="1280" y="766" on="1"/>
        <pt x="1126" y="55" on="1"/>
        <pt x="910" y="-20" on="0"/>
      </contour>
    </TTGlyph>
    <TTGlyph name="H" xMin="86" yMin="0" xMax="1395" yMax="1462">
      <contour>
        <pt x="918" y="0" on="1"/>
        <pt x="1061" y="688" on="1"/>
        <pt x="401" y="688" on="1"/>
        <pt x="256" y="0" on="1"/>
        <pt x="86" y="0" on="1"/>
        <pt x="395" y="1462" on="1"/>
        <pt x="565" y="1462" on="1"/>
        <pt x="434" y="840" on="1"/>
        <pt x="1094" y="840" on="1"/>
        <pt x="1227" y="1462" on="1"/>
        <pt x="1395" y="1462" on="1"/>
        <pt x="1085" y="0" on="1"/>
      </contour>
    </TTGlyph>
    <TTGlyph name="I" xMin="86" yMin="0" xMax="565" yMax="1462">
      <contour>
        <pt x="397" y="1462" on="1"/>
        <pt x="565" y="1462" on="1"/>
        <pt x="254" y="0" on="1"/>
        <pt x="86" y="0" on="1"/>
      </contour>
    </TTGlyph>
    <TTGlyph name="Iacute" xMin="86" yMin="0" xMax="834" yMax="1907">
      <contour>
        <pt x="412" y="1579" on="1"/>
        <pt x="412" y="1606" on="1"/>
        <pt x="472" y="1671" on="0"/>
        <pt x="602" y="1841" on="0"/>
        <pt x="644" y="1907" on="1"/>
        <pt x="834" y="1907" on="1"/>
        <pt x="834" y="1886" on="1"/>
        <pt x="800" y="1841" on="0"/>
        <pt x="592" y="1633" on="0"/>
        <pt x="517" y="1579" on="1"/>
      </contour>
      <contour>
        <pt x="565" y="1462" on="1"/>
        <pt x="254" y="0" on="1"/>
        <pt x="86" y="0" on="1"/>
        <pt x="397" y="1462" on="1"/>
      </contour>
    </TTGlyph>
    <TTGlyph name="Icircumflex" xMin="86" yMin="0" xMax="808" yMax="1907">
      <contour>
        <pt x="808" y="1579" on="1"/>
        <pt x="705" y="1579" on="1"/>
        <pt x="647" y="1628" on="0"/>
        <pt x="544" y="1768" on="1"/>
        <pt x="412" y="1651" on="0"/>
        <pt x="302" y="1579" on="1"/>
        <pt x="193" y="1579" on="1"/>
        <pt x="193" y="1606" on="1"/>
        <pt x="344" y="1744" on="0"/>
        <pt x="397" y="1803" on="1"/>
        <pt x="458" y="1868" on="0"/>
        <pt x="480" y="1907" on="1"/>
        <pt x="638" y="1907" on="1"/>
        <pt x="676" y="1806" on="0"/>
        <pt x="766" y="1672" on="1"/>
        <pt x="808" y="1606" on="1"/>
      </contour>
      <contour>
        <pt x="565" y="1462" on="1"/>
        <pt x="254" y="0" on="1"/>
        <pt x="86" y="0" on="1"/>
        <pt x="397" y="1462" on="1"/>
      </contour>
    </TTGlyph>
    <TTGlyph name="Idieresis" xMin="86" yMin="0" xMax="809" yMax="1829">
      <contour>
        <pt x="311" y="1632" on="0"/>
        <pt x="265" y="1677" on="0"/>
        <pt x="265" y="1763" on="0"/>
        <pt x="322" y="1829" on="0"/>
        <pt x="367" y="1829" on="1"/>
        <pt x="445" y="1829" on="0"/>
        <pt x="445" y="1749" on="1"/>
        <pt x="445" y="1700" on="0"/>
        <pt x="415" y="1666" on="1"/>
        <pt x="387" y="1632" on="0"/>
      </contour>
      <contour>
        <pt x="675" y="1632" on="0"/>
        <pt x="629" y="1677" on="0"/>
        <pt x="629" y="1763" on="0"/>
        <pt x="686" y="1829" on="0"/>
        <pt x="732" y="1829" on="1"/>
        <pt x="809" y="1829" on="0"/>
        <pt x="809" y="1749" on="1"/>
        <pt x="809" y="1700" on="0"/>
        <pt x="779" y="1666" on="1"/>
        <pt x="751" y="1632" on="0"/>
      </contour>
      <contour>
        <pt x="565" y="1462" on="1"/>
        <pt x="254" y="0" on="1"/>
        <pt x="86" y="0" on="1"/>
        <pt x="397" y="1462" on="1"/>
      </contour>
    </TTGlyph>
    <TTGlyph name="Igrave" xMin="86" yMin="0" xMax="593" yMax="1907">
      <contour>
        <pt x="593" y="1579" on="1"/>
        <pt x="489" y="1579" on="1"/>
        <pt x="426" y="1642" on="0"/>
        <pt x="295" y="1822" on="0"/>
        <pt x="265" y="1886" on="1"/>
        <pt x="265" y="1907" on="1"/>
        <pt x="446" y="1907" on="1"/>
        <pt x="490" y="1770" on="0"/>
        <pt x="593" y="1604" on="1"/>
      </contour>
      <contour>
        <pt x="565" y="1462" on="1"/>
        <pt x="254" y="0" on="1"/>
        <pt x="86" y="0" on="1"/>
        <pt x="397" y="1462" on="1"/>
      </contour>
    </TTGlyph>
    <TTGlyph name="J" xMin="-319" yMin="-385" xMax="565" yMax="1462">
      <contour>
        <pt x="-166" y="-385" on="1"/>
        <pt x="-272" y="-385" on="0"/>
        <pt x="-319" y="-360" on="1"/>
        <pt x="-313" y="-213" on="1"/>
        <pt x="-242" y="-233" on="0"/>
        <pt x="-168" y="-233" on="1"/>
        <pt x="-68" y="-233" on="0"/>
        <pt x="63" y="-108" on="0"/>
        <pt x="88" y="12" on="1"/>
        <pt x="395" y="1462" on="1"/>
        <pt x="565" y="1462" on="1"/>
        <pt x="256" y="-6" on="1"/>
        <pt x="177" y="-385" on="0"/>
      </contour>
    </TTGlyph>
    <TTGlyph name="K" xMin="86" yMin="0" xMax="1323" yMax="1462">
      <contour>
        <pt x="1034" y="0" on="1"/>
        <pt x="848" y="0" on="1"/>
        <pt x="805" y="109" on="0"/>
        <pt x="606" y="591" on="0"/>
        <pt x="555" y="721" on="1"/>
        <pt x="381" y="590" on="1"/>
        <pt x="256" y="0" on="1"/>
        <pt x="86" y="0" on="1"/>
        <pt x="395" y="1462" on="1"/>
        <pt x="565" y="1462" on="1"/>
        <pt x="414" y="752" on="1"/>
        <pt x="1114" y="1462" on="1"/>
        <pt x="1323" y="1462" on="1"/>
        <pt x="684" y="825" on="1"/>
      </contour>
    </TTGlyph>
    <TTGlyph name="L" xMin="86" yMin="0" xMax="854" yMax="1462">
      <contour>
        <pt x="395" y="1462" on="1"/>
        <pt x="565" y="1462" on="1"/>
        <pt x="289" y="154" on="1"/>
        <pt x="854" y="154" on="1"/>
        <pt x="821" y="0" on="1"/>
        <pt x="86" y="0" on="1"/>
      </contour>
    </TTGlyph>
    <TTGlyph name="M" xMin="84" yMin="0" xMax="1720" yMax="1462">
      <contour>
        <pt x="510" y="1296" on="1"/>
        <pt x="502" y="1296" on="1"/>
        <pt x="493" y="1211" on="0"/>
        <pt x="450" y="961" on="0"/>
        <pt x="436" y="899" on="1"/>
        <pt x="246" y="0" on="1"/>
        <pt x="84" y="0" on="1"/>
        <pt x="393" y="1462" on="1"/>
        <pt x="637" y="1462" on="1"/>
        <pt x="786" y="258" on="1"/>
        <pt x="795" y="258" on="1"/>
        <pt x="1454" y="1462" on="1"/>
        <pt x="1720" y="1462" on="1"/>
        <pt x="1417" y="0" on="1"/>
        <pt x="1243" y="0" on="1"/>
        <pt x="1436" y="905" on="1"/>
        <pt x="1504" y="1225" on="0"/>
        <pt x="1530" y="1298" on="1"/>
        <pt x="1524" y="1298" on="1"/>
        <pt x="807" y="0" on="1"/>
        <pt x="676" y="0" on="1"/>
      </contour>
    </TTGlyph>
    <TTGlyph name="N" xMin="84" yMin="0" xMax="1448" yMax="1462">
      <contour>
        <pt x="958" y="0" on="1"/>
        <pt x="498" y="1223" on="1"/>
        <pt x="492" y="1223" on="1"/>
        <pt x="461" y="1007" on="0"/>
        <pt x="418" y="805" on="1"/>
        <pt x="246" y="0" on="1"/>
        <pt x="84" y="0" on="1"/>
        <pt x="393" y="1462" on="1"/>
        <pt x="573" y="1462" on="1"/>
        <pt x="1032" y="242" on="1"/>
        <pt x="1038" y="242" on="1"/>
        <pt x="1068" y="466" on="0"/>
        <pt x="1110" y="647" on="1"/>
        <pt x="1284" y="1462" on="1"/>
        <pt x="1448" y="1462" on="1"/>
        <pt x="1139" y="0" on="1"/>
      </contour>
    </TTGlyph>
    <TTGlyph name="Ntilde" xMin="84" yMin="0" xMax="1448" yMax="1839">
      <contour>
        <pt x="1102" y="1581" on="1"/>
        <pt x="1057" y="1581" on="0"/>
        <pt x="950" y="1638" on="0"/>
        <pt x="852" y="1694" on="0"/>
        <pt x="775" y="1694" on="0"/>
        <pt x="723" y="1640" on="0"/>
        <pt x="700" y="1579" on="1"/>
        <pt x="600" y="1579" on="1"/>
        <pt x="658" y="1837" on="0"/>
        <pt x="831" y="1837" on="1"/>
        <pt x="870" y="1837" on="0"/>
        <pt x="958" y="1801" on="0"/>
        <pt x="990" y="1780" on="1"/>
        <pt x="1074" y="1722" on="0"/>
        <pt x="1157" y="1722" on="0"/>
        <pt x="1208" y="1774" on="0"/>
        <pt x="1235" y="1839" on="1"/>
        <pt x="1335" y="1839" on="1"/>
        <pt x="1269" y="1581" on="0"/>
      </contour>
      <contour>
        <pt x="498" y="1223" on="1"/>
        <pt x="492" y="1223" on="1"/>
        <pt x="461" y="1007" on="0"/>
        <pt x="418" y="805" on="1"/>
        <pt x="246" y="0" on="1"/>
        <pt x="84" y="0" on="1"/>
        <pt x="393" y="1462" on="1"/>
        <pt x="573" y="1462" on="1"/>
        <pt x="1032" y="242" on="1"/>
        <pt x="1038" y="242" on="1"/>
        <pt x="1068" y="466" on="0"/>
        <pt x="1110" y="647" on="1"/>
        <pt x="1284" y="1462" on="1"/>
        <pt x="1448" y="1462" on="1"/>
        <pt x="1139" y="0" on="1"/>
        <pt x="958" y="0" on="1"/>
      </contour>
    </TTGlyph>
    <TTGlyph name="O" xMin="150" yMin="-20" xMax="1411" yMax="1485">
      <contour>
        <pt x="887" y="1485" on="1"/>
        <pt x="1132" y="1485" on="0"/>
        <pt x="1411" y="1176" on="0"/>
        <pt x="1411" y="637" on="0"/>
        <pt x="1234" y="213" on="0"/>
        <pt x="1071" y="96" on="1"/>
        <pt x="907" y="-20" on="0"/>
        <pt x="692" y="-20" on="1"/>
        <pt x="436" y="-20" on="0"/>
        <pt x="293" y="129" on="1"/>
        <pt x="150" y="280" on="0"/>
        <pt x="150" y="814" on="0"/>
        <pt x="342" y="1248" on="0"/>
        <pt x="676" y="1485" on="0"/>
      </contour>
      <contour>
        <pt x="400" y="951" on="1"/>
        <pt x="332" y="770" on="0"/>
        <pt x="332" y="355" on="0"/>
        <pt x="527" y="131" on="0"/>
        <pt x="849" y="131" on="0"/>
        <pt x="1087" y="324" on="0"/>
        <pt x="1229" y="688" on="0"/>
        <pt x="1229" y="1111" on="0"/>
        <pt x="1041" y="1333" on="0"/>
        <pt x="718" y="1333" on="0"/>
        <pt x="470" y="1132" on="0"/>
      </contour>
    </TTGlyph>
    <TTGlyph name="OE" xMin="150" yMin="-20" xMax="1833" yMax="1485">
      <contour>
        <pt x="692" y="-20" on="1"/>
        <pt x="436" y="-20" on="0"/>
        <pt x="293" y="129" on="1"/>
        <pt x="150" y="280" on="0"/>
        <pt x="150" y="814" on="0"/>
        <pt x="342" y="1248" on="0"/>
        <pt x="676" y="1485" on="0"/>
        <pt x="887" y="1485" on="1"/>
        <pt x="1037" y="1485" on="0"/>
        <pt x="1124" y="1462" on="1"/>
        <pt x="1833" y="1462" on="1"/>
        <pt x="1802" y="1309" on="1"/>
        <pt x="1237" y="1309" on="1"/>
        <pt x="1137" y="840" on="1"/>
        <pt x="1665" y="840" on="1"/>
        <pt x="1634" y="690" on="1"/>
        <pt x="1106" y="690" on="1"/>
        <pt x="991" y="152" on="1"/>
        <pt x="1556" y="152" on="1"/>
        <pt x="1524" y="0" on="1"/>
        <pt x="850" y="0" on="1"/>
        <pt x="770" y="-20" on="0"/>
      </contour>
      <contour>
        <pt x="874" y="1333" on="1"/>
        <pt x="718" y="1333" on="0"/>
        <pt x="470" y="1132" on="0"/>
        <pt x="400" y="951" on="1"/>
        <pt x="332" y="770" on="0"/>
        <pt x="332" y="355" on="0"/>
        <pt x="527" y="131" on="0"/>
        <pt x="696" y="131" on="1"/>
        <pt x="766" y="131" on="0"/>
        <pt x="819" y="150" on="1"/>
        <pt x="1065" y="1311" on="1"/>
        <pt x="990" y="1333" on="0"/>
      </contour>
    </TTGlyph>
    <TTGlyph name="Oacute" xMin="150" yMin="-20" xMax="1411" yMax="1907">
      <contour>
        <pt x="821" y="1579" on="1"/>
        <pt x="821" y="1606" on="1"/>
        <pt x="881" y="1671" on="0"/>
        <pt x="1011" y="1841" on="0"/>
        <pt x="1053" y="1907" on="1"/>
        <pt x="1243" y="1907" on="1"/>
        <pt x="1243" y="1886" on="1"/>
        <pt x="1209" y="1841" on="0"/>
        <pt x="1001" y="1633" on="0"/>
        <pt x="926" y="1579" on="1"/>
      </contour>
      <contour>
        <pt x="887" y="1485" on="1"/>
        <pt x="1132" y="1485" on="0"/>
        <pt x="1411" y="1176" on="0"/>
        <pt x="1411" y="637" on="0"/>
        <pt x="1234" y="213" on="0"/>
        <pt x="1071" y="96" on="1"/>
        <pt x="907" y="-20" on="0"/>
        <pt x="692" y="-20" on="1"/>
        <pt x="436" y="-20" on="0"/>
        <pt x="293" y="129" on="1"/>
        <pt x="150" y="280" on="0"/>
        <pt x="150" y="814" on="0"/>
        <pt x="342" y="1248" on="0"/>
        <pt x="676" y="1485" on="0"/>
      </contour>
      <contour>
        <pt x="400" y="951" on="1"/>
        <pt x="332" y="770" on="0"/>
        <pt x="332" y="355" on="0"/>
        <pt x="527" y="131" on="0"/>
        <pt x="849" y="131" on="0"/>
        <pt x="1087" y="324" on="0"/>
        <pt x="1229" y="688" on="0"/>
        <pt x="1229" y="1111" on="0"/>
        <pt x="1041" y="1333" on="0"/>
        <pt x="718" y="1333" on="0"/>
        <pt x="470" y="1132" on="0"/>
      </contour>
    </TTGlyph>
    <TTGlyph name="Ocircumflex" xMin="150" yMin="-20" xMax="1411" yMax="1907">
      <contour>
        <pt x="1227" y="1579" on="1"/>
        <pt x="1124" y="1579" on="1"/>
        <pt x="1066" y="1628" on="0"/>
        <pt x="963" y="1768" on="1"/>
        <pt x="831" y="1651" on="0"/>
        <pt x="721" y="1579" on="1"/>
        <pt x="612" y="1579" on="1"/>
        <pt x="612" y="1606" on="1"/>
        <pt x="763" y="1744" on="0"/>
        <pt x="816" y="1803" on="1"/>
        <pt x="877" y="1868" on="0"/>
        <pt x="899" y="1907" on="1"/>
        <pt x="1057" y="1907" on="1"/>
        <pt x="1095" y="1806" on="0"/>
        <pt x="1185" y="1672" on="1"/>
        <pt x="1227" y="1606" on="1"/>
      </contour>
      <contour>
        <pt x="887" y="1485" on="1"/>
        <pt x="1132" y="1485" on="0"/>
        <pt x="1411" y="1176" on="0"/>
        <pt x="1411" y="637" on="0"/>
        <pt x="1234" y="213" on="0"/>
        <pt x="1071" y="96" on="1"/>
        <pt x="907" y="-20" on="0"/>
        <pt x="692" y="-20" on="1"/>
        <pt x="436" y="-20" on="0"/>
        <pt x="293" y="129" on="1"/>
        <pt x="150" y="280" on="0"/>
        <pt x="150" y="814" on="0"/>
        <pt x="342" y="1248" on="0"/>
        <pt x="676" y="1485" on="0"/>
      </contour>
      <contour>
        <pt x="400" y="951" on="1"/>
        <pt x="332" y="770" on="0"/>
        <pt x="332" y="355" on="0"/>
        <pt x="527" y="131" on="0"/>
        <pt x="849" y="131" on="0"/>
        <pt x="1087" y="324" on="0"/>
        <pt x="1229" y="688" on="0"/>
        <pt x="1229" y="1111" on="0"/>
        <pt x="1041" y="1333" on="0"/>
        <pt x="718" y="1333" on="0"/>
        <pt x="470" y="1132" on="0"/>
      </contour>
    </TTGlyph>
    <TTGlyph name="Odieresis" xMin="150" yMin="-20" xMax="1411" yMax="1829">
      <contour>
        <pt x="710" y="1632" on="0"/>
        <pt x="664" y="1677" on="0"/>
        <pt x="664" y="1763" on="0"/>
        <pt x="721" y="1829" on="0"/>
        <pt x="766" y="1829" on="1"/>
        <pt x="844" y="1829" on="0"/>
        <pt x="844" y="1749" on="1"/>
        <pt x="844" y="1700" on="0"/>
        <pt x="814" y="1666" on="1"/>
        <pt x="786" y="1632" on="0"/>
      </contour>
      <contour>
        <pt x="1074" y="1632" on="0"/>
        <pt x="1028" y="1677" on="0"/>
        <pt x="1028" y="1763" on="0"/>
        <pt x="1085" y="1829" on="0"/>
        <pt x="1131" y="1829" on="1"/>
        <pt x="1208" y="1829" on="0"/>
        <pt x="1208" y="1749" on="1"/>
        <pt x="1208" y="1700" on="0"/>
        <pt x="1178" y="1666" on="1"/>
        <pt x="1150" y="1632" on="0"/>
      </contour>
      <contour>
        <pt x="887" y="1485" on="1"/>
        <pt x="1132" y="1485" on="0"/>
        <pt x="1411" y="1176" on="0"/>
        <pt x="1411" y="637" on="0"/>
        <pt x="1234" y="213" on="0"/>
        <pt x="1071" y="96" on="1"/>
        <pt x="907" y="-20" on="0"/>
        <pt x="692" y="-20" on="1"/>
        <pt x="436" y="-20" on="0"/>
        <pt x="293" y="129" on="1"/>
        <pt x="150" y="280" on="0"/>
        <pt x="150" y="814" on="0"/>
        <pt x="342" y="1248" on="0"/>
        <pt x="676" y="1485" on="0"/>
      </contour>
      <contour>
        <pt x="400" y="951" on="1"/>
        <pt x="332" y="770" on="0"/>
        <pt x="332" y="355" on="0"/>
        <pt x="527" y="131" on="0"/>
        <pt x="849" y="131" on="0"/>
        <pt x="1087" y="324" on="0"/>
        <pt x="1229" y="688" on="0"/>
        <pt x="1229" y="1111" on="0"/>
        <pt x="1041" y="1333" on="0"/>
        <pt x="718" y="1333" on="0"/>
        <pt x="470" y="1132" on="0"/>
      </contour>
    </TTGlyph>
    <TTGlyph name="Ograve" xMin="150" yMin="-20" xMax="1411" yMax="1907">
      <contour>
        <pt x="1007" y="1579" on="1"/>
        <pt x="903" y="1579" on="1"/>
        <pt x="840" y="1642" on="0"/>
        <pt x="709" y="1822" on="0"/>
        <pt x="679" y="1886" on="1"/>
        <pt x="679" y="1907" on="1"/>
        <pt x="860" y="1907" on="1"/>
        <pt x="904" y="1770" on="0"/>
        <pt x="1007" y="1604" on="1"/>
      </contour>
      <contour>
        <pt x="887" y="1485" on="1"/>
        <pt x="1132" y="1485" on="0"/>
        <pt x="1411" y="1176" on="0"/>
        <pt x="1411" y="637" on="0"/>
        <pt x="1234" y="213" on="0"/>
        <pt x="1071" y="96" on="1"/>
        <pt x="907" y="-20" on="0"/>
        <pt x="692" y="-20" on="1"/>
        <pt x="436" y="-20" on="0"/>
        <pt x="293" y="129" on="1"/>
        <pt x="150" y="280" on="0"/>
        <pt x="150" y="814" on="0"/>
        <pt x="342" y="1248" on="0"/>
        <pt x="676" y="1485" on="0"/>
      </contour>
      <contour>
        <pt x="400" y="951" on="1"/>
        <pt x="332" y="770" on="0"/>
        <pt x="332" y="355" on="0"/>
        <pt x="527" y="131" on="0"/>
        <pt x="849" y="131" on="0"/>
        <pt x="1087" y="324" on="0"/>
        <pt x="1229" y="688" on="0"/>
        <pt x="1229" y="1111" on="0"/>
        <pt x="1041" y="1333" on="0"/>
        <pt x="718" y="1333" on="0"/>
        <pt x="470" y="1132" on="0"/>
      </contour>
    </TTGlyph>
    <TTGlyph name="Oslash" xMin="119" yMin="-84" xMax="1462" yMax="1540">
      <contour>
        <pt x="1411" y="907" on="1"/>
        <pt x="1411" y="637" on="0"/>
        <pt x="1234" y="213" on="0"/>
        <pt x="1071" y="96" on="1"/>
        <pt x="907" y="-20" on="0"/>
        <pt x="492" y="-20" on="0"/>
        <pt x="360" y="76" on="1"/>
        <pt x="231" y="-84" on="1"/>
        <pt x="119" y="8" on="1"/>
        <pt x="256" y="178" on="1"/>
        <pt x="150" y="314" on="0"/>
        <pt x="150" y="549" on="1"/>
        <pt x="150" y="814" on="0"/>
        <pt x="342" y="1248" on="0"/>
        <pt x="676" y="1485" on="0"/>
        <pt x="1077" y="1485" on="0"/>
        <pt x="1217" y="1374" on="1"/>
        <pt x="1348" y="1540" on="1"/>
        <pt x="1462" y="1448" on="1"/>
        <pt x="1313" y="1264" on="1"/>
        <pt x="1411" y="1137" on="0"/>
      </contour>
      <contour>
        <pt x="1110" y="1245" on="1"/>
        <pt x="1021" y="1333" on="0"/>
        <pt x="718" y="1333" on="0"/>
        <pt x="470" y="1132" on="0"/>
        <pt x="400" y="951" on="1"/>
        <pt x="332" y="770" on="0"/>
        <pt x="332" y="553" on="1"/>
        <pt x="332" y="419" on="0"/>
        <pt x="373" y="326" on="1"/>
      </contour>
      <contour>
        <pt x="463" y="205" on="1"/>
        <pt x="555" y="131" on="0"/>
        <pt x="849" y="131" on="0"/>
        <pt x="1087" y="324" on="0"/>
        <pt x="1229" y="688" on="0"/>
        <pt x="1229" y="911" on="1"/>
        <pt x="1229" y="1029" on="0"/>
        <pt x="1196" y="1116" on="1"/>
      </contour>
    </TTGlyph>
    <TTGlyph name="Otilde" xMin="150" yMin="-20" xMax="1411" yMax="1839">
      <contour>
        <pt x="1067" y="1581" on="1"/>
        <pt x="1022" y="1581" on="0"/>
        <pt x="915" y="1638" on="0"/>
        <pt x="817" y="1694" on="0"/>
        <pt x="740" y="1694" on="0"/>
        <pt x="688" y="1640" on="0"/>
        <pt x="665" y="1579" on="1"/>
        <pt x="565" y="1579" on="1"/>
        <pt x="624" y="1837" on="0"/>
        <pt x="796" y="1837" on="1"/>
        <pt x="835" y="1837" on="0"/>
        <pt x="923" y="1801" on="0"/>
        <pt x="954" y="1780" on="1"/>
        <pt x="1039" y="1722" on="0"/>
        <pt x="1122" y="1722" on="0"/>
        <pt x="1173" y="1774" on="0"/>
        <pt x="1200" y="1839" on="1"/>
        <pt x="1300" y="1839" on="1"/>
        <pt x="1234" y="1581" on="0"/>
      </contour>
      <contour>
        <pt x="887" y="1485" on="1"/>
        <pt x="1132" y="1485" on="0"/>
        <pt x="1411" y="1176" on="0"/>
        <pt x="1411" y="637" on="0"/>
        <pt x="1234" y="213" on="0"/>
        <pt x="1071" y="96" on="1"/>
        <pt x="907" y="-20" on="0"/>
        <pt x="692" y="-20" on="1"/>
        <pt x="436" y="-20" on="0"/>
        <pt x="293" y="129" on="1"/>
        <pt x="150" y="280" on="0"/>
        <pt x="150" y="814" on="0"/>
        <pt x="342" y="1248" on="0"/>
        <pt x="676" y="1485" on="0"/>
      </contour>
      <contour>
        <pt x="400" y="951" on="1"/>
        <pt x="332" y="770" on="0"/>
        <pt x="332" y="355" on="0"/>
        <pt x="527" y="131" on="0"/>
        <pt x="849" y="131" on="0"/>
        <pt x="1087" y="324" on="0"/>
        <pt x="1229" y="688" on="0"/>
        <pt x="1229" y="1111" on="0"/>
        <pt x="1041" y="1333" on="0"/>
        <pt x="718" y="1333" on="0"/>
        <pt x="470" y="1132" on="0"/>
      </contour>
    </TTGlyph>
    <TTGlyph name="P" xMin="86" yMin="0" xMax="1159" yMax="1462">
      <contour>
        <pt x="725" y="1462" on="1"/>
        <pt x="939" y="1462" on="0"/>
        <pt x="1159" y="1273" on="0"/>
        <pt x="1159" y="1085" on="1"/>
        <pt x="1159" y="836" on="0"/>
        <pt x="830" y="575" on="0"/>
        <pt x="514" y="575" on="1"/>
        <pt x="379" y="575" on="1"/>
        <pt x="256" y="0" on="1"/>
        <pt x="86" y="0" on="1"/>
        <pt x="395" y="1462" on="1"/>
      </contour>
      <contour>
        <pt x="543" y="721" on="1"/>
        <pt x="759" y="721" on="0"/>
        <pt x="983" y="903" on="0"/>
        <pt x="983" y="1079" on="1"/>
        <pt x="983" y="1203" on="0"/>
        <pt x="846" y="1315" on="0"/>
        <pt x="700" y="1315" on="1"/>
        <pt x="537" y="1315" on="1"/>
        <pt x="410" y="721" on="1"/>
      </contour>
    </TTGlyph>
    <TTGlyph name="Q" xMin="150" yMin="-348" xMax="1411" yMax="1485">
      <contour>
        <pt x="692" y="-20" on="1"/>
        <pt x="436" y="-20" on="0"/>
        <pt x="293" y="129" on="1"/>
        <pt x="150" y="280" on="0"/>
        <pt x="150" y="814" on="0"/>
        <pt x="342" y="1248" on="0"/>
        <pt x="676" y="1485" on="0"/>
        <pt x="887" y="1485" on="1"/>
        <pt x="1132" y="1485" on="0"/>
        <pt x="1411" y="1176" on="0"/>
        <pt x="1411" y="907" on="1"/>
        <pt x="1411" y="573" on="0"/>
        <pt x="1132" y="88" on="0"/>
        <pt x="897" y="10" on="1"/>
        <pt x="1171" y="-348" on="1"/>
        <pt x="952" y="-348" on="1"/>
        <pt x="725" y="-18" on="1"/>
        <pt x="708" y="-20" on="1"/>
      </contour>
      <contour>
        <pt x="1162" y="511" on="1"/>
        <pt x="1229" y="691" on="0"/>
        <pt x="1229" y="1111" on="0"/>
        <pt x="1041" y="1333" on="0"/>
        <pt x="718" y="1333" on="0"/>
        <pt x="470" y="1132" on="0"/>
        <pt x="400" y="951" on="1"/>
        <pt x="332" y="770" on="0"/>
        <pt x="332" y="355" on="0"/>
        <pt x="527" y="131" on="0"/>
        <pt x="854" y="131" on="0"/>
        <pt x="1096" y="331" on="0"/>
      </contour>
    </TTGlyph>
    <TTGlyph name="R" xMin="86" yMin="0" xMax="1161" yMax="1462">
      <contour>
        <pt x="715" y="1462" on="1"/>
        <pt x="1161" y="1462" on="0"/>
        <pt x="1161" y="1096" on="1"/>
        <pt x="1161" y="748" on="0"/>
        <pt x="793" y="647" on="1"/>
        <pt x="1032" y="0" on="1"/>
        <pt x="846" y="0" on="1"/>
        <pt x="637" y="608" on="1"/>
        <pt x="385" y="608" on="1"/>
        <pt x="256" y="0" on="1"/>
        <pt x="86" y="0" on="1"/>
        <pt x="395" y="1462" on="1"/>
      </contour>
      <contour>
        <pt x="584" y="754" on="1"/>
        <pt x="777" y="754" on="0"/>
        <pt x="985" y="924" on="0"/>
        <pt x="985" y="1083" on="1"/>
        <pt x="985" y="1204" on="0"/>
        <pt x="850" y="1313" on="0"/>
        <pt x="698" y="1313" on="1"/>
        <pt x="532" y="1313" on="1"/>
        <pt x="416" y="754" on="1"/>
      </contour>
    </TTGlyph>
    <TTGlyph name="S" xMin="39" yMin="-20" xMax="1059" yMax="1483">
      <contour>
        <pt x="694" y="1331" on="1"/>
        <pt x="560" y="1331" on="0"/>
        <pt x="397" y="1192" on="0"/>
        <pt x="397" y="1073" on="1"/>
        <pt x="397" y="1020" on="0"/>
        <pt x="430" y="942" on="0"/>
        <pt x="503" y="875" on="0"/>
        <pt x="610" y="813" on="1"/>
        <pt x="757" y="724" on="0"/>
        <pt x="808" y="675" on="1"/>
        <pt x="913" y="573" on="0"/>
        <pt x="913" y="424" on="1"/>
        <pt x="913" y="213" on="0"/>
        <pt x="632" y="-20" on="0"/>
        <pt x="377" y="-20" on="1"/>
        <pt x="172" y="-20" on="0"/>
        <pt x="39" y="43" on="1"/>
        <pt x="39" y="213" on="1"/>
        <pt x="201" y="129" on="0"/>
        <pt x="542" y="129" on="0"/>
        <pt x="731" y="281" on="0"/>
        <pt x="731" y="412" on="1"/>
        <pt x="731" y="490" on="0"/>
        <pt x="626" y="609" on="0"/>
        <pt x="330" y="776" on="0"/>
        <pt x="215" y="945" on="0"/>
        <pt x="215" y="1061" on="1"/>
        <pt x="215" y="1248" on="0"/>
        <pt x="478" y="1483" on="0"/>
        <pt x="694" y="1483" on="1"/>
        <pt x="884" y="1483" on="0"/>
        <pt x="1059" y="1399" on="1"/>
        <pt x="993" y="1249" on="1"/>
        <pt x="927" y="1287" on="0"/>
        <pt x="764" y="1331" on="0"/>
      </contour>
    </TTGlyph>
    <TTGlyph name="T" xMin="186" yMin="0" xMax="1204" yMax="1462">
      <contour>
        <pt x="315" y="0" on="1"/>
        <pt x="592" y="1311" on="1"/>
        <pt x="186" y="1311" on="1"/>
        <pt x="219" y="1462" on="1"/>
        <pt x="1204" y="1462" on="1"/>
        <pt x="1174" y="1311" on="1"/>
        <pt x="766" y="1311" on="1"/>
        <pt x="487" y="0" on="1"/>
      </contour>
    </TTGlyph>
    <TTGlyph name="U" xMin="164" yMin="-20" xMax="1407" yMax="1462">
      <contour>
        <pt x="1147" y="232" on="0"/>
        <pt x="862" y="-20" on="0"/>
        <pt x="389" y="-20" on="0"/>
        <pt x="164" y="185" on="0"/>
        <pt x="164" y="383" on="1"/>
        <pt x="164" y="464" on="0"/>
        <pt x="188" y="584" on="1"/>
        <pt x="377" y="1462" on="1"/>
        <pt x="547" y="1462" on="1"/>
        <pt x="356" y="571" on="1"/>
        <pt x="334" y="467" on="0"/>
        <pt x="334" y="383" on="1"/>
        <pt x="334" y="264" on="0"/>
        <pt x="483" y="131" on="0"/>
        <pt x="625" y="131" on="1"/>
        <pt x="798" y="131" on="0"/>
        <pt x="989" y="307" on="0"/>
        <pt x="1032" y="508" on="1"/>
        <pt x="1237" y="1462" on="1"/>
        <pt x="1407" y="1462" on="1"/>
        <pt x="1202" y="496" on="1"/>
      </contour>
    </TTGlyph>
    <TTGlyph name="Uacute" xMin="164" yMin="-20" xMax="1407" yMax="1907">
      <contour>
        <pt x="823" y="1579" on="1"/>
        <pt x="823" y="1606" on="1"/>
        <pt x="883" y="1671" on="0"/>
        <pt x="1013" y="1841" on="0"/>
        <pt x="1055" y="1907" on="1"/>
        <pt x="1245" y="1907" on="1"/>
        <pt x="1245" y="1886" on="1"/>
        <pt x="1211" y="1841" on="0"/>
        <pt x="1003" y="1633" on="0"/>
        <pt x="928" y="1579" on="1"/>
      </contour>
      <contour>
        <pt x="1147" y="232" on="0"/>
        <pt x="862" y="-20" on="0"/>
        <pt x="389" y="-20" on="0"/>
        <pt x="164" y="185" on="0"/>
        <pt x="164" y="383" on="1"/>
        <pt x="164" y="464" on="0"/>
        <pt x="188" y="584" on="1"/>
        <pt x="377" y="1462" on="1"/>
        <pt x="547" y="1462" on="1"/>
        <pt x="356" y="571" on="1"/>
        <pt x="334" y="467" on="0"/>
        <pt x="334" y="383" on="1"/>
        <pt x="334" y="264" on="0"/>
        <pt x="483" y="131" on="0"/>
        <pt x="625" y="131" on="1"/>
        <pt x="798" y="131" on="0"/>
        <pt x="989" y="307" on="0"/>
        <pt x="1032" y="508" on="1"/>
        <pt x="1237" y="1462" on="1"/>
        <pt x="1407" y="1462" on="1"/>
        <pt x="1202" y="496" on="1"/>
      </contour>
    </TTGlyph>
    <TTGlyph name="Ucircumflex" xMin="164" yMin="-20" xMax="1407" yMax="1907">
      <contour>
        <pt x="1217" y="1579" on="1"/>
        <pt x="1114" y="1579" on="1"/>
        <pt x="1056" y="1628" on="0"/>
        <pt x="953" y="1768" on="1"/>
        <pt x="821" y="1651" on="0"/>
        <pt x="711" y="1579" on="1"/>
        <pt x="602" y="1579" on="1"/>
        <pt x="602" y="1606" on="1"/>
        <pt x="753" y="1744" on="0"/>
        <pt x="806" y="1803" on="1"/>
        <pt x="867" y="1868" on="0"/>
        <pt x="889" y="1907" on="1"/>
        <pt x="1047" y="1907" on="1"/>
        <pt x="1085" y="1806" on="0"/>
        <pt x="1175" y="1672" on="1"/>
        <pt x="1217" y="1606" on="1"/>
      </contour>
      <contour>
        <pt x="1147" y="232" on="0"/>
        <pt x="862" y="-20" on="0"/>
        <pt x="389" y="-20" on="0"/>
        <pt x="164" y="185" on="0"/>
        <pt x="164" y="383" on="1"/>
        <pt x="164" y="464" on="0"/>
        <pt x="188" y="584" on="1"/>
        <pt x="377" y="1462" on="1"/>
        <pt x="547" y="1462" on="1"/>
        <pt x="356" y="571" on="1"/>
        <pt x="334" y="467" on="0"/>
        <pt x="334" y="383" on="1"/>
        <pt x="334" y="264" on="0"/>
        <pt x="483" y="131" on="0"/>
        <pt x="625" y="131" on="1"/>
        <pt x="798" y="131" on="0"/>
        <pt x="989" y="307" on="0"/>
        <pt x="1032" y="508" on="1"/>
        <pt x="1237" y="1462" on="1"/>
        <pt x="1407" y="1462" on="1"/>
        <pt x="1202" y="496" on="1"/>
      </contour>
    </TTGlyph>
    <TTGlyph name="Udieresis" xMin="164" yMin="-20" xMax="1407" yMax="1829">
      <contour>
        <pt x="689" y="1632" on="0"/>
        <pt x="643" y="1677" on="0"/>
        <pt x="643" y="1763" on="0"/>
        <pt x="700" y="1829" on="0"/>
        <pt x="745" y="1829" on="1"/>
        <pt x="823" y="1829" on="0"/>
        <pt x="823" y="1749" on="1"/>
        <pt x="823" y="1700" on="0"/>
        <pt x="793" y="1666" on="1"/>
        <pt x="765" y="1632" on="0"/>
      </contour>
      <contour>
        <pt x="1053" y="1632" on="0"/>
        <pt x="1007" y="1677" on="0"/>
        <pt x="1007" y="1763" on="0"/>
        <pt x="1064" y="1829" on="0"/>
        <pt x="1110" y="1829" on="1"/>
        <pt x="1187" y="1829" on="0"/>
        <pt x="1187" y="1749" on="1"/>
        <pt x="1187" y="1700" on="0"/>
        <pt x="1157" y="1666" on="1"/>
        <pt x="1129" y="1632" on="0"/>
      </contour>
      <contour>
        <pt x="1147" y="232" on="0"/>
        <pt x="862" y="-20" on="0"/>
        <pt x="389" y="-20" on="0"/>
        <pt x="164" y="185" on="0"/>
        <pt x="164" y="383" on="1"/>
        <pt x="164" y="464" on="0"/>
        <pt x="188" y="584" on="1"/>
        <pt x="377" y="1462" on="1"/>
        <pt x="547" y="1462" on="1"/>
        <pt x="356" y="571" on="1"/>
        <pt x="334" y="467" on="0"/>
        <pt x="334" y="383" on="1"/>
        <pt x="334" y="264" on="0"/>
        <pt x="483" y="131" on="0"/>
        <pt x="625" y="131" on="1"/>
        <pt x="798" y="131" on="0"/>
        <pt x="989" y="307" on="0"/>
        <pt x="1032" y="508" on="1"/>
        <pt x="1237" y="1462" on="1"/>
        <pt x="1407" y="1462" on="1"/>
        <pt x="1202" y="496" on="1"/>
      </contour>
    </TTGlyph>
    <TTGlyph name="Ugrave" xMin="164" yMin="-20" xMax="1407" yMax="1907">
      <contour>
        <pt x="991" y="1579" on="1"/>
        <pt x="887" y="1579" on="1"/>
        <pt x="824" y="1642" on="0"/>
        <pt x="693" y="1822" on="0"/>
        <pt x="663" y="1886" on="1"/>
        <pt x="663" y="1907" on="1"/>
        <pt x="844" y="1907" on="1"/>
        <pt x="888" y="1770" on="0"/>
        <pt x="991" y="1604" on="1"/>
      </contour>
      <contour>
        <pt x="1147" y="232" on="0"/>
        <pt x="862" y="-20" on="0"/>
        <pt x="389" y="-20" on="0"/>
        <pt x="164" y="185" on="0"/>
        <pt x="164" y="383" on="1"/>
        <pt x="164" y="464" on="0"/>
        <pt x="188" y="584" on="1"/>
        <pt x="377" y="1462" on="1"/>
        <pt x="547" y="1462" on="1"/>
        <pt x="356" y="571" on="1"/>
        <pt x="334" y="467" on="0"/>
        <pt x="334" y="383" on="1"/>
        <pt x="334" y="264" on="0"/>
        <pt x="483" y="131" on="0"/>
        <pt x="625" y="131" on="1"/>
        <pt x="798" y="131" on="0"/>
        <pt x="989" y="307" on="0"/>
        <pt x="1032" y="508" on="1"/>
        <pt x="1237" y="1462" on="1"/>
        <pt x="1407" y="1462" on="1"/>
        <pt x="1202" y="496" on="1"/>
      </contour>
    </TTGlyph>
    <TTGlyph name="V" xMin="188" yMin="0" xMax="1311" yMax="1462">
      <contour>
        <pt x="475" y="197" on="1"/>
        <pt x="479" y="197" on="1"/>
        <pt x="542" y="344" on="0"/>
        <pt x="641" y="535" on="1"/>
        <pt x="1120" y="1462" on="1"/>
        <pt x="1311" y="1462" on="1"/>
        <pt x="530" y="0" on="1"/>
        <pt x="350" y="0" on="1"/>
        <pt x="188" y="1462" on="1"/>
        <pt x="358" y="1462" on="1"/>
        <pt x="455" y="532" on="1"/>
        <pt x="475" y="330" on="0"/>
      </contour>
    </TTGlyph>
    <TTGlyph name="W" xMin="223" yMin="0" xMax="1921" yMax="1462">
      <contour>
        <pt x="1030" y="1247" on="1"/>
        <pt x="1024" y="1247" on="1"/>
        <pt x="995" y="1166" on="0"/>
        <pt x="927" y="1010" on="0"/>
        <pt x="459" y="0" on="1"/>
        <pt x="285" y="0" on="1"/>
        <pt x="223" y="1462" on="1"/>
        <pt x="393" y="1462" on="1"/>
        <pt x="424" y="561" on="1"/>
        <pt x="426" y="473" on="1"/>
        <pt x="426" y="368" on="0"/>
        <pt x="416" y="215" on="1"/>
        <pt x="422" y="215" on="1"/>
        <pt x="511" y="460" on="0"/>
        <pt x="578" y="598" on="1"/>
        <pt x="983" y="1462" on="1"/>
        <pt x="1161" y="1462" on="1"/>
        <pt x="1204" y="602" on="1"/>
        <pt x="1212" y="458" on="0"/>
        <pt x="1212" y="312" on="0"/>
        <pt x="1212" y="298" on="1"/>
        <pt x="1212" y="215" on="1"/>
        <pt x="1221" y="215" on="1"/>
        <pt x="1294" y="433" on="0"/>
        <pt x="1352" y="569" on="1"/>
        <pt x="1739" y="1462" on="1"/>
        <pt x="1921" y="1462" on="1"/>
        <pt x="1257" y="0" on="1"/>
        <pt x="1087" y="0" on="1"/>
        <pt x="1038" y="965" on="1"/>
        <pt x="1030" y="1111" on="0"/>
      </contour>
    </TTGlyph>
    <TTGlyph name="X" xMin="-104" yMin="0" xMax="1233" yMax="1462">
      <contour>
        <pt x="776" y="0" on="1"/>
        <pt x="563" y="641" on="1"/>
        <pt x="82" y="0" on="1"/>
        <pt x="-104" y="0" on="1"/>
        <pt x="492" y="776" on="1"/>
        <pt x="229" y="1462" on="1"/>
        <pt x="401" y="1462" on="1"/>
        <pt x="604" y="899" on="1"/>
        <pt x="1047" y="1462" on="1"/>
        <pt x="1233" y="1462" on="1"/>
        <pt x="678" y="768" on="1"/>
        <pt x="956" y="0" on="1"/>
      </contour>
    </TTGlyph>
    <TTGlyph name="Y" xMin="188" yMin="0" xMax="1219" yMax="1462">
      <contour>
        <pt x="1026" y="1462" on="1"/>
        <pt x="1219" y="1462" on="1"/>
        <pt x="592" y="541" on="1"/>
        <pt x="479" y="0" on="1"/>
        <pt x="307" y="0" on="1"/>
        <pt x="426" y="549" on="1"/>
        <pt x="188" y="1462" on="1"/>
        <pt x="358" y="1462" on="1"/>
        <pt x="537" y="715" on="1"/>
      </contour>
    </TTGlyph>
    <TTGlyph name="Ydieresis" xMin="188" yMin="0" xMax="1219" yMax="1829">
      <contour>
        <pt x="498" y="1632" on="0"/>
        <pt x="452" y="1677" on="0"/>
        <pt x="452" y="1763" on="0"/>
        <pt x="509" y="1829" on="0"/>
        <pt x="554" y="1829" on="1"/>
        <pt x="632" y="1829" on="0"/>
        <pt x="632" y="1749" on="1"/>
        <pt x="632" y="1700" on="0"/>
        <pt x="602" y="1666" on="1"/>
        <pt x="574" y="1632" on="0"/>
      </contour>
      <contour>
        <pt x="862" y="1632" on="0"/>
        <pt x="816" y="1677" on="0"/>
        <pt x="816" y="1763" on="0"/>
        <pt x="873" y="1829" on="0"/>
        <pt x="919" y="1829" on="1"/>
        <pt x="996" y="1829" on="0"/>
        <pt x="996" y="1749" on="1"/>
        <pt x="996" y="1700" on="0"/>
        <pt x="966" y="1666" on="1"/>
        <pt x="938" y="1632" on="0"/>
      </contour>
      <contour>
        <pt x="1219" y="1462" on="1"/>
        <pt x="592" y="541" on="1"/>
        <pt x="479" y="0" on="1"/>
        <pt x="307" y="0" on="1"/>
        <pt x="426" y="549" on="1"/>
        <pt x="188" y="1462" on="1"/>
        <pt x="358" y="1462" on="1"/>
        <pt x="537" y="715" on="1"/>
        <pt x="1026" y="1462" on="1"/>
      </contour>
    </TTGlyph>
    <TTGlyph name="Z" xMin="-16" yMin="0" xMax="1171" yMax="1462">
      <contour>
        <pt x="-16" y="0" on="1"/>
        <pt x="12" y="137" on="1"/>
        <pt x="936" y="1307" on="1"/>
        <pt x="281" y="1307" on="1"/>
        <pt x="313" y="1462" on="1"/>
        <pt x="1171" y="1462" on="1"/>
        <pt x="1145" y="1323" on="1"/>
        <pt x="221" y="154" on="1"/>
        <pt x="918" y="154" on="1"/>
        <pt x="885" y="0" on="1"/>
      </contour>
    </TTGlyph>
    <TTGlyph name="a" xMin="98" yMin="-20" xMax="1120" yMax="1116">
      <contour>
        <pt x="395" y="-20" on="1"/>
        <pt x="257" y="-20" on="0"/>
        <pt x="98" y="177" on="0"/>
        <pt x="98" y="350" on="1"/>
        <pt x="98" y="556" on="0"/>
        <pt x="239" y="913" on="0"/>
        <pt x="490" y="1116" on="0"/>
        <pt x="639" y="1116" on="1"/>
        <pt x="732" y="1116" on="0"/>
        <pt x="875" y="1017" on="0"/>
        <pt x="915" y="924" on="1"/>
        <pt x="926" y="924" on="1"/>
        <pt x="993" y="1096" on="1"/>
        <pt x="1120" y="1096" on="1"/>
        <pt x="887" y="0" on="1"/>
        <pt x="754" y="0" on="1"/>
        <pt x="780" y="209" on="1"/>
        <pt x="772" y="209" on="1"/>
        <pt x="594" y="-20" on="0"/>
      </contour>
      <contour>
        <pt x="270" y="234" on="0"/>
        <pt x="363" y="119" on="0"/>
        <pt x="545" y="119" on="0"/>
        <pt x="642" y="211" on="1"/>
        <pt x="738" y="304" on="0"/>
        <pt x="858" y="600" on="0"/>
        <pt x="858" y="750" on="1"/>
        <pt x="858" y="852" on="0"/>
        <pt x="747" y="975" on="0"/>
        <pt x="552" y="975" on="0"/>
        <pt x="461" y="889" on="1"/>
        <pt x="372" y="803" on="0"/>
        <pt x="270" y="509" on="0"/>
        <pt x="270" y="346" on="1"/>
      </contour>
    </TTGlyph>
    <TTGlyph name="aacute" xMin="98" yMin="-20" xMax="1120" yMax="1569">
      <contour>
        <pt x="600" y="1241" on="1"/>
        <pt x="600" y="1268" on="1"/>
        <pt x="660" y="1333" on="0"/>
        <pt x="790" y="1503" on="0"/>
        <pt x="832" y="1569" on="1"/>
        <pt x="1022" y="1569" on="1"/>
        <pt x="1022" y="1548" on="1"/>
        <pt x="988" y="1503" on="0"/>
        <pt x="780" y="1295" on="0"/>
        <pt x="705" y="1241" on="1"/>
      </contour>
      <contour>
        <pt x="395" y="-20" on="1"/>
        <pt x="257" y="-20" on="0"/>
        <pt x="98" y="177" on="0"/>
        <pt x="98" y="350" on="1"/>
        <pt x="98" y="556" on="0"/>
        <pt x="239" y="913" on="0"/>
        <pt x="490" y="1116" on="0"/>
        <pt x="639" y="1116" on="1"/>
        <pt x="732" y="1116" on="0"/>
        <pt x="875" y="1017" on="0"/>
        <pt x="915" y="924" on="1"/>
        <pt x="926" y="924" on="1"/>
        <pt x="993" y="1096" on="1"/>
        <pt x="1120" y="1096" on="1"/>
        <pt x="887" y="0" on="1"/>
        <pt x="754" y="0" on="1"/>
        <pt x="780" y="209" on="1"/>
        <pt x="772" y="209" on="1"/>
        <pt x="594" y="-20" on="0"/>
      </contour>
      <contour>
        <pt x="270" y="234" on="0"/>
        <pt x="363" y="119" on="0"/>
        <pt x="545" y="119" on="0"/>
        <pt x="642" y="211" on="1"/>
        <pt x="738" y="304" on="0"/>
        <pt x="858" y="600" on="0"/>
        <pt x="858" y="750" on="1"/>
        <pt x="858" y="852" on="0"/>
        <pt x="747" y="975" on="0"/>
        <pt x="552" y="975" on="0"/>
        <pt x="461" y="889" on="1"/>
        <pt x="372" y="803" on="0"/>
        <pt x="270" y="509" on="0"/>
        <pt x="270" y="346" on="1"/>
      </contour>
    </TTGlyph>
    <TTGlyph name="acircumflex" xMin="98" yMin="-20" xMax="1120" yMax="1569">
      <contour>
        <pt x="1005" y="1241" on="1"/>
        <pt x="902" y="1241" on="1"/>
        <pt x="844" y="1290" on="0"/>
        <pt x="741" y="1430" on="1"/>
        <pt x="609" y="1313" on="0"/>
        <pt x="499" y="1241" on="1"/>
        <pt x="390" y="1241" on="1"/>
        <pt x="390" y="1268" on="1"/>
        <pt x="541" y="1406" on="0"/>
        <pt x="594" y="1465" on="1"/>
        <pt x="655" y="1530" on="0"/>
        <pt x="677" y="1569" on="1"/>
        <pt x="835" y="1569" on="1"/>
        <pt x="873" y="1468" on="0"/>
        <pt x="963" y="1334" on="1"/>
        <pt x="1005" y="1268" on="1"/>
      </contour>
      <contour>
        <pt x="395" y="-20" on="1"/>
        <pt x="257" y="-20" on="0"/>
        <pt x="98" y="177" on="0"/>
        <pt x="98" y="350" on="1"/>
        <pt x="98" y="556" on="0"/>
        <pt x="239" y="913" on="0"/>
        <pt x="490" y="1116" on="0"/>
        <pt x="639" y="1116" on="1"/>
        <pt x="732" y="1116" on="0"/>
        <pt x="875" y="1017" on="0"/>
        <pt x="915" y="924" on="1"/>
        <pt x="926" y="924" on="1"/>
        <pt x="993" y="1096" on="1"/>
        <pt x="1120" y="1096" on="1"/>
        <pt x="887" y="0" on="1"/>
        <pt x="754" y="0" on="1"/>
        <pt x="780" y="209" on="1"/>
        <pt x="772" y="209" on="1"/>
        <pt x="594" y="-20" on="0"/>
      </contour>
      <contour>
        <pt x="270" y="234" on="0"/>
        <pt x="363" y="119" on="0"/>
        <pt x="545" y="119" on="0"/>
        <pt x="642" y="211" on="1"/>
        <pt x="738" y="304" on="0"/>
        <pt x="858" y="600" on="0"/>
        <pt x="858" y="750" on="1"/>
        <pt x="858" y="852" on="0"/>
        <pt x="747" y="975" on="0"/>
        <pt x="552" y="975" on="0"/>
        <pt x="461" y="889" on="1"/>
        <pt x="372" y="803" on="0"/>
        <pt x="270" y="509" on="0"/>
        <pt x="270" y="346" on="1"/>
      </contour>
    </TTGlyph>
    <TTGlyph name="acute" xMin="532" yMin="1241" xMax="954" yMax="1569">
      <contour>
        <pt x="532" y="1241" on="1"/>
        <pt x="532" y="1268" on="1"/>
        <pt x="592" y="1333" on="0"/>
        <pt x="722" y="1503" on="0"/>
        <pt x="764" y="1569" on="1"/>
        <pt x="954" y="1569" on="1"/>
        <pt x="954" y="1548" on="1"/>
        <pt x="920" y="1503" on="0"/>
        <pt x="712" y="1295" on="0"/>
        <pt x="637" y="1241" on="1"/>
      </contour>
    </TTGlyph>
    <TTGlyph name="adieresis" xMin="98" yMin="-20" xMax="1120" yMax="1491">
      <contour>
        <pt x="500" y="1294" on="0"/>
        <pt x="454" y="1339" on="0"/>
        <pt x="454" y="1425" on="0"/>
        <pt x="511" y="1491" on="0"/>
        <pt x="556" y="1491" on="1"/>
        <pt x="634" y="1491" on="0"/>
        <pt x="634" y="1411" on="1"/>
        <pt x="634" y="1363" on="0"/>
        <pt x="576" y="1294" on="0"/>
      </contour>
      <contour>
        <pt x="864" y="1294" on="0"/>
        <pt x="818" y="1339" on="0"/>
        <pt x="818" y="1425" on="0"/>
        <pt x="875" y="1491" on="0"/>
        <pt x="921" y="1491" on="1"/>
        <pt x="998" y="1491" on="0"/>
        <pt x="998" y="1411" on="1"/>
        <pt x="998" y="1363" on="0"/>
        <pt x="940" y="1294" on="0"/>
      </contour>
      <contour>
        <pt x="395" y="-20" on="1"/>
        <pt x="257" y="-20" on="0"/>
        <pt x="98" y="177" on="0"/>
        <pt x="98" y="350" on="1"/>
        <pt x="98" y="556" on="0"/>
        <pt x="239" y="913" on="0"/>
        <pt x="490" y="1116" on="0"/>
        <pt x="639" y="1116" on="1"/>
        <pt x="732" y="1116" on="0"/>
        <pt x="875" y="1017" on="0"/>
        <pt x="915" y="924" on="1"/>
        <pt x="926" y="924" on="1"/>
        <pt x="993" y="1096" on="1"/>
        <pt x="1120" y="1096" on="1"/>
        <pt x="887" y="0" on="1"/>
        <pt x="754" y="0" on="1"/>
        <pt x="780" y="209" on="1"/>
        <pt x="772" y="209" on="1"/>
        <pt x="594" y="-20" on="0"/>
      </contour>
      <contour>
        <pt x="270" y="234" on="0"/>
        <pt x="363" y="119" on="0"/>
        <pt x="545" y="119" on="0"/>
        <pt x="642" y="211" on="1"/>
        <pt x="738" y="304" on="0"/>
        <pt x="858" y="600" on="0"/>
        <pt x="858" y="750" on="1"/>
        <pt x="858" y="852" on="0"/>
        <pt x="747" y="975" on="0"/>
        <pt x="552" y="975" on="0"/>
        <pt x="461" y="889" on="1"/>
        <pt x="372" y="803" on="0"/>
        <pt x="270" y="509" on="0"/>
        <pt x="270" y="346" on="1"/>
      </contour>
    </TTGlyph>
    <TTGlyph name="ae" xMin="98" yMin="-20" xMax="1624" yMax="1116">
      <contour>
        <pt x="1165" y="-20" on="1"/>
        <pt x="1055" y="-20" on="0"/>
        <pt x="893" y="60" on="0"/>
        <pt x="854" y="139" on="1"/>
        <pt x="823" y="0" on="1"/>
        <pt x="709" y="0" on="1"/>
        <pt x="735" y="209" on="1"/>
        <pt x="727" y="209" on="1"/>
        <pt x="618" y="78" on="0"/>
        <pt x="452" y="-20" on="0"/>
        <pt x="358" y="-20" on="1"/>
        <pt x="236" y="-20" on="0"/>
        <pt x="98" y="178" on="0"/>
        <pt x="98" y="348" on="1"/>
        <pt x="98" y="556" on="0"/>
        <pt x="239" y="912" on="0"/>
        <pt x="481" y="1116" on="0"/>
        <pt x="623" y="1116" on="1"/>
        <pt x="791" y="1116" on="0"/>
        <pt x="870" y="924" on="1"/>
        <pt x="881" y="924" on="1"/>
        <pt x="948" y="1096" on="1"/>
        <pt x="1057" y="1096" on="1"/>
        <pt x="1026" y="950" on="1"/>
        <pt x="1149" y="1116" on="0"/>
        <pt x="1358" y="1116" on="1"/>
        <pt x="1476" y="1116" on="0"/>
        <pt x="1624" y="980" on="0"/>
        <pt x="1624" y="864" on="1"/>
        <pt x="1624" y="682" on="0"/>
        <pt x="1290" y="479" on="0"/>
        <pt x="985" y="479" on="1"/>
        <pt x="946" y="479" on="1"/>
        <pt x="942" y="399" on="1"/>
        <pt x="942" y="265" on="0"/>
        <pt x="1069" y="121" on="0"/>
        <pt x="1198" y="121" on="1"/>
        <pt x="1254" y="121" on="0"/>
        <pt x="1374" y="153" on="0"/>
        <pt x="1493" y="205" on="1"/>
        <pt x="1493" y="55" on="1"/>
        <pt x="1330" y="-20" on="0"/>
      </contour>
      <contour>
        <pt x="412" y="119" on="1"/>
        <pt x="508" y="119" on="0"/>
        <pt x="694" y="301" on="0"/>
        <pt x="813" y="599" on="0"/>
        <pt x="813" y="750" on="1"/>
        <pt x="813" y="853" on="0"/>
        <pt x="722" y="975" on="0"/>
        <pt x="645" y="975" on="1"/>
        <pt x="546" y="975" on="0"/>
        <pt x="370" y="802" on="0"/>
        <pt x="270" y="510" on="0"/>
        <pt x="270" y="348" on="1"/>
        <pt x="270" y="235" on="0"/>
        <pt x="343" y="119" on="0"/>
      </contour>
      <contour>
        <pt x="987" y="618" on="1"/>
        <pt x="1214" y="618" on="0"/>
        <pt x="1458" y="735" on="0"/>
        <pt x="1458" y="846" on="1"/>
        <pt x="1458" y="907" on="0"/>
        <pt x="1388" y="973" on="0"/>
        <pt x="1325" y="973" on="1"/>
        <pt x="1209" y="973" on="0"/>
        <pt x="1019" y="783" on="0"/>
        <pt x="973" y="618" on="1"/>
      </contour>
    </TTGlyph>
    <TTGlyph name="agrave" xMin="98" yMin="-20" xMax="1120" yMax="1569">
      <contour>
        <pt x="824" y="1241" on="1"/>
        <pt x="720" y="1241" on="1"/>
        <pt x="657" y="1304" on="0"/>
        <pt x="526" y="1484" on="0"/>
        <pt x="496" y="1548" on="1"/>
        <pt x="496" y="1569" on="1"/>
        <pt x="677" y="1569" on="1"/>
        <pt x="720" y="1432" on="0"/>
        <pt x="824" y="1266" on="1"/>
      </contour>
      <contour>
        <pt x="395" y="-20" on="1"/>
        <pt x="257" y="-20" on="0"/>
        <pt x="98" y="177" on="0"/>
        <pt x="98" y="350" on="1"/>
        <pt x="98" y="556" on="0"/>
        <pt x="239" y="913" on="0"/>
        <pt x="490" y="1116" on="0"/>
        <pt x="639" y="1116" on="1"/>
        <pt x="732" y="1116" on="0"/>
        <pt x="875" y="1017" on="0"/>
        <pt x="915" y="924" on="1"/>
        <pt x="926" y="924" on="1"/>
        <pt x="993" y="1096" on="1"/>
        <pt x="1120" y="1096" on="1"/>
        <pt x="887" y="0" on="1"/>
        <pt x="754" y="0" on="1"/>
        <pt x="780" y="209" on="1"/>
        <pt x="772" y="209" on="1"/>
        <pt x="594" y="-20" on="0"/>
      </contour>
      <contour>
        <pt x="270" y="234" on="0"/>
        <pt x="363" y="119" on="0"/>
        <pt x="545" y="119" on="0"/>
        <pt x="642" y="211" on="1"/>
        <pt x="738" y="304" on="0"/>
        <pt x="858" y="600" on="0"/>
        <pt x="858" y="750" on="1"/>
        <pt x="858" y="852" on="0"/>
        <pt x="747" y="975" on="0"/>
        <pt x="552" y="975" on="0"/>
        <pt x="461" y="889" on="1"/>
        <pt x="372" y="803" on="0"/>
        <pt x="270" y="509" on="0"/>
        <pt x="270" y="346" on="1"/>
      </contour>
    </TTGlyph>
    <TTGlyph name="alefdageshhb" xMin="-45" yMin="0" xMax="1180" yMax="1290">
      <contour>
        <pt x="1180" y="1290" on="1"/>
        <pt x="1091" y="871" on="1"/>
        <pt x="1044" y="654" on="0"/>
        <pt x="966" y="554" on="1"/>
        <pt x="933" y="512" on="0"/>
        <pt x="831" y="436" on="0"/>
        <pt x="767" y="413" on="1"/>
        <pt x="928" y="0" on="1"/>
        <pt x="741" y="0" on="1"/>
        <pt x="540" y="539" on="1"/>
        <pt x="437" y="767" on="1"/>
        <pt x="394" y="752" on="0"/>
        <pt x="373" y="737" on="1"/>
        <pt x="261" y="660" on="0"/>
        <pt x="223" y="479" on="1"/>
        <pt x="121" y="0" on="1"/>
        <pt x="-45" y="0" on="1"/>
        <pt x="44" y="419" on="1"/>
        <pt x="58" y="485" on="0"/>
        <pt x="88" y="586" on="0"/>
        <pt x="143" y="702" on="0"/>
        <pt x="213" y="787" on="0"/>
        <pt x="323" y="862" on="0"/>
        <pt x="392" y="884" on="1"/>
        <pt x="230" y="1290" on="1"/>
        <pt x="418" y="1290" on="1"/>
        <pt x="608" y="791" on="1"/>
        <pt x="720" y="532" on="1"/>
        <pt x="800" y="573" on="0"/>
        <pt x="850" y="646" on="1"/>
        <pt x="889" y="703" on="0"/>
        <pt x="912" y="811" on="1"/>
        <pt x="1014" y="1290" on="1"/>
      </contour>
      <contour>
        <pt x="425" y="461" on="1"/>
        <pt x="484" y="461" on="0"/>
        <pt x="484" y="405" on="1"/>
        <pt x="484" y="391" on="0"/>
        <pt x="480" y="374" on="1"/>
        <pt x="462" y="288" on="0"/>
        <pt x="389" y="288" on="1"/>
        <pt x="333" y="288" on="0"/>
        <pt x="333" y="342" on="1"/>
        <pt x="333" y="356" on="0"/>
        <pt x="337" y="374" on="1"/>
        <pt x="355" y="461" on="0"/>
      </contour>
    </TTGlyph>
    <TTGlyph name="alefpatahhb" xMin="-45" yMin="-225" xMax="1180" yMax="1290">
      <contour>
        <pt x="1180" y="1290" on="1"/>
        <pt x="1091" y="871" on="1"/>
        <pt x="1044" y="654" on="0"/>
        <pt x="966" y="554" on="1"/>
        <pt x="933" y="512" on="0"/>
        <pt x="831" y="436" on="0"/>
        <pt x="767" y="413" on="1"/>
        <pt x="928" y="0" on="1"/>
        <pt x="741" y="0" on="1"/>
        <pt x="540" y="539" on="1"/>
        <pt x="437" y="767" on="1"/>
        <pt x="394" y="752" on="0"/>
        <pt x="373" y="737" on="1"/>
        <pt x="261" y="660" on="0"/>
        <pt x="223" y="479" on="1"/>
        <pt x="121" y="0" on="1"/>
        <pt x="-45" y="0" on="1"/>
        <pt x="44" y="419" on="1"/>
        <pt x="58" y="485" on="0"/>
        <pt x="88" y="586" on="0"/>
        <pt x="143" y="702" on="0"/>
        <pt x="213" y="787" on="0"/>
        <pt x="323" y="862" on="0"/>
        <pt x="392" y="884" on="1"/>
        <pt x="230" y="1290" on="1"/>
        <pt x="418" y="1290" on="1"/>
        <pt x="608" y="791" on="1"/>
        <pt x="720" y="532" on="1"/>
        <pt x="800" y="573" on="0"/>
        <pt x="850" y="646" on="1"/>
        <pt x="889" y="703" on="0"/>
        <pt x="912" y="811" on="1"/>
        <pt x="1014" y="1290" on="1"/>
      </contour>
      <contour>
        <pt x="597" y="-225" on="1"/>
        <pt x="187" y="-225" on="1"/>
        <pt x="205" y="-143" on="1"/>
        <pt x="615" y="-143" on="1"/>
      </contour>
    </TTGlyph>
    <TTGlyph name="alefqamatshb" xMin="-45" yMin="-457" xMax="1180" yMax="1290">
      <contour>
        <pt x="1180" y="1290" on="1"/>
        <pt x="1091" y="871" on="1"/>
        <pt x="1044" y="654" on="0"/>
        <pt x="966" y="554" on="1"/>
        <pt x="933" y="512" on="0"/>
        <pt x="831" y="436" on="0"/>
        <pt x="767" y="413" on="1"/>
        <pt x="928" y="0" on="1"/>
        <pt x="741" y="0" on="1"/>
        <pt x="540" y="539" on="1"/>
        <pt x="437" y="767" on="1"/>
        <pt x="394" y="752" on="0"/>
        <pt x="373" y="737" on="1"/>
        <pt x="261" y="660" on="0"/>
        <pt x="223" y="479" on="1"/>
        <pt x="121" y="0" on="1"/>
        <pt x="-45" y="0" on="1"/>
        <pt x="44" y="419" on="1"/>
        <pt x="58" y="485" on="0"/>
        <pt x="88" y="586" on="0"/>
        <pt x="143" y="702" on="0"/>
        <pt x="213" y="787" on="0"/>
        <pt x="323" y="862" on="0"/>
        <pt x="392" y="884" on="1"/>
        <pt x="230" y="1290" on="1"/>
        <pt x="418" y="1290" on="1"/>
        <pt x="608" y="791" on="1"/>
        <pt x="720" y="532" on="1"/>
        <pt x="800" y="573" on="0"/>
        <pt x="850" y="646" on="1"/>
        <pt x="889" y="703" on="0"/>
        <pt x="912" y="811" on="1"/>
        <pt x="1014" y="1290" on="1"/>
      </contour>
      <contour>
        <pt x="598" y="-225" on="1"/>
        <pt x="434" y="-225" on="1"/>
        <pt x="385" y="-457" on="1"/>
        <pt x="303" y="-457" on="1"/>
        <pt x="352" y="-225" on="1"/>
        <pt x="188" y="-225" on="1"/>
        <pt x="205" y="-143" on="1"/>
        <pt x="615" y="-143" on="1"/>
      </contour>
    </TTGlyph>
    <TTGlyph name="ampersand" xMin="66" yMin="-20" xMax="1311" yMax="1485">
      <contour>
        <pt x="436" y="-20" on="1"/>
        <pt x="268" y="-20" on="0"/>
        <pt x="66" y="172" on="0"/>
        <pt x="66" y="342" on="1"/>
        <pt x="66" y="490" on="0"/>
        <pt x="247" y="709" on="0"/>
        <pt x="459" y="811" on="1"/>
        <pt x="356" y="975" on="0"/>
        <pt x="356" y="1120" on="1"/>
        <pt x="356" y="1284" on="0"/>
        <pt x="569" y="1485" on="0"/>
        <pt x="743" y="1485" on="1"/>
        <pt x="893" y="1485" on="0"/>
        <pt x="1067" y="1327" on="0"/>
        <pt x="1067" y="1194" on="1"/>
        <pt x="1067" y="1115" on="0"/>
        <pt x="1026" y="1040" on="1"/>
        <pt x="998" y="989" on="0"/>
        <pt x="915" y="922" on="1"/>
        <pt x="867" y="884" on="0"/>
        <pt x="724" y="806" on="0"/>
        <pt x="666" y="776" on="1"/>
        <pt x="944" y="387" on="1"/>
        <pt x="1070" y="495" on="0"/>
        <pt x="1143" y="682" on="1"/>
        <pt x="1311" y="682" on="1"/>
        <pt x="1210" y="446" on="0"/>
        <pt x="1028" y="270" on="1"/>
        <pt x="1231" y="0" on="1"/>
        <pt x="1030" y="0" on="1"/>
        <pt x="913" y="166" on="1"/>
        <pt x="796" y="68" on="0"/>
        <pt x="575" y="-20" on="0"/>
      </contour>
      <contour>
        <pt x="737" y="1348" on="1"/>
        <pt x="632" y="1348" on="0"/>
        <pt x="516" y="1228" on="0"/>
        <pt x="516" y="998" on="0"/>
        <pt x="598" y="883" on="1"/>
        <pt x="732" y="951" on="0"/>
        <pt x="789" y="993" on="1"/>
        <pt x="903" y="1079" on="0"/>
        <pt x="903" y="1182" on="1"/>
        <pt x="903" y="1260" on="0"/>
        <pt x="817" y="1348" on="0"/>
      </contour>
      <contour>
        <pt x="229" y="354" on="1"/>
        <pt x="229" y="248" on="0"/>
        <pt x="295" y="183" on="1"/>
        <pt x="362" y="119" on="0"/>
        <pt x="471" y="119" on="1"/>
        <pt x="558" y="119" on="0"/>
        <pt x="721" y="186" on="0"/>
        <pt x="834" y="276" on="1"/>
        <pt x="528" y="709" on="1"/>
        <pt x="395" y="639" on="0"/>
        <pt x="344" y="593" on="1"/>
        <pt x="229" y="493" on="0"/>
      </contour>
    </TTGlyph>
    <TTGlyph name="aring" xMin="98" yMin="-20" xMax="1120" yMax="1665">
      <contour>
        <pt x="833" y="1665" on="0"/>
        <pt x="951" y="1552" on="0"/>
        <pt x="951" y="1357" on="0"/>
        <pt x="831" y="1241" on="0"/>
        <pt x="631" y="1241" on="0"/>
        <pt x="513" y="1356" on="0"/>
        <pt x="513" y="1547" on="0"/>
        <pt x="637" y="1665" on="0"/>
      </contour>
      <contour>
        <pt x="847" y="1401" on="0"/>
        <pt x="847" y="1507" on="0"/>
        <pt x="784" y="1569" on="0"/>
        <pt x="682" y="1569" on="0"/>
        <pt x="617" y="1506" on="0"/>
        <pt x="617" y="1399" on="0"/>
        <pt x="676" y="1339" on="0"/>
        <pt x="784" y="1339" on="0"/>
      </contour>
      <contour>
        <pt x="395" y="-20" on="1"/>
        <pt x="257" y="-20" on="0"/>
        <pt x="98" y="177" on="0"/>
        <pt x="98" y="350" on="1"/>
        <pt x="98" y="556" on="0"/>
        <pt x="239" y="913" on="0"/>
        <pt x="490" y="1116" on="0"/>
        <pt x="639" y="1116" on="1"/>
        <pt x="732" y="1116" on="0"/>
        <pt x="875" y="1017" on="0"/>
        <pt x="915" y="924" on="1"/>
        <pt x="926" y="924" on="1"/>
        <pt x="993" y="1096" on="1"/>
        <pt x="1120" y="1096" on="1"/>
        <pt x="887" y="0" on="1"/>
        <pt x="754" y="0" on="1"/>
        <pt x="780" y="209" on="1"/>
        <pt x="772" y="209" on="1"/>
        <pt x="594" y="-20" on="0"/>
      </contour>
      <contour>
        <pt x="270" y="234" on="0"/>
        <pt x="363" y="119" on="0"/>
        <pt x="545" y="119" on="0"/>
        <pt x="642" y="211" on="1"/>
        <pt x="738" y="304" on="0"/>
        <pt x="858" y="600" on="0"/>
        <pt x="858" y="750" on="1"/>
        <pt x="858" y="852" on="0"/>
        <pt x="747" y="975" on="0"/>
        <pt x="552" y="975" on="0"/>
        <pt x="461" y="889" on="1"/>
        <pt x="372" y="803" on="0"/>
        <pt x="270" y="509" on="0"/>
        <pt x="270" y="346" on="1"/>
      </contour>
    </TTGlyph>
    <TTGlyph name="asciicircum" xMin="53" yMin="553" xMax="1026" yMax="1473">
      <contour>
        <pt x="651" y="1473" on="1"/>
        <pt x="760" y="1473" on="1"/>
        <pt x="1026" y="553" on="1"/>
        <pt x="881" y="553" on="1"/>
        <pt x="680" y="1300" on="1"/>
        <pt x="213" y="553" on="1"/>
        <pt x="53" y="553" on="1"/>
      </contour>
    </TTGlyph>
    <TTGlyph name="asciitilde" xMin="115" yMin="592" xMax="1075" yMax="852">
      <contour>
        <pt x="831" y="592" on="1"/>
        <pt x="706" y="592" on="0"/>
        <pt x="561" y="657" on="1"/>
        <pt x="483" y="690" on="0"/>
        <pt x="396" y="713" on="0"/>
        <pt x="294" y="713" on="0"/>
        <pt x="163" y="642" on="0"/>
        <pt x="115" y="592" on="1"/>
        <pt x="115" y="743" on="1"/>
        <pt x="212" y="852" on="0"/>
        <pt x="358" y="852" on="1"/>
        <pt x="426" y="852" on="0"/>
        <pt x="544" y="824" on="0"/>
        <pt x="759" y="731" on="0"/>
        <pt x="840" y="731" on="1"/>
        <pt x="895" y="731" on="0"/>
        <pt x="1024" y="797" on="0"/>
        <pt x="1075" y="852" on="1"/>
        <pt x="1075" y="702" on="1"/>
        <pt x="974" y="592" on="0"/>
      </contour>
    </TTGlyph>
    <TTGlyph name="asterisk" xMin="215" yMin="618" xMax="1153" yMax="1563">
      <contour>
        <pt x="731" y="1145" on="1"/>
        <pt x="1153" y="1163" on="1"/>
        <pt x="1145" y="1006" on="1"/>
        <pt x="752" y="1053" on="1"/>
        <pt x="932" y="670" on="1"/>
        <pt x="766" y="618" on="1"/>
        <pt x="653" y="1024" on="1"/>
        <pt x="395" y="680" on="1"/>
        <pt x="279" y="801" on="1"/>
        <pt x="588" y="1085" on="1"/>
        <pt x="215" y="1194" on="1"/>
        <pt x="270" y="1348" on="1"/>
        <pt x="641" y="1163" on="1"/>
        <pt x="682" y="1563" on="1"/>
        <pt x="854" y="1528" on="1"/>
      </contour>
    </TTGlyph>
    <TTGlyph name="at" xMin="111" yMin="-186" xMax="1679" yMax="1460">
      <contour>
        <pt x="786" y="-186" on="1"/>
        <pt x="473" y="-186" on="0"/>
        <pt x="111" y="183" on="0"/>
        <pt x="111" y="504" on="1"/>
        <pt x="111" y="766" on="0"/>
        <pt x="365" y="1215" on="0"/>
        <pt x="798" y="1460" on="0"/>
        <pt x="1067" y="1460" on="1"/>
        <pt x="1072" y="1460" on="0"/>
        <pt x="1077" y="1460" on="1"/>
        <pt x="1353" y="1460" on="0"/>
        <pt x="1679" y="1128" on="0"/>
        <pt x="1679" y="859" on="1"/>
        <pt x="1679" y="855" on="0"/>
        <pt x="1679" y="852" on="1"/>
        <pt x="1679" y="672" on="0"/>
        <pt x="1569" y="383" on="0"/>
        <pt x="1369" y="219" on="0"/>
        <pt x="1247" y="219" on="1"/>
        <pt x="1050" y="219" on="0"/>
        <pt x="1034" y="403" on="1"/>
        <pt x="1026" y="403" on="1"/>
        <pt x="915" y="219" on="0"/>
        <pt x="735" y="219" on="1"/>
        <pt x="620" y="219" on="0"/>
        <pt x="489" y="370" on="0"/>
        <pt x="489" y="660" on="0"/>
        <pt x="624" y="914" on="0"/>
        <pt x="745" y="987" on="1"/>
        <pt x="866" y="1059" on="0"/>
        <pt x="1006" y="1059" on="1"/>
        <pt x="1072" y="1059" on="0"/>
        <pt x="1195" y="1035" on="0"/>
        <pt x="1284" y="999" on="1"/>
        <pt x="1268" y="939" on="0"/>
        <pt x="1199" y="678" on="0"/>
        <pt x="1155" y="517" on="0"/>
        <pt x="1155" y="467" on="1"/>
        <pt x="1155" y="463" on="0"/>
        <pt x="1155" y="459" on="1"/>
        <pt x="1155" y="342" on="0"/>
        <pt x="1257" y="342" on="1"/>
        <pt x="1335" y="342" on="0"/>
        <pt x="1461" y="475" on="0"/>
        <pt x="1536" y="707" on="0"/>
        <pt x="1536" y="836" on="1"/>
        <pt x="1536" y="1076" on="0"/>
        <pt x="1280" y="1331" on="0"/>
        <pt x="810" y="1331" on="0"/>
        <pt x="454" y="1118" on="0"/>
        <pt x="256" y="740" on="0"/>
        <pt x="256" y="512" on="1"/>
        <pt x="256" y="242" on="0"/>
        <pt x="399" y="93" on="1"/>
        <pt x="543" y="-55" on="0"/>
        <pt x="809" y="-55" on="1"/>
        <pt x="1004" y="-55" on="0"/>
        <pt x="1229" y="31" on="1"/>
        <pt x="1229" y="-96" on="1"/>
        <pt x="1010" y="-186" on="0"/>
      </contour>
      <contour>
        <pt x="985" y="938" on="1"/>
        <pt x="890" y="938" on="0"/>
        <pt x="732" y="828" on="0"/>
        <pt x="639" y="634" on="0"/>
        <pt x="639" y="426" on="0"/>
        <pt x="704" y="342" on="0"/>
        <pt x="770" y="342" on="1"/>
        <pt x="956" y="342" on="0"/>
        <pt x="1042" y="657" on="1"/>
        <pt x="1112" y="915" on="1"/>
        <pt x="1048" y="938" on="0"/>
      </contour>
    </TTGlyph>
    <TTGlyph name="atilde" xMin="98" yMin="-20" xMax="1120" yMax="1501">
      <contour>
        <pt x="856" y="1243" on="1"/>
        <pt x="811" y="1243" on="0"/>
        <pt x="704" y="1300" on="0"/>
        <pt x="606" y="1356" on="0"/>
        <pt x="529" y="1356" on="0"/>
        <pt x="477" y="1302" on="0"/>
        <pt x="454" y="1241" on="1"/>
        <pt x="354" y="1241" on="1"/>
        <pt x="412" y="1499" on="0"/>
        <pt x="585" y="1499" on="1"/>
        <pt x="624" y="1499" on="0"/>
        <pt x="712" y="1463" on="0"/>
        <pt x="744" y="1442" on="1"/>
        <pt x="828" y="1384" on="0"/>
        <pt x="911" y="1384" on="0"/>
        <pt x="962" y="1436" on="0"/>
        <pt x="989" y="1501" on="1"/>
        <pt x="1089" y="1501" on="1"/>
        <pt x="1023" y="1243" on="0"/>
      </contour>
      <contour>
        <pt x="395" y="-20" on="1"/>
        <pt x="257" y="-20" on="0"/>
        <pt x="98" y="177" on="0"/>
        <pt x="98" y="350" on="1"/>
        <pt x="98" y="556" on="0"/>
        <pt x="239" y="913" on="0"/>
        <pt x="490" y="1116" on="0"/>
        <pt x="639" y="1116" on="1"/>
        <pt x="732" y="1116" on="0"/>
        <pt x="875" y="1017" on="0"/>
        <pt x="915" y="924" on="1"/>
        <pt x="926" y="924" on="1"/>
        <pt x="993" y="1096" on="1"/>
        <pt x="1120" y="1096" on="1"/>
        <pt x="887" y="0" on="1"/>
        <pt x="754" y="0" on="1"/>
        <pt x="780" y="209" on="1"/>
        <pt x="772" y="209" on="1"/>
        <pt x="594" y="-20" on="0"/>
      </contour>
      <contour>
        <pt x="270" y="234" on="0"/>
        <pt x="363" y="119" on="0"/>
        <pt x="545" y="119" on="0"/>
        <pt x="642" y="211" on="1"/>
        <pt x="738" y="304" on="0"/>
        <pt x="858" y="600" on="0"/>
        <pt x="858" y="750" on="1"/>
        <pt x="858" y="852" on="0"/>
        <pt x="747" y="975" on="0"/>
        <pt x="552" y="975" on="0"/>
        <pt x="461" y="889" on="1"/>
        <pt x="372" y="803" on="0"/>
        <pt x="270" y="509" on="0"/>
        <pt x="270" y="346" on="1"/>
      </contour>
    </TTGlyph>
    <TTGlyph name="b" xMin="59" yMin="-20" xMax="1081" yMax="1556">
      <contour>
        <pt x="782" y="1114" on="1"/>
        <pt x="922" y="1114" on="0"/>
        <pt x="1081" y="917" on="0"/>
        <pt x="1081" y="743" on="1"/>
        <pt x="1081" y="534" on="0"/>
        <pt x="945" y="180" on="0"/>
        <pt x="700" y="-20" on="0"/>
        <pt x="545" y="-20" on="1"/>
        <pt x="449" y="-20" on="0"/>
        <pt x="301" y="81" on="0"/>
        <pt x="264" y="170" on="1"/>
        <pt x="254" y="170" on="1"/>
        <pt x="184" y="0" on="1"/>
        <pt x="59" y="0" on="1"/>
        <pt x="389" y="1556" on="1"/>
        <pt x="557" y="1556" on="1"/>
        <pt x="493" y="1252" on="0"/>
        <pt x="451" y="1058" on="0"/>
        <pt x="403" y="885" on="1"/>
        <pt x="412" y="885" on="1"/>
        <pt x="593" y="1114" on="0"/>
      </contour>
      <contour>
        <pt x="731" y="975" on="1"/>
        <pt x="636" y="975" on="0"/>
        <pt x="535" y="880" on="1"/>
        <pt x="436" y="785" on="0"/>
        <pt x="319" y="498" on="0"/>
        <pt x="319" y="346" on="1"/>
        <pt x="319" y="236" on="0"/>
        <pt x="430" y="119" on="0"/>
        <pt x="634" y="119" on="0"/>
        <pt x="804" y="281" on="0"/>
        <pt x="857" y="430" on="1"/>
        <pt x="909" y="579" on="0"/>
        <pt x="909" y="748" on="1"/>
        <pt x="909" y="975" on="0"/>
      </contour>
    </TTGlyph>
    <TTGlyph name="backslash" xMin="221" yMin="0" xMax="592" yMax="1462">
      <contour>
        <pt x="592" y="0" on="1"/>
        <pt x="438" y="0" on="1"/>
        <pt x="221" y="1462" on="1"/>
        <pt x="375" y="1462" on="1"/>
      </contour>
    </TTGlyph>
    <TTGlyph name="bar" xMin="541" yMin="-496" xMax="680" yMax="1556">
      <contour>
        <pt x="680" y="1556" on="1"/>
        <pt x="680" y="-496" on="1"/>
        <pt x="541" y="-496" on="1"/>
        <pt x="541" y="1556" on="1"/>
      </contour>
    </TTGlyph>
    <TTGlyph name="betdageshhb" xMin="-37" yMin="0" xMax="968" yMax="1310">
      <contour>
        <pt x="238" y="1295" on="1"/>
        <pt x="401" y="1310" on="0"/>
        <pt x="831" y="1310" on="0"/>
        <pt x="914" y="1216" on="1"/>
        <pt x="968" y="1157" on="0"/>
        <pt x="968" y="1046" on="1"/>
        <pt x="968" y="981" on="0"/>
        <pt x="950" y="900" on="1"/>
        <pt x="786" y="129" on="1"/>
        <pt x="933" y="129" on="1"/>
        <pt x="906" y="0" on="1"/>
        <pt x="-37" y="0" on="1"/>
        <pt x="-10" y="129" on="1"/>
        <pt x="620" y="129" on="1"/>
        <pt x="785" y="902" on="1"/>
        <pt x="797" y="959" on="0"/>
        <pt x="797" y="1040" on="0"/>
        <pt x="774" y="1097" on="0"/>
        <pt x="736" y="1137" on="0"/>
        <pt x="706" y="1148" on="1"/>
        <pt x="647" y="1169" on="0"/>
        <pt x="567" y="1169" on="1"/>
        <pt x="403" y="1169" on="0"/>
        <pt x="260" y="1158" on="1"/>
        <pt x="208" y="1154" on="1"/>
      </contour>
      <contour>
        <pt x="415" y="752" on="1"/>
        <pt x="474" y="752" on="0"/>
        <pt x="474" y="696" on="1"/>
        <pt x="474" y="682" on="0"/>
        <pt x="470" y="665" on="1"/>
        <pt x="452" y="579" on="0"/>
        <pt x="379" y="579" on="1"/>
        <pt x="323" y="579" on="0"/>
        <pt x="323" y="633" on="1"/>
        <pt x="323" y="647" on="0"/>
        <pt x="327" y="665" on="1"/>
        <pt x="345" y="752" on="0"/>
      </contour>
    </TTGlyph>
    <TTGlyph name="braceleft" xMin="27" yMin="-324" xMax="815" yMax="1462">
      <contour>
        <pt x="465" y="-324" on="1"/>
        <pt x="442" y="-324" on="1"/>
        <pt x="297" y="-324" on="0"/>
        <pt x="150" y="-217" on="0"/>
        <pt x="150" y="-100" on="1"/>
        <pt x="150" y="-50" on="0"/>
        <pt x="177" y="74" on="0"/>
        <pt x="198" y="165" on="0"/>
        <pt x="208" y="209" on="0"/>
        <pt x="224" y="279" on="0"/>
        <pt x="228" y="303" on="0"/>
        <pt x="237" y="352" on="0"/>
        <pt x="235" y="356" on="0"/>
        <pt x="236" y="371" on="1"/>
        <pt x="236" y="514" on="0"/>
        <pt x="27" y="514" on="1"/>
        <pt x="59" y="657" on="1"/>
        <pt x="181" y="657" on="0"/>
        <pt x="321" y="747" on="0"/>
        <pt x="342" y="848" on="1"/>
        <pt x="410" y="1174" on="1"/>
        <pt x="444" y="1333" on="0"/>
        <pt x="610" y="1462" on="0"/>
        <pt x="782" y="1462" on="1"/>
        <pt x="815" y="1462" on="1"/>
        <pt x="784" y="1321" on="1"/>
        <pt x="679" y="1321" on="0"/>
        <pt x="586" y="1248" on="0"/>
        <pt x="567" y="1161" on="1"/>
        <pt x="496" y="840" on="1"/>
        <pt x="469" y="719" on="0"/>
        <pt x="344" y="596" on="0"/>
        <pt x="238" y="578" on="1"/>
        <pt x="238" y="573" on="1"/>
        <pt x="389" y="533" on="0"/>
        <pt x="389" y="360" on="1"/>
        <pt x="389" y="301" on="0"/>
        <pt x="371" y="229" on="1"/>
        <pt x="324" y="18" on="1"/>
        <pt x="309" y="-40" on="0"/>
        <pt x="309" y="-134" on="0"/>
        <pt x="382" y="-182" on="0"/>
        <pt x="465" y="-182" on="1"/>
      </contour>
    </TTGlyph>
    <TTGlyph name="braceright" xMin="-74" yMin="-324" xMax="705" yMax="1462">
      <contour>
        <pt x="285" y="1462" on="1"/>
        <pt x="432" y="1462" on="0"/>
        <pt x="582" y="1354" on="0"/>
        <pt x="582" y="1239" on="1"/>
        <pt x="582" y="1191" on="0"/>
        <pt x="561" y="1098" on="1"/>
        <pt x="512" y="879" on="1"/>
        <pt x="496" y="814" on="0"/>
        <pt x="496" y="768" on="1"/>
        <pt x="496" y="625" on="0"/>
        <pt x="705" y="625" on="1"/>
        <pt x="672" y="481" on="1"/>
        <pt x="549" y="481" on="0"/>
        <pt x="410" y="392" on="0"/>
        <pt x="389" y="291" on="1"/>
        <pt x="322" y="-35" on="1"/>
        <pt x="286" y="-199" on="0"/>
        <pt x="120" y="-324" on="0"/>
        <pt x="-61" y="-324" on="1"/>
        <pt x="-74" y="-324" on="1"/>
        <pt x="-74" y="-182" on="1"/>
        <pt x="40" y="-182" on="0"/>
        <pt x="144" y="-111" on="0"/>
        <pt x="164" y="-23" on="1"/>
        <pt x="236" y="299" on="1"/>
        <pt x="261" y="415" on="0"/>
        <pt x="386" y="541" on="0"/>
        <pt x="494" y="559" on="1"/>
        <pt x="494" y="565" on="1"/>
        <pt x="344" y="607" on="0"/>
        <pt x="344" y="776" on="1"/>
        <pt x="344" y="835" on="0"/>
        <pt x="362" y="907" on="1"/>
        <pt x="412" y="1120" on="1"/>
        <pt x="426" y="1187" on="0"/>
        <pt x="426" y="1219" on="1"/>
        <pt x="426" y="1273" on="0"/>
        <pt x="344" y="1321" on="0"/>
        <pt x="246" y="1321" on="1"/>
        <pt x="274" y="1462" on="1"/>
      </contour>
    </TTGlyph>
    <TTGlyph name="bracketleft" xMin="-16" yMin="-324" xMax="752" yMax="1462">
      <contour>
        <pt x="-16" y="-324" on="1"/>
        <pt x="365" y="1462" on="1"/>
        <pt x="752" y="1462" on="1"/>
        <pt x="721" y="1321" on="1"/>
        <pt x="494" y="1321" on="1"/>
        <pt x="176" y="-182" on="1"/>
        <pt x="403" y="-182" on="1"/>
        <pt x="371" y="-324" on="1"/>
      </contour>
    </TTGlyph>
    <TTGlyph name="bracketright" xMin="-150" yMin="-324" xMax="618" yMax="1462">
      <contour>
        <pt x="106" y="-182" on="1"/>
        <pt x="426" y="1321" on="1"/>
        <pt x="199" y="1321" on="1"/>
        <pt x="229" y="1462" on="1"/>
        <pt x="618" y="1462" on="1"/>
        <pt x="238" y="-324" on="1"/>
        <pt x="-150" y="-324" on="1"/>
        <pt x="-119" y="-182" on="1"/>
      </contour>
    </TTGlyph>
    <TTGlyph name="breve" xMin="475" yMin="1241" xMax="1051" yMax="1509">
      <contour>
        <pt x="1051" y="1509" on="1"/>
        <pt x="984" y="1241" on="0"/>
        <pt x="733" y="1241" on="1"/>
        <pt x="610" y="1241" on="0"/>
        <pt x="542" y="1300" on="1"/>
        <pt x="475" y="1360" on="0"/>
        <pt x="475" y="1466" on="1"/>
        <pt x="475" y="1487" on="1"/>
        <pt x="477" y="1509" on="1"/>
        <pt x="575" y="1509" on="1"/>
        <pt x="575" y="1447" on="0"/>
        <pt x="652" y="1384" on="0"/>
        <pt x="741" y="1384" on="1"/>
        <pt x="909" y="1384" on="0"/>
        <pt x="944" y="1509" on="1"/>
      </contour>
    </TTGlyph>
    <TTGlyph name="bullet" xMin="199" yMin="492" xMax="657" yMax="1001">
      <contour>
        <pt x="199" y="684" on="1"/>
        <pt x="199" y="830" on="0"/>
        <pt x="346" y="1001" on="0"/>
        <pt x="471" y="1001" on="1"/>
        <pt x="563" y="1001" on="0"/>
        <pt x="657" y="904" on="0"/>
        <pt x="657" y="811" on="1"/>
        <pt x="657" y="670" on="0"/>
        <pt x="509" y="492" on="0"/>
        <pt x="381" y="492" on="1"/>
        <pt x="292" y="492" on="0"/>
        <pt x="199" y="591" on="0"/>
      </contour>
    </TTGlyph>
    <TTGlyph name="c" xMin="98" yMin="-20" xMax="938" yMax="1116">
      <contour>
        <pt x="506" y="-20" on="1"/>
        <pt x="312" y="-20" on="0"/>
        <pt x="98" y="194" on="0"/>
        <pt x="98" y="587" on="0"/>
        <pt x="245" y="926" on="0"/>
        <pt x="507" y="1116" on="0"/>
        <pt x="670" y="1116" on="1"/>
        <pt x="808" y="1116" on="0"/>
        <pt x="938" y="1065" on="1"/>
        <pt x="891" y="924" on="1"/>
        <pt x="771" y="975" on="0"/>
        <pt x="561" y="975" on="0"/>
        <pt x="467" y="898" on="1"/>
        <pt x="374" y="820" on="0"/>
        <pt x="270" y="550" on="0"/>
        <pt x="270" y="389" on="1"/>
        <pt x="270" y="261" on="0"/>
        <pt x="403" y="119" on="0"/>
        <pt x="628" y="119" on="0"/>
        <pt x="782" y="186" on="1"/>
        <pt x="782" y="43" on="1"/>
        <pt x="658" y="-20" on="0"/>
      </contour>
    </TTGlyph>
    <TTGlyph name="caron" xMin="467" yMin="1241" xMax="1081" yMax="1569">
      <contour>
        <pt x="467" y="1569" on="1"/>
        <pt x="567" y="1569" on="1"/>
        <pt x="621" y="1527" on="0"/>
        <pt x="729" y="1380" on="1"/>
        <pt x="852" y="1490" on="0"/>
        <pt x="975" y="1569" on="1"/>
        <pt x="1081" y="1569" on="1"/>
        <pt x="1081" y="1542" on="1"/>
        <pt x="1001" y="1472" on="0"/>
        <pt x="825" y="1291" on="0"/>
        <pt x="795" y="1241" on="1"/>
        <pt x="635" y="1241" on="1"/>
        <pt x="598" y="1341" on="0"/>
        <pt x="510" y="1476" on="1"/>
        <pt x="467" y="1542" on="1"/>
      </contour>
    </TTGlyph>
    <TTGlyph name="ccedilla" xMin="98" yMin="-492" xMax="938" yMax="1116">
      <contour>
        <pt x="891" y="924" on="1"/>
        <pt x="771" y="975" on="0"/>
        <pt x="561" y="975" on="0"/>
        <pt x="467" y="898" on="1"/>
        <pt x="374" y="820" on="0"/>
        <pt x="270" y="550" on="0"/>
        <pt x="270" y="389" on="1"/>
        <pt x="270" y="261" on="0"/>
        <pt x="403" y="119" on="0"/>
        <pt x="628" y="119" on="0"/>
        <pt x="782" y="186" on="1"/>
        <pt x="782" y="43" on="1"/>
        <pt x="660" y="-18" on="0"/>
        <pt x="512" y="-20" on="1"/>
        <pt x="461" y="-121" on="1"/>
        <pt x="592" y="-159" on="0"/>
        <pt x="592" y="-276" on="1"/>
        <pt x="592" y="-374" on="0"/>
        <pt x="429" y="-492" on="0"/>
        <pt x="297" y="-492" on="1"/>
        <pt x="256" y="-492" on="0"/>
        <pt x="211" y="-483" on="1"/>
        <pt x="211" y="-383" on="1"/>
        <pt x="248" y="-389" on="0"/>
        <pt x="279" y="-389" on="1"/>
        <pt x="453" y="-389" on="0"/>
        <pt x="453" y="-279" on="1"/>
        <pt x="453" y="-201" on="0"/>
        <pt x="315" y="-182" on="1"/>
        <pt x="409" y="-12" on="1"/>
        <pt x="283" y="9" on="0"/>
        <pt x="205" y="87" on="1"/>
        <pt x="98" y="194" on="0"/>
        <pt x="98" y="587" on="0"/>
        <pt x="245" y="926" on="0"/>
        <pt x="507" y="1116" on="0"/>
        <pt x="670" y="1116" on="1"/>
        <pt x="808" y="1116" on="0"/>
        <pt x="938" y="1065" on="1"/>
      </contour>
    </TTGlyph>
    <TTGlyph name="cedilla" xMin="-170" yMin="-492" xMax="211" yMax="0">
      <contour>
        <pt x="211" y="-276" on="1"/>
        <pt x="211" y="-374" on="0"/>
        <pt x="48" y="-492" on="0"/>
        <pt x="-84" y="-492" on="1"/>
        <pt x="-125" y="-492" on="0"/>
        <pt x="-170" y="-483" on="1"/>
        <pt x="-170" y="-383" on="1"/>
        <pt x="-132" y="-389" on="0"/>
        <pt x="-102" y="-389" on="1"/>
        <pt x="72" y="-389" on="0"/>
        <pt x="72" y="-279" on="1"/>
        <pt x="72" y="-201" on="0"/>
        <pt x="-66" y="-182" on="1"/>
        <pt x="35" y="0" on="1"/>
        <pt x="141" y="0" on="1"/>
        <pt x="80" y="-121" on="1"/>
        <pt x="211" y="-159" on="0"/>
      </contour>
    </TTGlyph>
    <TTGlyph name="cent" xMin="225" yMin="-20" xMax="1065" yMax="1483">
      <contour>
        <pt x="225" y="590" on="1"/>
        <pt x="225" y="775" on="0"/>
        <pt x="288" y="934" on="1"/>
        <pt x="352" y="1093" on="0"/>
        <pt x="582" y="1292" on="0"/>
        <pt x="727" y="1313" on="1"/>
        <pt x="762" y="1483" on="1"/>
        <pt x="885" y="1483" on="1"/>
        <pt x="848" y="1315" on="1"/>
        <pt x="969" y="1306" on="0"/>
        <pt x="1065" y="1266" on="1"/>
        <pt x="1018" y="1124" on="1"/>
        <pt x="910" y="1176" on="0"/>
        <pt x="688" y="1176" on="0"/>
        <pt x="594" y="1099" on="1"/>
        <pt x="501" y="1021" on="0"/>
        <pt x="397" y="751" on="0"/>
        <pt x="397" y="590" on="1"/>
        <pt x="397" y="466" on="0"/>
        <pt x="529" y="319" on="0"/>
        <pt x="756" y="319" on="0"/>
        <pt x="909" y="387" on="1"/>
        <pt x="909" y="244" on="1"/>
        <pt x="786" y="182" on="0"/>
        <pt x="623" y="178" on="1"/>
        <pt x="582" y="-20" on="1"/>
        <pt x="457" y="-20" on="1"/>
        <pt x="500" y="195" on="1"/>
        <pt x="368" y="229" on="0"/>
        <pt x="225" y="436" on="0"/>
      </contour>
    </TTGlyph>
    <TTGlyph name="circumflex" xMin="399" yMin="1241" xMax="1014" yMax="1569">
      <contour>
        <pt x="1014" y="1241" on="1"/>
        <pt x="911" y="1241" on="1"/>
        <pt x="853" y="1290" on="0"/>
        <pt x="750" y="1430" on="1"/>
        <pt x="618" y="1313" on="0"/>
        <pt x="508" y="1241" on="1"/>
        <pt x="399" y="1241" on="1"/>
        <pt x="399" y="1268" on="1"/>
        <pt x="550" y="1406" on="0"/>
        <pt x="603" y="1465" on="1"/>
        <pt x="664" y="1530" on="0"/>
        <pt x="686" y="1569" on="1"/>
        <pt x="844" y="1569" on="1"/>
        <pt x="882" y="1468" on="0"/>
        <pt x="972" y="1334" on="1"/>
        <pt x="1014" y="1268" on="1"/>
      </contour>
    </TTGlyph>
    <TTGlyph name="colon" xMin="43" yMin="-29" xMax="451" yMax="1124">
      <contour>
        <pt x="203" y="956" on="1"/>
        <pt x="203" y="1034" on="0"/>
        <pt x="283" y="1124" on="0"/>
        <pt x="354" y="1124" on="1"/>
        <pt x="451" y="1124" on="0"/>
        <pt x="451" y="1020" on="1"/>
        <pt x="451" y="946" on="0"/>
        <pt x="369" y="854" on="0"/>
        <pt x="303" y="854" on="1"/>
        <pt x="257" y="854" on="0"/>
        <pt x="203" y="908" on="0"/>
      </contour>
      <contour>
        <pt x="43" y="74" on="1"/>
        <pt x="43" y="152" on="0"/>
        <pt x="124" y="242" on="0"/>
        <pt x="195" y="242" on="1"/>
        <pt x="239" y="242" on="0"/>
        <pt x="291" y="189" on="0"/>
        <pt x="291" y="65" on="0"/>
        <pt x="210" y="-29" on="0"/>
        <pt x="143" y="-29" on="1"/>
        <pt x="96" y="-29" on="0"/>
        <pt x="43" y="24" on="0"/>
      </contour>
    </TTGlyph>
    <TTGlyph name="comma" xMin="-100" yMin="-264" xMax="299" yMax="238">
      <contour>
        <pt x="291" y="238" on="1"/>
        <pt x="299" y="215" on="1"/>
        <pt x="188" y="-17" on="0"/>
        <pt x="29" y="-264" on="1"/>
        <pt x="-100" y="-264" on="1"/>
        <pt x="27" y="25" on="0"/>
        <pt x="104" y="238" on="1"/>
      </contour>
    </TTGlyph>
    <TTGlyph name="copyright" xMin="139" yMin="-20" xMax="1642" yMax="1483">
      <contour>
        <pt x="684" y="-20" on="0"/>
        <pt x="334" y="186" on="0"/>
        <pt x="139" y="532" on="0"/>
        <pt x="139" y="931" on="0"/>
        <pt x="340" y="1282" on="0"/>
        <pt x="690" y="1483" on="0"/>
        <pt x="1089" y="1483" on="0"/>
        <pt x="1436" y="1287" on="0"/>
        <pt x="1642" y="938" on="0"/>
        <pt x="1642" y="527" on="0"/>
        <pt x="1440" y="182" on="0"/>
        <pt x="1095" y="-20" on="0"/>
      </contour>
      <contour>
        <pt x="331" y="1055" on="1"/>
        <pt x="244" y="906" on="0"/>
        <pt x="244" y="558" on="0"/>
        <pt x="418" y="257" on="0"/>
        <pt x="568" y="170" on="1"/>
        <pt x="720" y="84" on="0"/>
        <pt x="1066" y="84" on="0"/>
        <pt x="1364" y="259" on="0"/>
        <pt x="1450" y="406" on="1"/>
        <pt x="1538" y="554" on="0"/>
        <pt x="1538" y="906" on="0"/>
        <pt x="1364" y="1203" on="0"/>
        <pt x="1215" y="1290" on="1"/>
        <pt x="1067" y="1378" on="0"/>
        <pt x="716" y="1378" on="0"/>
        <pt x="420" y="1204" on="0"/>
      </contour>
      <contour>
        <pt x="928" y="1059" on="1"/>
        <pt x="804" y="1059" on="0"/>
        <pt x="670" y="886" on="0"/>
        <pt x="670" y="731" on="1"/>
        <pt x="670" y="401" on="0"/>
        <pt x="928" y="401" on="1"/>
        <pt x="1011" y="401" on="0"/>
        <pt x="1139" y="444" on="1"/>
        <pt x="1139" y="322" on="1"/>
        <pt x="1078" y="296" on="0"/>
        <pt x="982" y="274" on="0"/>
        <pt x="922" y="274" on="1"/>
        <pt x="730" y="274" on="0"/>
        <pt x="520" y="513" on="0"/>
        <pt x="520" y="941" on="0"/>
        <pt x="740" y="1186" on="0"/>
        <pt x="930" y="1186" on="1"/>
        <pt x="1060" y="1186" on="0"/>
        <pt x="1178" y="1126" on="1"/>
        <pt x="1118" y="1006" on="1"/>
        <pt x="1010" y="1059" on="0"/>
      </contour>
    </TTGlyph>
    <TTGlyph name="d" xMin="98" yMin="-20" xMax="1219" yMax="1556">
      <contour>
        <pt x="393" y="-20" on="1"/>
        <pt x="254" y="-20" on="0"/>
        <pt x="98" y="176" on="0"/>
        <pt x="98" y="350" on="1"/>
        <pt x="98" y="564" on="0"/>
        <pt x="241" y="918" on="0"/>
        <pt x="486" y="1114" on="0"/>
        <pt x="639" y="1114" on="1"/>
        <pt x="833" y="1114" on="0"/>
        <pt x="920" y="924" on="1"/>
        <pt x="930" y="924" on="1"/>
        <pt x="947" y="1080" on="0"/>
        <pt x="975" y="1198" on="1"/>
        <pt x="1053" y="1556" on="1"/>
        <pt x="1219" y="1556" on="1"/>
        <pt x="889" y="0" on="1"/>
        <pt x="750" y="0" on="1"/>
        <pt x="772" y="209" on="1"/>
        <pt x="764" y="209" on="1"/>
        <pt x="664" y="84" on="0"/>
        <pt x="487" y="-20" on="0"/>
      </contour>
      <contour>
        <pt x="449" y="119" on="1"/>
        <pt x="542" y="119" on="0"/>
        <pt x="643" y="212" on="1"/>
        <pt x="743" y="306" on="0"/>
        <pt x="860" y="598" on="0"/>
        <pt x="860" y="748" on="1"/>
        <pt x="860" y="859" on="0"/>
        <pt x="752" y="975" on="0"/>
        <pt x="549" y="975" on="0"/>
        <pt x="461" y="892" on="1"/>
        <pt x="374" y="808" on="0"/>
        <pt x="270" y="513" on="0"/>
        <pt x="270" y="346" on="1"/>
        <pt x="270" y="119" on="0"/>
      </contour>
    </TTGlyph>
    <TTGlyph name="dagger" xMin="217" yMin="0" xMax="971" yMax="1556">
      <contour>
        <pt x="623" y="1026" on="1"/>
        <pt x="457" y="0" on="1"/>
        <pt x="250" y="0" on="1"/>
        <pt x="522" y="1028" on="1"/>
        <pt x="217" y="995" on="1"/>
        <pt x="252" y="1169" on="1"/>
        <pt x="545" y="1137" on="1"/>
        <pt x="582" y="1556" on="1"/>
        <pt x="788" y="1556" on="1"/>
        <pt x="645" y="1137" on="1"/>
        <pt x="971" y="1169" on="1"/>
        <pt x="936" y="995" on="1"/>
      </contour>
    </TTGlyph>
    <TTGlyph name="daggerdbl" xMin="78" yMin="0" xMax="1001" yMax="1556">
      <contour>
        <pt x="854" y="518" on="1"/>
        <pt x="817" y="346" on="1"/>
        <pt x="502" y="377" on="1"/>
        <pt x="475" y="0" on="1"/>
        <pt x="268" y="0" on="1"/>
        <pt x="401" y="377" on="1"/>
        <pt x="78" y="346" on="1"/>
        <pt x="115" y="518" on="1"/>
        <pt x="426" y="487" on="1"/>
        <pt x="444" y="786" on="1"/>
        <pt x="547" y="1069" on="1"/>
        <pt x="223" y="1036" on="1"/>
        <pt x="262" y="1210" on="1"/>
        <pt x="573" y="1178" on="1"/>
        <pt x="600" y="1556" on="1"/>
        <pt x="807" y="1556" on="1"/>
        <pt x="674" y="1178" on="1"/>
        <pt x="1001" y="1210" on="1"/>
        <pt x="963" y="1036" on="1"/>
        <pt x="649" y="1069" on="1"/>
        <pt x="635" y="786" on="1"/>
        <pt x="528" y="487" on="1"/>
      </contour>
    </TTGlyph>
    <TTGlyph name="daletdageshhb" xMin="153" yMin="0" xMax="1122" yMax="1290">
      <contour>
        <pt x="1122" y="1290" on="1"/>
        <pt x="1098" y="1176" on="1"/>
        <pt x="879" y="1117" on="0"/>
        <pt x="831" y="888" on="1"/>
        <pt x="642" y="0" on="1"/>
        <pt x="476" y="0" on="1"/>
        <pt x="665" y="888" on="1"/>
        <pt x="678" y="947" on="0"/>
        <pt x="727" y="1046" on="0"/>
        <pt x="753" y="1074" on="1"/>
        <pt x="806" y="1132" on="0"/>
        <pt x="842" y="1149" on="1"/>
        <pt x="858" y="1156" on="1"/>
        <pt x="859" y="1161" on="1"/>
        <pt x="153" y="1161" on="1"/>
        <pt x="180" y="1290" on="1"/>
      </contour>
      <contour>
        <pt x="359" y="752" on="1"/>
        <pt x="418" y="752" on="0"/>
        <pt x="418" y="696" on="1"/>
        <pt x="418" y="682" on="0"/>
        <pt x="414" y="665" on="1"/>
        <pt x="396" y="579" on="0"/>
        <pt x="323" y="579" on="1"/>
        <pt x="267" y="579" on="0"/>
        <pt x="267" y="633" on="1"/>
        <pt x="267" y="647" on="0"/>
        <pt x="271" y="665" on="1"/>
        <pt x="289" y="752" on="0"/>
      </contour>
    </TTGlyph>
    <TTGlyph name="degree" xMin="215" yMin="862" xMax="838" yMax="1483">
      <contour>
        <pt x="657" y="862" on="0"/>
        <pt x="395" y="862" on="0"/>
        <pt x="215" y="1044" on="0"/>
        <pt x="215" y="1300" on="0"/>
        <pt x="397" y="1483" on="0"/>
        <pt x="526" y="1483" on="1"/>
        <pt x="530" y="1483" on="0"/>
        <pt x="533" y="1483" on="1"/>
        <pt x="610" y="1483" on="0"/>
        <pt x="754" y="1400" on="0"/>
        <pt x="838" y="1256" on="0"/>
        <pt x="838" y="1178" on="1"/>
        <pt x="838" y="1175" on="0"/>
        <pt x="838" y="1171" on="1"/>
        <pt x="838" y="1043" on="0"/>
      </contour>
      <contour>
        <pt x="446" y="1370" on="0"/>
        <pt x="328" y="1252" on="0"/>
        <pt x="328" y="1091" on="0"/>
        <pt x="444" y="975" on="0"/>
        <pt x="609" y="975" on="0"/>
        <pt x="723" y="1092" on="0"/>
        <pt x="723" y="1253" on="0"/>
        <pt x="608" y="1370" on="0"/>
      </contour>
    </TTGlyph>
    <TTGlyph name="dieresis" xMin="457" yMin="1294" xMax="1001" yMax="1491">
      <contour>
        <pt x="503" y="1294" on="0"/>
        <pt x="457" y="1339" on="0"/>
        <pt x="457" y="1425" on="0"/>
        <pt x="514" y="1491" on="0"/>
        <pt x="559" y="1491" on="1"/>
        <pt x="637" y="1491" on="0"/>
        <pt x="637" y="1411" on="1"/>
        <pt x="637" y="1363" on="0"/>
        <pt x="579" y="1294" on="0"/>
      </contour>
      <contour>
        <pt x="867" y="1294" on="0"/>
        <pt x="821" y="1339" on="0"/>
        <pt x="821" y="1425" on="0"/>
        <pt x="878" y="1491" on="0"/>
        <pt x="924" y="1491" on="1"/>
        <pt x="1001" y="1491" on="0"/>
        <pt x="1001" y="1411" on="1"/>
        <pt x="1001" y="1363" on="0"/>
        <pt x="943" y="1294" on="0"/>
      </contour>
    </TTGlyph>
    <TTGlyph name="divide" xMin="127" yMin="252" xMax="1047" yMax="1192">
      <contour>
        <pt x="475" y="1071" on="1"/>
        <pt x="475" y="1192" on="0"/>
        <pt x="586" y="1192" on="1"/>
        <pt x="640" y="1192" on="0"/>
        <pt x="698" y="1130" on="0"/>
        <pt x="698" y="1014" on="0"/>
        <pt x="638" y="950" on="0"/>
        <pt x="534" y="950" on="0"/>
        <pt x="475" y="1012" on="0"/>
      </contour>
      <contour>
        <pt x="127" y="793" on="1"/>
        <pt x="1047" y="793" on="1"/>
        <pt x="1047" y="651" on="1"/>
        <pt x="127" y="651" on="1"/>
      </contour>
      <contour>
        <pt x="475" y="373" on="1"/>
        <pt x="475" y="494" on="0"/>
        <pt x="586" y="494" on="1"/>
        <pt x="640" y="494" on="0"/>
        <pt x="698" y="432" on="0"/>
        <pt x="698" y="316" on="0"/>
        <pt x="638" y="252" on="0"/>
        <pt x="534" y="252" on="0"/>
        <pt x="475" y="314" on="0"/>
      </contour>
    </TTGlyph>
    <TTGlyph name="dollar" xMin="72" yMin="-119" xMax="1071" yMax="1552">
      <contour>
        <pt x="942" y="492" on="1"/>
        <pt x="942" y="330" on="0"/>
        <pt x="716" y="128" on="0"/>
        <pt x="520" y="106" on="1"/>
        <pt x="471" y="-119" on="1"/>
        <pt x="338" y="-119" on="1"/>
        <pt x="387" y="104" on="1"/>
        <pt x="192" y="118" on="0"/>
        <pt x="72" y="176" on="1"/>
        <pt x="72" y="330" on="1"/>
        <pt x="159" y="287" on="0"/>
        <pt x="339" y="244" on="0"/>
        <pt x="414" y="244" on="1"/>
        <pt x="512" y="696" on="1"/>
        <pt x="374" y="745" on="0"/>
        <pt x="248" y="894" on="0"/>
        <pt x="248" y="1008" on="1"/>
        <pt x="248" y="1167" on="0"/>
        <pt x="465" y="1360" on="0"/>
        <pt x="655" y="1376" on="1"/>
        <pt x="694" y="1552" on="1"/>
        <pt x="827" y="1552" on="1"/>
        <pt x="788" y="1374" on="1"/>
        <pt x="948" y="1362" on="0"/>
        <pt x="1071" y="1298" on="1"/>
        <pt x="1008" y="1163" on="1"/>
        <pt x="886" y="1226" on="0"/>
        <pt x="760" y="1235" on="1"/>
        <pt x="666" y="795" on="1"/>
        <pt x="817" y="739" on="0"/>
        <pt x="878" y="670" on="1"/>
        <pt x="942" y="600" on="0"/>
      </contour>
      <contour>
        <pt x="401" y="1010" on="1"/>
        <pt x="401" y="955" on="0"/>
        <pt x="472" y="868" on="0"/>
        <pt x="543" y="842" on="1"/>
        <pt x="627" y="1235" on="1"/>
        <pt x="518" y="1224" on="0"/>
        <pt x="401" y="1108" on="0"/>
      </contour>
      <contour>
        <pt x="782" y="479" on="1"/>
        <pt x="782" y="535" on="0"/>
        <pt x="714" y="618" on="0"/>
        <pt x="635" y="649" on="1"/>
        <pt x="549" y="250" on="1"/>
        <pt x="656" y="264" on="0"/>
        <pt x="782" y="386" on="0"/>
      </contour>
    </TTGlyph>
    <TTGlyph name="dotaccent" xMin="324" yMin="1282" xMax="526" yMax="1503">
      <contour>
        <pt x="376" y="1282" on="0"/>
        <pt x="324" y="1332" on="0"/>
        <pt x="324" y="1430" on="0"/>
        <pt x="388" y="1503" on="0"/>
        <pt x="438" y="1503" on="1"/>
        <pt x="526" y="1503" on="0"/>
        <pt x="526" y="1413" on="1"/>
        <pt x="526" y="1357" on="0"/>
        <pt x="459" y="1282" on="0"/>
      </contour>
    </TTGlyph>
    <TTGlyph name="dotlessi" xMin="59" yMin="0" xMax="461" yMax="1096">
      <contour>
        <pt x="59" y="0" on="1"/>
        <pt x="293" y="1096" on="1"/>
        <pt x="461" y="1096" on="1"/>
        <pt x="227" y="0" on="1"/>
      </contour>
    </TTGlyph>
    <TTGlyph name="e" xMin="98" yMin="-20" xMax="948" yMax="1116">
      <contour>
        <pt x="492" y="-20" on="1"/>
        <pt x="308" y="-20" on="0"/>
        <pt x="98" y="199" on="0"/>
        <pt x="98" y="577" on="0"/>
        <pt x="247" y="924" on="0"/>
        <pt x="493" y="1116" on="0"/>
        <pt x="792" y="1116" on="0"/>
        <pt x="948" y="985" on="0"/>
        <pt x="948" y="864" on="1"/>
        <pt x="948" y="684" on="0"/>
        <pt x="616" y="479" on="0"/>
        <pt x="307" y="479" on="1"/>
        <pt x="274" y="479" on="1"/>
        <pt x="270" y="399" on="1"/>
        <pt x="270" y="265" on="0"/>
        <pt x="395" y="121" on="0"/>
        <pt x="522" y="121" on="1"/>
        <pt x="585" y="121" on="0"/>
        <pt x="717" y="157" on="0"/>
        <pt x="817" y="205" on="1"/>
        <pt x="817" y="59" on="1"/>
        <pt x="718" y="13" on="0"/>
        <pt x="579" y="-20" on="0"/>
      </contour>
      <contour>
        <pt x="311" y="618" on="1"/>
        <pt x="539" y="618" on="0"/>
        <pt x="782" y="737" on="0"/>
        <pt x="782" y="850" on="1"/>
        <pt x="782" y="906" on="0"/>
        <pt x="706" y="973" on="0"/>
        <pt x="631" y="973" on="1"/>
        <pt x="528" y="973" on="0"/>
        <pt x="437" y="879" on="1"/>
        <pt x="347" y="784" on="0"/>
        <pt x="299" y="618" on="1"/>
      </contour>
    </TTGlyph>
    <TTGlyph name="eacute" xMin="98" yMin="-20" xMax="1007" yMax="1569">
      <contour>
        <pt x="585" y="1241" on="1"/>
        <pt x="585" y="1268" on="1"/>
        <pt x="645" y="1333" on="0"/>
        <pt x="775" y="1503" on="0"/>
        <pt x="817" y="1569" on="1"/>
        <pt x="1007" y="1569" on="1"/>
        <pt x="1007" y="1548" on="1"/>
        <pt x="973" y="1503" on="0"/>
        <pt x="765" y="1295" on="0"/>
        <pt x="690" y="1241" on="1"/>
      </contour>
      <contour>
        <pt x="492" y="-20" on="1"/>
        <pt x="308" y="-20" on="0"/>
        <pt x="98" y="199" on="0"/>
        <pt x="98" y="577" on="0"/>
        <pt x="247" y="924" on="0"/>
        <pt x="493" y="1116" on="0"/>
        <pt x="792" y="1116" on="0"/>
        <pt x="948" y="985" on="0"/>
        <pt x="948" y="864" on="1"/>
        <pt x="948" y="684" on="0"/>
        <pt x="616" y="479" on="0"/>
        <pt x="307" y="479" on="1"/>
        <pt x="274" y="479" on="1"/>
        <pt x="270" y="399" on="1"/>
        <pt x="270" y="265" on="0"/>
        <pt x="395" y="121" on="0"/>
        <pt x="522" y="121" on="1"/>
        <pt x="585" y="121" on="0"/>
        <pt x="717" y="157" on="0"/>
        <pt x="817" y="205" on="1"/>
        <pt x="817" y="59" on="1"/>
        <pt x="718" y="13" on="0"/>
        <pt x="579" y="-20" on="0"/>
      </contour>
      <contour>
        <pt x="311" y="618" on="1"/>
        <pt x="539" y="618" on="0"/>
        <pt x="782" y="737" on="0"/>
        <pt x="782" y="850" on="1"/>
        <pt x="782" y="906" on="0"/>
        <pt x="706" y="973" on="0"/>
        <pt x="631" y="973" on="1"/>
        <pt x="528" y="973" on="0"/>
        <pt x="437" y="879" on="1"/>
        <pt x="347" y="784" on="0"/>
        <pt x="299" y="618" on="1"/>
      </contour>
    </TTGlyph>
    <TTGlyph name="ecircumflex" xMin="98" yMin="-20" xMax="966" yMax="1569">
      <contour>
        <pt x="966" y="1241" on="1"/>
        <pt x="863" y="1241" on="1"/>
        <pt x="805" y="1290" on="0"/>
        <pt x="702" y="1430" on="1"/>
        <pt x="570" y="1313" on="0"/>
        <pt x="460" y="1241" on="1"/>
        <pt x="351" y="1241" on="1"/>
        <pt x="351" y="1268" on="1"/>
        <pt x="502" y="1406" on="0"/>
        <pt x="555" y="1465" on="1"/>
        <pt x="616" y="1530" on="0"/>
        <pt x="638" y="1569" on="1"/>
        <pt x="796" y="1569" on="1"/>
        <pt x="834" y="1468" on="0"/>
        <pt x="924" y="1334" on="1"/>
        <pt x="966" y="1268" on="1"/>
      </contour>
      <contour>
        <pt x="492" y="-20" on="1"/>
        <pt x="308" y="-20" on="0"/>
        <pt x="98" y="199" on="0"/>
        <pt x="98" y="577" on="0"/>
        <pt x="247" y="924" on="0"/>
        <pt x="493" y="1116" on="0"/>
        <pt x="792" y="1116" on="0"/>
        <pt x="948" y="985" on="0"/>
        <pt x="948" y="864" on="1"/>
        <pt x="948" y="684" on="0"/>
        <pt x="616" y="479" on="0"/>
        <pt x="307" y="479" on="1"/>
        <pt x="274" y="479" on="1"/>
        <pt x="270" y="399" on="1"/>
        <pt x="270" y="265" on="0"/>
        <pt x="395" y="121" on="0"/>
        <pt x="522" y="121" on="1"/>
        <pt x="585" y="121" on="0"/>
        <pt x="717" y="157" on="0"/>
        <pt x="817" y="205" on="1"/>
        <pt x="817" y="59" on="1"/>
        <pt x="718" y="13" on="0"/>
        <pt x="579" y="-20" on="0"/>
      </contour>
      <contour>
        <pt x="311" y="618" on="1"/>
        <pt x="539" y="618" on="0"/>
        <pt x="782" y="737" on="0"/>
        <pt x="782" y="850" on="1"/>
        <pt x="782" y="906" on="0"/>
        <pt x="706" y="973" on="0"/>
        <pt x="631" y="973" on="1"/>
        <pt x="528" y="973" on="0"/>
        <pt x="437" y="879" on="1"/>
        <pt x="347" y="784" on="0"/>
        <pt x="299" y="618" on="1"/>
      </contour>
    </TTGlyph>
    <TTGlyph name="edieresis" xMin="98" yMin="-20" xMax="957" yMax="1491">
      <contour>
        <pt x="459" y="1294" on="0"/>
        <pt x="413" y="1339" on="0"/>
        <pt x="413" y="1425" on="0"/>
        <pt x="470" y="1491" on="0"/>
        <pt x="515" y="1491" on="1"/>
        <pt x="593" y="1491" on="0"/>
        <pt x="593" y="1411" on="1"/>
        <pt x="593" y="1363" on="0"/>
        <pt x="535" y="1294" on="0"/>
      </contour>
      <contour>
        <pt x="823" y="1294" on="0"/>
        <pt x="777" y="1339" on="0"/>
        <pt x="777" y="1425" on="0"/>
        <pt x="834" y="1491" on="0"/>
        <pt x="880" y="1491" on="1"/>
        <pt x="957" y="1491" on="0"/>
        <pt x="957" y="1411" on="1"/>
        <pt x="957" y="1363" on="0"/>
        <pt x="899" y="1294" on="0"/>
      </contour>
      <contour>
        <pt x="492" y="-20" on="1"/>
        <pt x="308" y="-20" on="0"/>
        <pt x="98" y="199" on="0"/>
        <pt x="98" y="577" on="0"/>
        <pt x="247" y="924" on="0"/>
        <pt x="493" y="1116" on="0"/>
        <pt x="792" y="1116" on="0"/>
        <pt x="948" y="985" on="0"/>
        <pt x="948" y="864" on="1"/>
        <pt x="948" y="684" on="0"/>
        <pt x="616" y="479" on="0"/>
        <pt x="307" y="479" on="1"/>
        <pt x="274" y="479" on="1"/>
        <pt x="270" y="399" on="1"/>
        <pt x="270" y="265" on="0"/>
        <pt x="395" y="121" on="0"/>
        <pt x="522" y="121" on="1"/>
        <pt x="585" y="121" on="0"/>
        <pt x="717" y="157" on="0"/>
        <pt x="817" y="205" on="1"/>
        <pt x="817" y="59" on="1"/>
        <pt x="718" y="13" on="0"/>
        <pt x="579" y="-20" on="0"/>
      </contour>
      <contour>
        <pt x="311" y="618" on="1"/>
        <pt x="539" y="618" on="0"/>
        <pt x="782" y="737" on="0"/>
        <pt x="782" y="850" on="1"/>
        <pt x="782" y="906" on="0"/>
        <pt x="706" y="973" on="0"/>
        <pt x="631" y="973" on="1"/>
        <pt x="528" y="973" on="0"/>
        <pt x="437" y="879" on="1"/>
        <pt x="347" y="784" on="0"/>
        <pt x="299" y="618" on="1"/>
      </contour>
    </TTGlyph>
    <TTGlyph name="egrave" xMin="98" yMin="-20" xMax="948" yMax="1569">
      <contour>
        <pt x="777" y="1241" on="1"/>
        <pt x="673" y="1241" on="1"/>
        <pt x="610" y="1304" on="0"/>
        <pt x="479" y="1484" on="0"/>
        <pt x="449" y="1548" on="1"/>
        <pt x="449" y="1569" on="1"/>
        <pt x="630" y="1569" on="1"/>
        <pt x="674" y="1432" on="0"/>
        <pt x="777" y="1266" on="1"/>
      </contour>
      <contour>
        <pt x="492" y="-20" on="1"/>
        <pt x="308" y="-20" on="0"/>
        <pt x="98" y="199" on="0"/>
        <pt x="98" y="577" on="0"/>
        <pt x="247" y="924" on="0"/>
        <pt x="493" y="1116" on="0"/>
        <pt x="792" y="1116" on="0"/>
        <pt x="948" y="985" on="0"/>
        <pt x="948" y="864" on="1"/>
        <pt x="948" y="684" on="0"/>
        <pt x="616" y="479" on="0"/>
        <pt x="307" y="479" on="1"/>
        <pt x="274" y="479" on="1"/>
        <pt x="270" y="399" on="1"/>
        <pt x="270" y="265" on="0"/>
        <pt x="395" y="121" on="0"/>
        <pt x="522" y="121" on="1"/>
        <pt x="585" y="121" on="0"/>
        <pt x="717" y="157" on="0"/>
        <pt x="817" y="205" on="1"/>
        <pt x="817" y="59" on="1"/>
        <pt x="718" y="13" on="0"/>
        <pt x="579" y="-20" on="0"/>
      </contour>
      <contour>
        <pt x="311" y="618" on="1"/>
        <pt x="539" y="618" on="0"/>
        <pt x="782" y="737" on="0"/>
        <pt x="782" y="850" on="1"/>
        <pt x="782" y="906" on="0"/>
        <pt x="706" y="973" on="0"/>
        <pt x="631" y="973" on="1"/>
        <pt x="528" y="973" on="0"/>
        <pt x="437" y="879" on="1"/>
        <pt x="347" y="784" on="0"/>
        <pt x="299" y="618" on="1"/>
      </contour>
    </TTGlyph>
    <TTGlyph name="eight" xMin="96" yMin="-20" xMax="1110" yMax="1485">
      <contour>
        <pt x="1110" y="1163" on="1"/>
        <pt x="1110" y="1034" on="0"/>
        <pt x="954" y="842" on="0"/>
        <pt x="766" y="762" on="1"/>
        <pt x="894" y="684" on="0"/>
        <pt x="999" y="509" on="0"/>
        <pt x="999" y="395" on="1"/>
        <pt x="999" y="392" on="0"/>
        <pt x="999" y="390" on="1"/>
        <pt x="999" y="207" on="0"/>
        <pt x="733" y="-20" on="0"/>
        <pt x="517" y="-20" on="1"/>
        <pt x="510" y="-20" on="0"/>
        <pt x="502" y="-20" on="1"/>
        <pt x="313" y="-20" on="0"/>
        <pt x="204" y="78" on="1"/>
        <pt x="96" y="177" on="0"/>
        <pt x="96" y="346" on="1"/>
        <pt x="96" y="494" on="0"/>
        <pt x="287" y="711" on="0"/>
        <pt x="487" y="786" on="1"/>
        <pt x="393" y="854" on="0"/>
        <pt x="311" y="1004" on="0"/>
        <pt x="311" y="1102" on="1"/>
        <pt x="311" y="1107" on="0"/>
        <pt x="311" y="1112" on="1"/>
        <pt x="311" y="1270" on="0"/>
        <pt x="553" y="1485" on="0"/>
        <pt x="731" y="1485" on="1"/>
        <pt x="736" y="1485" on="0"/>
        <pt x="741" y="1485" on="1"/>
        <pt x="914" y="1485" on="0"/>
        <pt x="1110" y="1312" on="0"/>
      </contour>
      <contour>
        <pt x="940" y="1235" on="0"/>
        <pt x="825" y="1341" on="0"/>
        <pt x="614" y="1341" on="0"/>
        <pt x="479" y="1210" on="0"/>
        <pt x="479" y="1100" on="1"/>
        <pt x="479" y="1018" on="0"/>
        <pt x="558" y="894" on="0"/>
        <pt x="645" y="840" on="1"/>
        <pt x="805" y="900" on="0"/>
        <pt x="873" y="971" on="1"/>
        <pt x="940" y="1042" on="0"/>
      </contour>
      <contour>
        <pt x="608" y="700" on="1"/>
        <pt x="422" y="640" on="0"/>
        <pt x="270" y="474" on="0"/>
        <pt x="270" y="247" on="0"/>
        <pt x="408" y="121" on="0"/>
        <pt x="520" y="121" on="1"/>
        <pt x="659" y="121" on="0"/>
        <pt x="825" y="269" on="0"/>
        <pt x="825" y="391" on="1"/>
        <pt x="825" y="491" on="0"/>
        <pt x="721" y="640" on="0"/>
      </contour>
    </TTGlyph>
    <TTGlyph name="ellipsis" xMin="43" yMin="-29" xMax="1333" yMax="242">
      <contour>
        <pt x="43" y="74" on="1"/>
        <pt x="43" y="152" on="0"/>
        <pt x="124" y="242" on="0"/>
        <pt x="195" y="242" on="1"/>
        <pt x="239" y="242" on="0"/>
        <pt x="291" y="189" on="0"/>
        <pt x="291" y="65" on="0"/>
        <pt x="210" y="-29" on="0"/>
        <pt x="143" y="-29" on="1"/>
        <pt x="96" y="-29" on="0"/>
        <pt x="43" y="24" on="0"/>
      </contour>
      <contour>
        <pt x="563" y="74" on="1"/>
        <pt x="563" y="152" on="0"/>
        <pt x="644" y="242" on="0"/>
        <pt x="715" y="242" on="1"/>
        <pt x="759" y="242" on="0"/>
        <pt x="811" y="189" on="0"/>
        <pt x="811" y="65" on="0"/>
        <pt x="730" y="-29" on="0"/>
        <pt x="663" y="-29" on="1"/>
        <pt x="616" y="-29" on="0"/>
        <pt x="563" y="24" on="0"/>
      </contour>
      <contour>
        <pt x="1085" y="74" on="1"/>
        <pt x="1085" y="152" on="0"/>
        <pt x="1166" y="242" on="0"/>
        <pt x="1237" y="242" on="1"/>
        <pt x="1281" y="242" on="0"/>
        <pt x="1333" y="189" on="0"/>
        <pt x="1333" y="65" on="0"/>
        <pt x="1252" y="-29" on="0"/>
        <pt x="1185" y="-29" on="1"/>
        <pt x="1138" y="-29" on="0"/>
        <pt x="1085" y="24" on="0"/>
      </contour>
    </TTGlyph>
    <TTGlyph name="emdash" xMin="55" yMin="469" xMax="1896" yMax="629">
      <contour>
        <pt x="90" y="629" on="1"/>
        <pt x="1896" y="629" on="1"/>
        <pt x="1862" y="469" on="1"/>
        <pt x="55" y="469" on="1"/>
      </contour>
    </TTGlyph>
    <TTGlyph name="endash" xMin="55" yMin="469" xMax="913" yMax="629">
      <contour>
        <pt x="90" y="629" on="1"/>
        <pt x="913" y="629" on="1"/>
        <pt x="879" y="469" on="1"/>
        <pt x="55" y="469" on="1"/>
      </contour>
    </TTGlyph>
    <TTGlyph name="equal" xMin="127" yMin="444" xMax="1047" yMax="997">
      <contour>
        <pt x="127" y="997" on="1"/>
        <pt x="1047" y="997" on="1"/>
        <pt x="1047" y="858" on="1"/>
        <pt x="127" y="858" on="1"/>
      </contour>
      <contour>
        <pt x="127" y="586" on="1"/>
        <pt x="1047" y="586" on="1"/>
        <pt x="1047" y="444" on="1"/>
        <pt x="127" y="444" on="1"/>
      </contour>
    </TTGlyph>
    <TTGlyph name="exclam" xMin="43" yMin="-29" xMax="555" yMax="1462">
      <contour>
        <pt x="281" y="403" on="1"/>
        <pt x="172" y="403" on="1"/>
        <pt x="240" y="826" on="0"/>
        <pt x="348" y="1462" on="1"/>
        <pt x="555" y="1462" on="1"/>
      </contour>
      <contour>
        <pt x="43" y="78" on="1"/>
        <pt x="43" y="154" on="0"/>
        <pt x="122" y="242" on="0"/>
        <pt x="190" y="242" on="1"/>
        <pt x="236" y="242" on="0"/>
        <pt x="291" y="186" on="0"/>
        <pt x="291" y="64" on="0"/>
        <pt x="213" y="-29" on="0"/>
        <pt x="147" y="-29" on="1"/>
        <pt x="98" y="-29" on="0"/>
        <pt x="43" y="27" on="0"/>
      </contour>
    </TTGlyph>
    <TTGlyph name="exclamdown" xMin="-14" yMin="-373" xMax="498" yMax="1118">
      <contour>
        <pt x="250" y="950" on="1"/>
        <pt x="250" y="1026" on="0"/>
        <pt x="332" y="1118" on="0"/>
        <pt x="401" y="1118" on="1"/>
        <pt x="447" y="1118" on="0"/>
        <pt x="498" y="1065" on="0"/>
        <pt x="498" y="941" on="0"/>
        <pt x="417" y="848" on="0"/>
        <pt x="352" y="848" on="1"/>
        <pt x="303" y="848" on="0"/>
        <pt x="250" y="900" on="0"/>
      </contour>
      <contour>
        <pt x="369" y="684" on="1"/>
        <pt x="193" y="-373" on="1"/>
        <pt x="-14" y="-373" on="1"/>
        <pt x="260" y="684" on="1"/>
      </contour>
    </TTGlyph>
    <TTGlyph name="f" xMin="-229" yMin="-492" xMax="899" yMax="1567">
      <contour>
        <pt x="-104" y="-492" on="1"/>
        <pt x="-174" y="-492" on="0"/>
        <pt x="-229" y="-471" on="1"/>
        <pt x="-229" y="-330" on="1"/>
        <pt x="-166" y="-352" on="0"/>
        <pt x="-117" y="-352" on="1"/>
        <pt x="-44" y="-352" on="0"/>
        <pt x="40" y="-234" on="0"/>
        <pt x="66" y="-113" on="1"/>
        <pt x="293" y="969" on="1"/>
        <pt x="100" y="969" on="1"/>
        <pt x="113" y="1036" on="1"/>
        <pt x="319" y="1102" on="1"/>
        <pt x="342" y="1202" on="1"/>
        <pt x="389" y="1402" on="0"/>
        <pt x="469" y="1484" on="1"/>
        <pt x="552" y="1567" on="0"/>
        <pt x="711" y="1567" on="1"/>
        <pt x="751" y="1567" on="0"/>
        <pt x="863" y="1545" on="0"/>
        <pt x="899" y="1530" on="1"/>
        <pt x="856" y="1401" on="1"/>
        <pt x="778" y="1430" on="0"/>
        <pt x="719" y="1430" on="1"/>
        <pt x="631" y="1430" on="0"/>
        <pt x="538" y="1333" on="0"/>
        <pt x="510" y="1204" on="1"/>
        <pt x="485" y="1096" on="1"/>
        <pt x="723" y="1096" on="1"/>
        <pt x="698" y="969" on="1"/>
        <pt x="461" y="969" on="1"/>
        <pt x="229" y="-129" on="1"/>
        <pt x="190" y="-317" on="0"/>
        <pt x="29" y="-492" on="0"/>
      </contour>
    </TTGlyph>
    <TTGlyph name="finalkafdageshhb" xMin="153" yMin="-492" xMax="870" yMax="1310">
      <contour>
        <pt x="396" y="1310" on="0"/>
        <pt x="564" y="1310" on="0"/>
        <pt x="697" y="1270" on="0"/>
        <pt x="782" y="1203" on="0"/>
        <pt x="810" y="1156" on="1"/>
        <pt x="870" y="1059" on="0"/>
        <pt x="870" y="908" on="1"/>
        <pt x="870" y="838" on="0"/>
        <pt x="853" y="756" on="1"/>
        <pt x="587" y="-492" on="1"/>
        <pt x="421" y="-492" on="1"/>
        <pt x="683" y="736" on="1"/>
        <pt x="702" y="821" on="0"/>
        <pt x="702" y="901" on="1"/>
        <pt x="702" y="965" on="0"/>
        <pt x="664" y="1069" on="0"/>
        <pt x="610" y="1125" on="0"/>
        <pt x="513" y="1163" on="0"/>
        <pt x="366" y="1163" on="0"/>
        <pt x="218" y="1138" on="0"/>
        <pt x="186" y="1125" on="1"/>
        <pt x="153" y="1112" on="1"/>
        <pt x="185" y="1260" on="1"/>
        <pt x="221" y="1278" on="0"/>
      </contour>
      <contour>
        <pt x="349" y="752" on="1"/>
        <pt x="408" y="752" on="0"/>
        <pt x="408" y="696" on="1"/>
        <pt x="408" y="682" on="0"/>
        <pt x="404" y="665" on="1"/>
        <pt x="386" y="579" on="0"/>
        <pt x="313" y="579" on="1"/>
        <pt x="257" y="579" on="0"/>
        <pt x="257" y="633" on="1"/>
        <pt x="257" y="647" on="0"/>
        <pt x="261" y="665" on="1"/>
        <pt x="279" y="752" on="0"/>
      </contour>
    </TTGlyph>
    <TTGlyph name="finalpedageshhb" xMin="114" yMin="-492" xMax="1093" yMax="1310">
      <contour>
        <pt x="114" y="738" on="1"/>
        <pt x="114" y="789" on="0"/>
        <pt x="146" y="938" on="0"/>
        <pt x="234" y="1090" on="0"/>
        <pt x="352" y="1197" on="0"/>
        <pt x="422" y="1235" on="1"/>
        <pt x="562" y="1310" on="0"/>
        <pt x="711" y="1310" on="1"/>
        <pt x="926" y="1310" on="0"/>
        <pt x="1028" y="1152" on="1"/>
        <pt x="1093" y="1053" on="0"/>
        <pt x="1093" y="889" on="1"/>
        <pt x="1093" y="782" on="0"/>
        <pt x="1065" y="645" on="1"/>
        <pt x="823" y="-492" on="1"/>
        <pt x="658" y="-492" on="1"/>
        <pt x="900" y="645" on="1"/>
        <pt x="927" y="772" on="0"/>
        <pt x="927" y="865" on="1"/>
        <pt x="927" y="989" on="0"/>
        <pt x="888" y="1063" on="1"/>
        <pt x="861" y="1112" on="0"/>
        <pt x="757" y="1171" on="0"/>
        <pt x="590" y="1171" on="0"/>
        <pt x="441" y="1110" on="0"/>
        <pt x="394" y="1060" on="1"/>
        <pt x="303" y="963" on="0"/>
        <pt x="280" y="849" on="1"/>
        <pt x="269" y="797" on="0"/>
        <pt x="269" y="688" on="0"/>
        <pt x="296" y="646" on="1"/>
        <pt x="342" y="577" on="0"/>
        <pt x="469" y="553" on="1"/>
        <pt x="511" y="545" on="1"/>
        <pt x="458" y="422" on="1"/>
        <pt x="421" y="427" on="1"/>
        <pt x="251" y="450" on="0"/>
        <pt x="170" y="558" on="1"/>
        <pt x="114" y="630" on="0"/>
      </contour>
      <contour>
        <pt x="623" y="946" on="1"/>
        <pt x="682" y="946" on="0"/>
        <pt x="682" y="890" on="1"/>
        <pt x="682" y="876" on="0"/>
        <pt x="678" y="859" on="1"/>
        <pt x="660" y="773" on="0"/>
        <pt x="587" y="773" on="1"/>
        <pt x="531" y="773" on="0"/>
        <pt x="531" y="827" on="1"/>
        <pt x="531" y="841" on="0"/>
        <pt x="535" y="859" on="1"/>
        <pt x="553" y="946" on="0"/>
      </contour>
    </TTGlyph>
    <TTGlyph name="five" xMin="80" yMin="-20" xMax="1096" yMax="1462">
      <contour>
        <pt x="541" y="758" on="1"/>
        <pt x="444" y="758" on="0"/>
        <pt x="305" y="721" on="1"/>
        <pt x="231" y="778" on="1"/>
        <pt x="428" y="1462" on="1"/>
        <pt x="1096" y="1462" on="1"/>
        <pt x="1063" y="1309" on="1"/>
        <pt x="541" y="1309" on="1"/>
        <pt x="414" y="870" on="1"/>
        <pt x="503" y="893" on="0"/>
        <pt x="598" y="893" on="1"/>
        <pt x="780" y="893" on="0"/>
        <pt x="887" y="788" on="1"/>
        <pt x="995" y="684" on="0"/>
        <pt x="995" y="344" on="0"/>
        <pt x="922" y="223" on="1"/>
        <pt x="777" y="-20" on="0"/>
        <pt x="410" y="-20" on="1"/>
        <pt x="216" y="-20" on="0"/>
        <pt x="80" y="59" on="1"/>
        <pt x="80" y="223" on="1"/>
        <pt x="243" y="121" on="0"/>
        <pt x="606" y="121" on="0"/>
        <pt x="819" y="313" on="0"/>
        <pt x="819" y="485" on="1"/>
        <pt x="819" y="610" on="0"/>
        <pt x="671" y="758" on="0"/>
      </contour>
    </TTGlyph>
    <TTGlyph name="florin" xMin="4" yMin="-492" xMax="1112" yMax="1483">
      <contour>
        <pt x="127" y="-492" on="1"/>
        <pt x="58" y="-492" on="0"/>
        <pt x="4" y="-471" on="1"/>
        <pt x="4" y="-330" on="1"/>
        <pt x="64" y="-352" on="0"/>
        <pt x="117" y="-352" on="1"/>
        <pt x="247" y="-352" on="0"/>
        <pt x="297" y="-113" on="1"/>
        <pt x="498" y="840" on="1"/>
        <pt x="307" y="840" on="1"/>
        <pt x="319" y="905" on="1"/>
        <pt x="524" y="971" on="1"/>
        <pt x="553" y="1118" on="1"/>
        <pt x="590" y="1312" on="0"/>
        <pt x="761" y="1483" on="0"/>
        <pt x="924" y="1483" on="1"/>
        <pt x="963" y="1483" on="0"/>
        <pt x="1079" y="1462" on="0"/>
        <pt x="1112" y="1446" on="1"/>
        <pt x="1069" y="1317" on="1"/>
        <pt x="991" y="1346" on="0"/>
        <pt x="932" y="1346" on="1"/>
        <pt x="844" y="1346" on="0"/>
        <pt x="750" y="1246" on="0"/>
        <pt x="723" y="1120" on="1"/>
        <pt x="690" y="965" on="1"/>
        <pt x="928" y="965" on="1"/>
        <pt x="903" y="840" on="1"/>
        <pt x="666" y="840" on="1"/>
        <pt x="461" y="-129" on="1"/>
        <pt x="422" y="-317" on="0"/>
        <pt x="261" y="-492" on="0"/>
      </contour>
    </TTGlyph>
    <TTGlyph name="four" xMin="16" yMin="0" xMax="1100" yMax="1470">
      <contour>
        <pt x="834" y="334" on="1"/>
        <pt x="762" y="0" on="1"/>
        <pt x="598" y="0" on="1"/>
        <pt x="672" y="334" on="1"/>
        <pt x="16" y="334" on="1"/>
        <pt x="45" y="492" on="1"/>
        <pt x="879" y="1470" on="1"/>
        <pt x="1075" y="1470" on="1"/>
        <pt x="868" y="487" on="1"/>
        <pt x="1100" y="487" on="1"/>
        <pt x="1067" y="334" on="1"/>
      </contour>
      <contour>
        <pt x="705" y="487" on="1"/>
        <pt x="783" y="860" on="1"/>
        <pt x="813" y="1005" on="0"/>
        <pt x="899" y="1305" on="1"/>
        <pt x="891" y="1305" on="1"/>
        <pt x="876" y="1278" on="0"/>
        <pt x="774" y="1140" on="0"/>
        <pt x="752" y="1112" on="1"/>
        <pt x="219" y="487" on="1"/>
      </contour>
    </TTGlyph>
    <TTGlyph name="fraction" xMin="-487" yMin="0" xMax="752" yMax="1462">
      <contour>
        <pt x="-334" y="0" on="1"/>
        <pt x="-487" y="0" on="1"/>
        <pt x="598" y="1462" on="1"/>
        <pt x="752" y="1462" on="1"/>
      </contour>
    </TTGlyph>
    <TTGlyph name="g" xMin="-127" yMin="-492" xMax="1100" yMax="1116">
      <contour>
        <pt x="905" y="807" on="1"/>
        <pt x="905" y="616" on="0"/>
        <pt x="672" y="389" on="0"/>
        <pt x="477" y="389" on="1"/>
        <pt x="423" y="389" on="0"/>
        <pt x="393" y="397" on="1"/>
        <pt x="254" y="345" on="0"/>
        <pt x="254" y="266" on="1"/>
        <pt x="254" y="228" on="0"/>
        <pt x="312" y="199" on="0"/>
        <pt x="383" y="190" on="1"/>
        <pt x="500" y="176" on="1"/>
        <pt x="682" y="153" on="0"/>
        <pt x="844" y="22" on="0"/>
        <pt x="844" y="-106" on="1"/>
        <pt x="844" y="-290" on="0"/>
        <pt x="552" y="-492" on="0"/>
        <pt x="287" y="-492" on="1"/>
        <pt x="93" y="-492" on="0"/>
        <pt x="-127" y="-344" on="0"/>
        <pt x="-127" y="-211" on="1"/>
        <pt x="-127" y="-104" on="0"/>
        <pt x="19" y="49" on="0"/>
        <pt x="178" y="102" on="1"/>
        <pt x="100" y="143" on="0"/>
        <pt x="100" y="223" on="1"/>
        <pt x="100" y="289" on="0"/>
        <pt x="197" y="389" on="0"/>
        <pt x="293" y="434" on="1"/>
        <pt x="228" y="467" on="0"/>
        <pt x="150" y="593" on="0"/>
        <pt x="150" y="674" on="1"/>
        <pt x="150" y="867" on="0"/>
        <pt x="269" y="992" on="1"/>
        <pt x="389" y="1116" on="0"/>
        <pt x="575" y="1116" on="1"/>
        <pt x="651" y="1116" on="0"/>
        <pt x="729" y="1096" on="1"/>
        <pt x="1100" y="1096" on="1"/>
        <pt x="1075" y="989" on="1"/>
        <pt x="864" y="965" on="1"/>
        <pt x="905" y="903" on="0"/>
      </contour>
      <contour>
        <pt x="492" y="506" on="1"/>
        <pt x="601" y="506" on="0"/>
        <pt x="743" y="688" on="0"/>
        <pt x="743" y="816" on="1"/>
        <pt x="743" y="819" on="0"/>
        <pt x="743" y="823" on="1"/>
        <pt x="743" y="905" on="0"/>
        <pt x="655" y="991" on="0"/>
        <pt x="573" y="991" on="1"/>
        <pt x="570" y="991" on="0"/>
        <pt x="566" y="991" on="1"/>
        <pt x="495" y="991" on="0"/>
        <pt x="377" y="908" on="0"/>
        <pt x="313" y="767" on="0"/>
        <pt x="313" y="685" on="1"/>
        <pt x="313" y="683" on="0"/>
        <pt x="313" y="680" on="1"/>
        <pt x="313" y="596" on="0"/>
        <pt x="402" y="506" on="0"/>
        <pt x="483" y="506" on="1"/>
        <pt x="488" y="506" on="0"/>
      </contour>
      <contour>
        <pt x="164" y="20" on="0"/>
        <pt x="35" y="-105" on="0"/>
        <pt x="35" y="-274" on="0"/>
        <pt x="167" y="-362" on="0"/>
        <pt x="293" y="-362" on="1"/>
        <pt x="476" y="-362" on="0"/>
        <pt x="680" y="-235" on="0"/>
        <pt x="680" y="-119" on="1"/>
        <pt x="680" y="-56" on="0"/>
        <pt x="570" y="15" on="0"/>
        <pt x="442" y="29" on="1"/>
        <pt x="283" y="45" on="1"/>
      </contour>
    </TTGlyph>
    <TTGlyph name="gereshhb" xMin="74" yMin="789" xMax="473" yMax="1290">
      <contour>
        <pt x="473" y="1268" on="1"/>
        <pt x="378" y="1053" on="0"/>
        <pt x="203" y="789" on="1"/>
        <pt x="74" y="789" on="1"/>
        <pt x="210" y="1092" on="0"/>
        <pt x="277" y="1290" on="1"/>
        <pt x="465" y="1290" on="1"/>
      </contour>
    </TTGlyph>
    <TTGlyph name="germandbls" xMin="-256" yMin="-492" xMax="1112" yMax="1567">
      <contour>
        <pt x="-133" y="-492" on="1"/>
        <pt x="-202" y="-492" on="0"/>
        <pt x="-256" y="-471" on="1"/>
        <pt x="-256" y="-328" on="1"/>
        <pt x="-196" y="-350" on="0"/>
        <pt x="-79" y="-350" on="0"/>
        <pt x="4" y="-254" on="0"/>
        <pt x="27" y="-145" on="1"/>
        <pt x="307" y="1169" on="1"/>
        <pt x="350" y="1370" on="0"/>
        <pt x="577" y="1567" on="0"/>
        <pt x="770" y="1567" on="1"/>
        <pt x="932" y="1567" on="0"/>
        <pt x="1112" y="1426" on="0"/>
        <pt x="1112" y="1300" on="1"/>
        <pt x="1112" y="1242" on="0"/>
        <pt x="1071" y="1147" on="0"/>
        <pt x="1029" y="1098" on="1"/>
        <pt x="987" y="1052" on="0"/>
        <pt x="851" y="948" on="1"/>
        <pt x="741" y="865" on="0"/>
        <pt x="741" y="797" on="1"/>
        <pt x="741" y="741" on="0"/>
        <pt x="836" y="675" on="1"/>
        <pt x="886" y="638" on="0"/>
        <pt x="937" y="587" on="1"/>
        <pt x="1042" y="483" on="0"/>
        <pt x="1042" y="354" on="1"/>
        <pt x="1042" y="179" on="0"/>
        <pt x="825" y="-20" on="0"/>
        <pt x="467" y="-20" on="0"/>
        <pt x="373" y="51" on="1"/>
        <pt x="373" y="211" on="1"/>
        <pt x="424" y="169" on="0"/>
        <pt x="559" y="119" on="0"/>
        <pt x="621" y="119" on="1"/>
        <pt x="735" y="119" on="0"/>
        <pt x="870" y="236" on="0"/>
        <pt x="870" y="336" on="1"/>
        <pt x="870" y="411" on="0"/>
        <pt x="826" y="466" on="1"/>
        <pt x="807" y="490" on="0"/>
        <pt x="737" y="549" on="1"/>
        <pt x="648" y="618" on="0"/>
        <pt x="580" y="728" on="0"/>
        <pt x="580" y="784" on="1"/>
        <pt x="580" y="889" on="0"/>
        <pt x="648" y="962" on="1"/>
        <pt x="680" y="999" on="0"/>
        <pt x="772" y="1067" on="1"/>
        <pt x="852" y="1122" on="0"/>
        <pt x="883" y="1154" on="1"/>
        <pt x="948" y="1222" on="0"/>
        <pt x="948" y="1354" on="0"/>
        <pt x="843" y="1427" on="0"/>
        <pt x="754" y="1427" on="1"/>
        <pt x="636" y="1427" on="0"/>
        <pt x="501" y="1304" on="0"/>
        <pt x="473" y="1174" on="1"/>
        <pt x="199" y="-129" on="1"/>
        <pt x="160" y="-317" on="0"/>
        <pt x="-2" y="-492" on="0"/>
      </contour>
    </TTGlyph>
    <TTGlyph name="gershayimhb" xMin="74" yMin="789" xMax="844" yMax="1290">
      <contour>
        <pt x="473" y="1268" on="1"/>
        <pt x="378" y="1053" on="0"/>
        <pt x="203" y="789" on="1"/>
        <pt x="74" y="789" on="1"/>
        <pt x="210" y="1092" on="0"/>
        <pt x="277" y="1290" on="1"/>
        <pt x="465" y="1290" on="1"/>
      </contour>
      <contour>
        <pt x="834" y="1290" on="1"/>
        <pt x="844" y="1268" on="1"/>
        <pt x="748" y="1058" on="0"/>
        <pt x="570" y="789" on="1"/>
        <pt x="443" y="789" on="1"/>
        <pt x="494" y="901" on="0"/>
        <pt x="618" y="1211" on="0"/>
        <pt x="645" y="1290" on="1"/>
      </contour>
    </TTGlyph>
    <TTGlyph name="gimeldageshhb" xMin="-69" yMin="-20" xMax="785" yMax="1310">
      <contour>
        <pt x="532" y="1310" on="1"/>
        <pt x="785" y="1310" on="0"/>
        <pt x="785" y="1085" on="1"/>
        <pt x="785" y="1032" on="0"/>
        <pt x="771" y="967" on="1"/>
        <pt x="566" y="0" on="1"/>
        <pt x="429" y="0" on="1"/>
        <pt x="456" y="218" on="1"/>
        <pt x="448" y="218" on="1"/>
        <pt x="433" y="193" on="0"/>
        <pt x="339" y="94" on="0"/>
        <pt x="256" y="31" on="0"/>
        <pt x="131" y="-20" on="0"/>
        <pt x="78" y="-20" on="1"/>
        <pt x="-24" y="-20" on="0"/>
        <pt x="-69" y="-7" on="1"/>
        <pt x="-12" y="145" on="1"/>
        <pt x="27" y="132" on="0"/>
        <pt x="122" y="132" on="1"/>
        <pt x="192" y="132" on="0"/>
        <pt x="283" y="190" on="1"/>
        <pt x="332" y="222" on="0"/>
        <pt x="421" y="311" on="0"/>
        <pt x="496" y="449" on="0"/>
        <pt x="513" y="530" on="1"/>
        <pt x="602" y="953" on="1"/>
        <pt x="612" y="997" on="0"/>
        <pt x="612" y="1066" on="0"/>
        <pt x="589" y="1136" on="0"/>
        <pt x="513" y="1176" on="0"/>
        <pt x="451" y="1176" on="1"/>
        <pt x="393" y="1176" on="0"/>
        <pt x="321" y="1158" on="1"/>
        <pt x="349" y="1289" on="1"/>
        <pt x="433" y="1310" on="0"/>
      </contour>
      <contour>
        <pt x="353" y="752" on="1"/>
        <pt x="412" y="752" on="0"/>
        <pt x="412" y="696" on="1"/>
        <pt x="412" y="682" on="0"/>
        <pt x="408" y="665" on="1"/>
        <pt x="390" y="579" on="0"/>
        <pt x="317" y="579" on="1"/>
        <pt x="261" y="579" on="0"/>
        <pt x="261" y="633" on="1"/>
        <pt x="261" y="647" on="0"/>
        <pt x="265" y="665" on="1"/>
        <pt x="283" y="752" on="0"/>
      </contour>
    </TTGlyph>
    <TTGlyph name="grave" xMin="575" yMin="1241" xMax="903" yMax="1569">
      <contour>
        <pt x="903" y="1241" on="1"/>
        <pt x="799" y="1241" on="1"/>
        <pt x="736" y="1304" on="0"/>
        <pt x="605" y="1484" on="0"/>
        <pt x="575" y="1548" on="1"/>
        <pt x="575" y="1569" on="1"/>
        <pt x="756" y="1569" on="1"/>
        <pt x="800" y="1432" on="0"/>
        <pt x="903" y="1266" on="1"/>
      </contour>
    </TTGlyph>
    <TTGlyph name="greater" xMin="121" yMin="242" xMax="1040" yMax="1241">
      <contour>
        <pt x="866" y="721" on="1"/>
        <pt x="121" y="1092" on="1"/>
        <pt x="121" y="1241" on="1"/>
        <pt x="1040" y="762" on="1"/>
        <pt x="1040" y="664" on="1"/>
        <pt x="121" y="242" on="1"/>
        <pt x="121" y="393" on="1"/>
      </contour>
    </TTGlyph>
    <TTGlyph name="guillemotleft" xMin="88" yMin="113" xMax="936" yMax="958">
      <contour>
        <pt x="479" y="958" on="1"/>
        <pt x="557" y="877" on="1"/>
        <pt x="260" y="549" on="1"/>
        <pt x="432" y="162" on="1"/>
        <pt x="319" y="113" on="1"/>
        <pt x="88" y="555" on="1"/>
        <pt x="88" y="584" on="1"/>
      </contour>
      <contour>
        <pt x="850" y="946" on="1"/>
        <pt x="936" y="877" on="1"/>
        <pt x="653" y="512" on="1"/>
        <pt x="811" y="162" on="1"/>
        <pt x="698" y="113" on="1"/>
        <pt x="483" y="510" on="1"/>
        <pt x="483" y="541" on="1"/>
      </contour>
    </TTGlyph>
    <TTGlyph name="guillemotright" xMin="23" yMin="115" xMax="872" yMax="961">
      <contour>
        <pt x="109" y="127" on="1"/>
        <pt x="23" y="197" on="1"/>
        <pt x="305" y="557" on="1"/>
        <pt x="147" y="911" on="1"/>
        <pt x="260" y="961" on="1"/>
        <pt x="477" y="559" on="1"/>
        <pt x="477" y="528" on="1"/>
      </contour>
      <contour>
        <pt x="479" y="115" on="1"/>
        <pt x="401" y="197" on="1"/>
        <pt x="698" y="520" on="1"/>
        <pt x="526" y="911" on="1"/>
        <pt x="639" y="961" on="1"/>
        <pt x="872" y="514" on="1"/>
        <pt x="872" y="485" on="1"/>
      </contour>
    </TTGlyph>
    <TTGlyph name="guilsinglleft" xMin="88" yMin="113" xMax="557" yMax="958">
      <contour>
        <pt x="479" y="958" on="1"/>
        <pt x="557" y="877" on="1"/>
        <pt x="260" y="543" on="1"/>
        <pt x="432" y="162" on="1"/>
        <pt x="319" y="113" on="1"/>
        <pt x="88" y="549" on="1"/>
        <pt x="88" y="578" on="1"/>
      </contour>
    </TTGlyph>
    <TTGlyph name="guilsinglright" xMin="23" yMin="115" xMax="492" yMax="961">
      <contour>
        <pt x="100" y="115" on="1"/>
        <pt x="23" y="197" on="1"/>
        <pt x="319" y="530" on="1"/>
        <pt x="147" y="911" on="1"/>
        <pt x="260" y="961" on="1"/>
        <pt x="492" y="524" on="1"/>
        <pt x="492" y="496" on="1"/>
      </contour>
    </TTGlyph>
    <TTGlyph name="h" xMin="59" yMin="0" xMax="1065" yMax="1556">
      <contour>
        <pt x="895" y="827" on="1"/>
        <pt x="895" y="975" on="0"/>
        <pt x="748" y="975" on="1"/>
        <pt x="610" y="975" on="0"/>
        <pt x="376" y="706" on="0"/>
        <pt x="328" y="473" on="1"/>
        <pt x="227" y="0" on="1"/>
        <pt x="59" y="0" on="1"/>
        <pt x="389" y="1556" on="1"/>
        <pt x="557" y="1556" on="1"/>
        <pt x="546" y="1505" on="0"/>
        <pt x="502" y="1297" on="0"/>
        <pt x="488" y="1236" on="1"/>
        <pt x="452" y="1072" on="0"/>
        <pt x="403" y="885" on="1"/>
        <pt x="414" y="885" on="1"/>
        <pt x="506" y="1005" on="0"/>
        <pt x="689" y="1114" on="0"/>
        <pt x="791" y="1114" on="1"/>
        <pt x="922" y="1114" on="0"/>
        <pt x="1065" y="970" on="0"/>
        <pt x="1065" y="838" on="1"/>
        <pt x="1065" y="778" on="0"/>
        <pt x="998" y="455" on="0"/>
        <pt x="897" y="0" on="1"/>
        <pt x="729" y="0" on="1"/>
        <pt x="877" y="692" on="1"/>
        <pt x="895" y="786" on="0"/>
      </contour>
    </TTGlyph>
    <TTGlyph name="hedageshhb" xMin="21" yMin="0" xMax="1168" yMax="1310">
      <contour>
        <pt x="1120" y="1176" on="1"/>
        <pt x="1168" y="1104" on="0"/>
        <pt x="1168" y="1007" on="1"/>
        <pt x="1168" y="958" on="0"/>
        <pt x="1155" y="900" on="1"/>
        <pt x="964" y="0" on="1"/>
        <pt x="798" y="0" on="1"/>
        <pt x="990" y="902" on="1"/>
        <pt x="999" y="935" on="0"/>
        <pt x="999" y="975" on="0"/>
        <pt x="993" y="1022" on="0"/>
        <pt x="970" y="1078" on="0"/>
        <pt x="923" y="1119" on="0"/>
        <pt x="869" y="1146" on="0"/>
        <pt x="834" y="1154" on="1"/>
        <pt x="767" y="1169" on="0"/>
        <pt x="692" y="1169" on="1"/>
        <pt x="529" y="1169" on="0"/>
        <pt x="336" y="1158" on="1"/>
        <pt x="266" y="1154" on="1"/>
        <pt x="296" y="1295" on="1"/>
        <pt x="532" y="1310" on="0"/>
        <pt x="725" y="1310" on="1"/>
        <pt x="1029" y="1310" on="0"/>
      </contour>
      <contour>
        <pt x="21" y="0" on="1"/>
        <pt x="196" y="823" on="1"/>
        <pt x="362" y="823" on="1"/>
        <pt x="187" y="0" on="1"/>
      </contour>
      <contour>
        <pt x="647" y="752" on="1"/>
        <pt x="706" y="752" on="0"/>
        <pt x="706" y="696" on="1"/>
        <pt x="706" y="682" on="0"/>
        <pt x="702" y="665" on="1"/>
        <pt x="684" y="579" on="0"/>
        <pt x="611" y="579" on="1"/>
        <pt x="555" y="579" on="0"/>
        <pt x="555" y="633" on="1"/>
        <pt x="555" y="647" on="0"/>
        <pt x="559" y="665" on="1"/>
        <pt x="577" y="752" on="0"/>
      </contour>
    </TTGlyph>
    <TTGlyph name="hungarumlaut" xMin="397" yMin="1241" xMax="1141" yMax="1569">
      <contour>
        <pt x="397" y="1241" on="1"/>
        <pt x="397" y="1268" on="1"/>
        <pt x="443" y="1315" on="0"/>
        <pt x="582" y="1497" on="0"/>
        <pt x="627" y="1569" on="1"/>
        <pt x="799" y="1569" on="1"/>
        <pt x="799" y="1548" on="1"/>
        <pt x="748" y="1483" on="0"/>
        <pt x="552" y="1290" on="0"/>
        <pt x="483" y="1241" on="1"/>
      </contour>
      <contour>
        <pt x="739" y="1241" on="1"/>
        <pt x="739" y="1268" on="1"/>
        <pt x="789" y="1322" on="0"/>
        <pt x="855" y="1409" on="1"/>
        <pt x="927" y="1501" on="0"/>
        <pt x="969" y="1569" on="1"/>
        <pt x="1141" y="1569" on="1"/>
        <pt x="1141" y="1548" on="1"/>
        <pt x="1090" y="1483" on="0"/>
        <pt x="894" y="1290" on="0"/>
        <pt x="825" y="1241" on="1"/>
      </contour>
    </TTGlyph>
    <TTGlyph name="hyphen" xMin="55" yMin="469" xMax="569" yMax="627">
      <contour>
        <pt x="90" y="627" on="1"/>
        <pt x="569" y="627" on="1"/>
        <pt x="535" y="469" on="1"/>
        <pt x="55" y="469" on="1"/>
      </contour>
    </TTGlyph>
    <TTGlyph name="i" xMin="59" yMin="0" xMax="543" yMax="1503">
      <contour>
        <pt x="391" y="1282" on="0"/>
        <pt x="340" y="1332" on="0"/>
        <pt x="340" y="1432" on="0"/>
        <pt x="404" y="1503" on="0"/>
        <pt x="455" y="1503" on="1"/>
        <pt x="543" y="1503" on="0"/>
        <pt x="543" y="1413" on="1"/>
        <pt x="543" y="1357" on="0"/>
        <pt x="476" y="1282" on="0"/>
      </contour>
      <contour>
        <pt x="59" y="0" on="1"/>
        <pt x="293" y="1096" on="1"/>
        <pt x="461" y="1096" on="1"/>
        <pt x="227" y="0" on="1"/>
      </contour>
    </TTGlyph>
    <TTGlyph name="iacute" xMin="59" yMin="0" xMax="746" yMax="1569">
      <contour>
        <pt x="324" y="1241" on="1"/>
        <pt x="324" y="1268" on="1"/>
        <pt x="384" y="1333" on="0"/>
        <pt x="514" y="1503" on="0"/>
        <pt x="556" y="1569" on="1"/>
        <pt x="746" y="1569" on="1"/>
        <pt x="746" y="1548" on="1"/>
        <pt x="712" y="1503" on="0"/>
        <pt x="504" y="1295" on="0"/>
        <pt x="429" y="1241" on="1"/>
      </contour>
      <contour>
        <pt x="293" y="1096" on="1"/>
        <pt x="461" y="1096" on="1"/>
        <pt x="227" y="0" on="1"/>
        <pt x="59" y="0" on="1"/>
      </contour>
    </TTGlyph>
    <TTGlyph name="icircumflex" xMin="59" yMin="0" xMax="708" yMax="1569">
      <contour>
        <pt x="708" y="1241" on="1"/>
        <pt x="605" y="1241" on="1"/>
        <pt x="547" y="1290" on="0"/>
        <pt x="444" y="1430" on="1"/>
        <pt x="312" y="1313" on="0"/>
        <pt x="202" y="1241" on="1"/>
        <pt x="93" y="1241" on="1"/>
        <pt x="93" y="1268" on="1"/>
        <pt x="244" y="1406" on="0"/>
        <pt x="297" y="1465" on="1"/>
        <pt x="358" y="1530" on="0"/>
        <pt x="380" y="1569" on="1"/>
        <pt x="538" y="1569" on="1"/>
        <pt x="576" y="1468" on="0"/>
        <pt x="666" y="1334" on="1"/>
        <pt x="708" y="1268" on="1"/>
      </contour>
      <contour>
        <pt x="293" y="1096" on="1"/>
        <pt x="461" y="1096" on="1"/>
        <pt x="227" y="0" on="1"/>
        <pt x="59" y="0" on="1"/>
      </contour>
    </TTGlyph>
    <TTGlyph name="idieresis" xMin="59" yMin="0" xMax="705" yMax="1491">
      <contour>
        <pt x="207" y="1294" on="0"/>
        <pt x="161" y="1339" on="0"/>
        <pt x="161" y="1425" on="0"/>
        <pt x="218" y="1491" on="0"/>
        <pt x="263" y="1491" on="1"/>
        <pt x="341" y="1491" on="0"/>
        <pt x="341" y="1411" on="1"/>
        <pt x="341" y="1363" on="0"/>
        <pt x="283" y="1294" on="0"/>
      </contour>
      <contour>
        <pt x="571" y="1294" on="0"/>
        <pt x="525" y="1339" on="0"/>
        <pt x="525" y="1425" on="0"/>
        <pt x="582" y="1491" on="0"/>
        <pt x="628" y="1491" on="1"/>
        <pt x="705" y="1491" on="0"/>
        <pt x="705" y="1411" on="1"/>
        <pt x="705" y="1363" on="0"/>
        <pt x="647" y="1294" on="0"/>
      </contour>
      <contour>
        <pt x="293" y="1096" on="1"/>
        <pt x="461" y="1096" on="1"/>
        <pt x="227" y="0" on="1"/>
        <pt x="59" y="0" on="1"/>
      </contour>
    </TTGlyph>
    <TTGlyph name="igrave" xMin="59" yMin="0" xMax="492" yMax="1569">
      <contour>
        <pt x="492" y="1241" on="1"/>
        <pt x="388" y="1241" on="1"/>
        <pt x="325" y="1304" on="0"/>
        <pt x="194" y="1484" on="0"/>
        <pt x="164" y="1548" on="1"/>
        <pt x="164" y="1569" on="1"/>
        <pt x="345" y="1569" on="1"/>
        <pt x="388" y="1432" on="0"/>
        <pt x="492" y="1266" on="1"/>
      </contour>
      <contour>
        <pt x="59" y="0" on="1"/>
        <pt x="293" y="1096" on="1"/>
        <pt x="461" y="1096" on="1"/>
        <pt x="227" y="0" on="1"/>
      </contour>
    </TTGlyph>
    <TTGlyph name="integral" xMin="39" yMin="-492" xMax="786" yMax="1556">
      <contour>
        <pt x="340" y="-121" on="1"/>
        <pt x="340" y="1186" on="1"/>
        <pt x="340" y="1556" on="0"/>
        <pt x="664" y="1556" on="1"/>
        <pt x="747" y="1556" on="0"/>
        <pt x="786" y="1540" on="1"/>
        <pt x="786" y="1403" on="1"/>
        <pt x="741" y="1425" on="0"/>
        <pt x="676" y="1425" on="1"/>
        <pt x="498" y="1425" on="0"/>
        <pt x="498" y="1186" on="1"/>
        <pt x="498" y="-115" on="1"/>
        <pt x="498" y="-300" on="0"/>
        <pt x="328" y="-492" on="0"/>
        <pt x="164" y="-492" on="1"/>
        <pt x="94" y="-492" on="0"/>
        <pt x="39" y="-477" on="1"/>
        <pt x="39" y="-338" on="1"/>
        <pt x="101" y="-358" on="0"/>
        <pt x="150" y="-358" on="1"/>
        <pt x="244" y="-358" on="0"/>
        <pt x="340" y="-237" on="0"/>
      </contour>
    </TTGlyph>
    <TTGlyph name="j" xMin="-258" yMin="-492" xMax="541" yMax="1503">
      <contour>
        <pt x="391" y="1282" on="0"/>
        <pt x="340" y="1332" on="0"/>
        <pt x="340" y="1432" on="0"/>
        <pt x="404" y="1503" on="0"/>
        <pt x="455" y="1503" on="1"/>
        <pt x="541" y="1503" on="0"/>
        <pt x="541" y="1413" on="1"/>
        <pt x="541" y="1357" on="0"/>
        <pt x="474" y="1282" on="0"/>
      </contour>
      <contour>
        <pt x="-135" y="-492" on="1"/>
        <pt x="-204" y="-492" on="0"/>
        <pt x="-258" y="-471" on="1"/>
        <pt x="-258" y="-330" on="1"/>
        <pt x="-198" y="-352" on="0"/>
        <pt x="-139" y="-352" on="1"/>
        <pt x="-14" y="-352" on="0"/>
        <pt x="29" y="-147" on="1"/>
        <pt x="293" y="1096" on="1"/>
        <pt x="459" y="1096" on="1"/>
        <pt x="193" y="-162" on="1"/>
        <pt x="157" y="-333" on="0"/>
        <pt x="0" y="-492" on="0"/>
      </contour>
    </TTGlyph>
    <TTGlyph name="k" xMin="57" yMin="0" xMax="1057" yMax="1556">
      <contour>
        <pt x="856" y="1096" on="1"/>
        <pt x="1057" y="1096" on="1"/>
        <pt x="588" y="629" on="1"/>
        <pt x="883" y="0" on="1"/>
        <pt x="696" y="0" on="1"/>
        <pt x="461" y="524" on="1"/>
        <pt x="309" y="401" on="1"/>
        <pt x="227" y="0" on="1"/>
        <pt x="57" y="0" on="1"/>
        <pt x="387" y="1556" on="1"/>
        <pt x="557" y="1556" on="1"/>
        <pt x="428" y="954" on="1"/>
        <pt x="371" y="687" on="0"/>
        <pt x="326" y="559" on="1"/>
        <pt x="330" y="559" on="1"/>
      </contour>
    </TTGlyph>
    <TTGlyph name="kafdageshhb" xMin="-67" yMin="-20" xMax="882" yMax="1310">
      <contour>
        <pt x="407" y="1310" on="0"/>
        <pt x="575" y="1310" on="0"/>
        <pt x="708" y="1270" on="0"/>
        <pt x="793" y="1203" on="0"/>
        <pt x="822" y="1156" on="1"/>
        <pt x="882" y="1060" on="0"/>
        <pt x="882" y="908" on="1"/>
        <pt x="882" y="836" on="0"/>
        <pt x="865" y="756" on="1"/>
        <pt x="818" y="537" on="1"/>
        <pt x="812" y="511" on="0"/>
        <pt x="799" y="458" on="0"/>
        <pt x="754" y="339" on="0"/>
        <pt x="698" y="239" on="0"/>
        <pt x="598" y="119" on="0"/>
        <pt x="479" y="36" on="0"/>
        <pt x="303" y="-20" on="0"/>
        <pt x="121" y="-20" on="0"/>
        <pt x="-14" y="-2" on="0"/>
        <pt x="-40" y="8" on="1"/>
        <pt x="-67" y="17" on="1"/>
        <pt x="-36" y="167" on="1"/>
        <pt x="86" y="125" on="0"/>
        <pt x="242" y="125" on="1"/>
        <pt x="325" y="125" on="0"/>
        <pt x="465" y="192" on="0"/>
        <pt x="549" y="284" on="0"/>
        <pt x="582" y="346" on="1"/>
        <pt x="632" y="440" on="0"/>
        <pt x="653" y="540" on="1"/>
        <pt x="694" y="736" on="1"/>
        <pt x="713" y="821" on="0"/>
        <pt x="713" y="904" on="1"/>
        <pt x="713" y="968" on="0"/>
        <pt x="676" y="1069" on="0"/>
        <pt x="622" y="1125" on="0"/>
        <pt x="525" y="1163" on="0"/>
        <pt x="378" y="1163" on="0"/>
        <pt x="230" y="1138" on="0"/>
        <pt x="198" y="1125" on="1"/>
        <pt x="165" y="1112" on="1"/>
        <pt x="197" y="1260" on="1"/>
        <pt x="233" y="1278" on="0"/>
      </contour>
      <contour>
        <pt x="362" y="752" on="1"/>
        <pt x="421" y="752" on="0"/>
        <pt x="421" y="696" on="1"/>
        <pt x="421" y="682" on="0"/>
        <pt x="417" y="665" on="1"/>
        <pt x="399" y="579" on="0"/>
        <pt x="326" y="579" on="1"/>
        <pt x="270" y="579" on="0"/>
        <pt x="270" y="633" on="1"/>
        <pt x="270" y="647" on="0"/>
        <pt x="274" y="665" on="1"/>
        <pt x="292" y="752" on="0"/>
      </contour>
    </TTGlyph>
    <TTGlyph name="l" xMin="57" yMin="0" xMax="557" yMax="1556">
      <contour>
        <pt x="57" y="0" on="1"/>
        <pt x="389" y="1556" on="1"/>
        <pt x="557" y="1556" on="1"/>
        <pt x="225" y="0" on="1"/>
      </contour>
    </TTGlyph>
    <TTGlyph name="lameddageshhb" xMin="184" yMin="0" xMax="1056" yMax="1554">
      <contour>
        <pt x="1056" y="1290" on="1"/>
        <pt x="1029" y="1161" on="1"/>
        <pt x="715" y="501" on="1"/>
        <pt x="505" y="0" on="1"/>
        <pt x="337" y="0" on="1"/>
        <pt x="547" y="501" on="1"/>
        <pt x="863" y="1161" on="1"/>
        <pt x="184" y="1161" on="1"/>
        <pt x="267" y="1554" on="1"/>
        <pt x="433" y="1554" on="1"/>
        <pt x="377" y="1290" on="1"/>
      </contour>
      <contour>
        <pt x="318" y="752" on="1"/>
        <pt x="377" y="752" on="0"/>
        <pt x="377" y="696" on="1"/>
        <pt x="377" y="682" on="0"/>
        <pt x="373" y="665" on="1"/>
        <pt x="355" y="579" on="0"/>
        <pt x="282" y="579" on="1"/>
        <pt x="226" y="579" on="0"/>
        <pt x="226" y="633" on="1"/>
        <pt x="226" y="647" on="0"/>
        <pt x="230" y="665" on="1"/>
        <pt x="248" y="752" on="0"/>
      </contour>
    </TTGlyph>
    <TTGlyph name="less" xMin="121" yMin="242" xMax="1040" yMax="1241">
      <contour>
        <pt x="121" y="664" on="1"/>
        <pt x="121" y="762" on="1"/>
        <pt x="1040" y="1241" on="1"/>
        <pt x="1040" y="1092" on="1"/>
        <pt x="293" y="721" on="1"/>
        <pt x="1040" y="393" on="1"/>
        <pt x="1040" y="242" on="1"/>
      </contour>
    </TTGlyph>
    <TTGlyph name="logicalnot" xMin="127" yMin="264" xMax="1047" yMax="793">
      <contour>
        <pt x="1047" y="264" on="1"/>
        <pt x="907" y="264" on="1"/>
        <pt x="907" y="651" on="1"/>
        <pt x="127" y="651" on="1"/>
        <pt x="127" y="793" on="1"/>
        <pt x="1047" y="793" on="1"/>
      </contour>
    </TTGlyph>
    <TTGlyph name="lozenge" xMin="152" yMin="0" xMax="1126" yMax="1475">
      <contour>
        <pt x="674" y="0" on="1"/>
        <pt x="602" y="0" on="1"/>
        <pt x="152" y="735" on="1"/>
        <pt x="602" y="1475" on="1"/>
        <pt x="674" y="1475" on="1"/>
        <pt x="1126" y="737" on="1"/>
      </contour>
      <contour>
        <pt x="639" y="1262" on="1"/>
        <pt x="326" y="737" on="1"/>
        <pt x="639" y="211" on="1"/>
        <pt x="952" y="737" on="1"/>
      </contour>
    </TTGlyph>
    <TTGlyph name="m" xMin="59" yMin="0" xMax="1671" yMax="1116">
      <contour>
        <pt x="862" y="827" on="1"/>
        <pt x="862" y="900" on="0"/>
        <pt x="797" y="975" on="0"/>
        <pt x="725" y="975" on="1"/>
        <pt x="595" y="975" on="0"/>
        <pt x="377" y="705" on="0"/>
        <pt x="328" y="475" on="1"/>
        <pt x="227" y="0" on="1"/>
        <pt x="59" y="0" on="1"/>
        <pt x="293" y="1096" on="1"/>
        <pt x="432" y="1096" on="1"/>
        <pt x="410" y="893" on="1"/>
        <pt x="420" y="893" on="1"/>
        <pt x="583" y="1116" on="0"/>
        <pt x="772" y="1116" on="1"/>
        <pt x="883" y="1116" on="0"/>
        <pt x="1007" y="989" on="0"/>
        <pt x="1018" y="870" on="1"/>
        <pt x="1026" y="870" on="1"/>
        <pt x="1195" y="1116" on="0"/>
        <pt x="1405" y="1116" on="1"/>
        <pt x="1532" y="1116" on="0"/>
        <pt x="1671" y="979" on="0"/>
        <pt x="1671" y="850" on="1"/>
        <pt x="1671" y="779" on="0"/>
        <pt x="1649" y="672" on="1"/>
        <pt x="1505" y="0" on="1"/>
        <pt x="1335" y="0" on="1"/>
        <pt x="1483" y="692" on="1"/>
        <pt x="1503" y="798" on="0"/>
        <pt x="1503" y="838" on="1"/>
        <pt x="1503" y="903" on="0"/>
        <pt x="1432" y="975" on="0"/>
        <pt x="1360" y="975" on="1"/>
        <pt x="1359" y="975" on="0"/>
        <pt x="1358" y="975" on="1"/>
        <pt x="1235" y="975" on="0"/>
        <pt x="1014" y="713" on="0"/>
        <pt x="971" y="500" on="1"/>
        <pt x="864" y="0" on="1"/>
        <pt x="696" y="0" on="1"/>
        <pt x="844" y="692" on="1"/>
        <pt x="862" y="786" on="0"/>
      </contour>
    </TTGlyph>
    <TTGlyph name="memdageshhb" xMin="-37" yMin="0" xMax="1138" yMax="1310">
      <contour>
        <pt x="440" y="1154" on="1"/>
        <pt x="447" y="1154" on="1"/>
        <pt x="546" y="1253" on="0"/>
        <pt x="701" y="1293" on="1"/>
        <pt x="767" y="1310" on="0"/>
        <pt x="835" y="1310" on="1"/>
        <pt x="1024" y="1310" on="0"/>
        <pt x="1094" y="1196" on="1"/>
        <pt x="1138" y="1125" on="0"/>
        <pt x="1138" y="1021" on="1"/>
        <pt x="1138" y="958" on="0"/>
        <pt x="1122" y="882" on="1"/>
        <pt x="935" y="0" on="1"/>
        <pt x="495" y="0" on="1"/>
        <pt x="522" y="129" on="1"/>
        <pt x="796" y="129" on="1"/>
        <pt x="955" y="875" on="1"/>
        <pt x="967" y="923" on="0"/>
        <pt x="967" y="951" on="1"/>
        <pt x="967" y="1035" on="0"/>
        <pt x="943" y="1080" on="1"/>
        <pt x="894" y="1170" on="0"/>
        <pt x="747" y="1170" on="1"/>
        <pt x="700" y="1170" on="0"/>
        <pt x="602" y="1137" on="0"/>
        <pt x="566" y="1114" on="1"/>
        <pt x="489" y="1063" on="0"/>
        <pt x="454" y="1026" on="1"/>
        <pt x="439" y="1010" on="1"/>
        <pt x="130" y="0" on="1"/>
        <pt x="-37" y="0" on="1"/>
        <pt x="268" y="992" on="1"/>
        <pt x="278" y="1027" on="0"/>
        <pt x="278" y="1180" on="0"/>
        <pt x="269" y="1228" on="1"/>
        <pt x="256" y="1290" on="1"/>
        <pt x="423" y="1290" on="1"/>
        <pt x="440" y="1248" on="0"/>
      </contour>
      <contour>
        <pt x="632" y="752" on="1"/>
        <pt x="691" y="752" on="0"/>
        <pt x="691" y="696" on="1"/>
        <pt x="691" y="682" on="0"/>
        <pt x="687" y="665" on="1"/>
        <pt x="669" y="579" on="0"/>
        <pt x="596" y="579" on="1"/>
        <pt x="540" y="579" on="0"/>
        <pt x="540" y="633" on="1"/>
        <pt x="540" y="647" on="0"/>
        <pt x="544" y="665" on="1"/>
        <pt x="562" y="752" on="0"/>
      </contour>
    </TTGlyph>
    <TTGlyph name="n" xMin="59" yMin="0" xMax="1065" yMax="1116">
      <contour>
        <pt x="897" y="836" on="1"/>
        <pt x="897" y="902" on="0"/>
        <pt x="824" y="975" on="0"/>
        <pt x="748" y="975" on="1"/>
        <pt x="610" y="975" on="0"/>
        <pt x="376" y="705" on="0"/>
        <pt x="328" y="475" on="1"/>
        <pt x="227" y="0" on="1"/>
        <pt x="59" y="0" on="1"/>
        <pt x="293" y="1096" on="1"/>
        <pt x="432" y="1096" on="1"/>
        <pt x="410" y="893" on="1"/>
        <pt x="420" y="893" on="1"/>
        <pt x="513" y="1012" on="0"/>
        <pt x="692" y="1116" on="0"/>
        <pt x="791" y="1116" on="1"/>
        <pt x="919" y="1116" on="0"/>
        <pt x="1065" y="976" on="0"/>
        <pt x="1065" y="852" on="1"/>
        <pt x="1065" y="775" on="0"/>
        <pt x="1042" y="672" on="1"/>
        <pt x="899" y="0" on="1"/>
        <pt x="729" y="0" on="1"/>
        <pt x="877" y="692" on="1"/>
        <pt x="897" y="798" on="0"/>
      </contour>
    </TTGlyph>
    <TTGlyph name="nine" xMin="98" yMin="-20" xMax="1067" yMax="1483">
      <contour>
        <pt x="537" y="545" on="1"/>
        <pt x="367" y="545" on="0"/>
        <pt x="184" y="743" on="0"/>
        <pt x="184" y="932" on="1"/>
        <pt x="184" y="1085" on="0"/>
        <pt x="313" y="1341" on="0"/>
        <pt x="428" y="1411" on="1"/>
        <pt x="544" y="1483" on="0"/>
        <pt x="688" y="1483" on="1"/>
        <pt x="869" y="1483" on="0"/>
        <pt x="1067" y="1252" on="0"/>
        <pt x="1067" y="1034" on="1"/>
        <pt x="1067" y="842" on="0"/>
        <pt x="956" y="418" on="0"/>
        <pt x="863" y="267" on="1"/>
        <pt x="686" y="-20" on="0"/>
        <pt x="340" y="-20" on="1"/>
        <pt x="203" y="-20" on="0"/>
        <pt x="98" y="14" on="1"/>
        <pt x="98" y="172" on="1"/>
        <pt x="233" y="125" on="0"/>
        <pt x="344" y="125" on="1"/>
        <pt x="546" y="125" on="0"/>
        <pt x="796" y="407" on="0"/>
        <pt x="860" y="707" on="1"/>
        <pt x="850" y="707" on="1"/>
        <pt x="798" y="631" on="0"/>
        <pt x="635" y="545" on="0"/>
      </contour>
      <contour>
        <pt x="682" y="1341" on="1"/>
        <pt x="533" y="1341" on="0"/>
        <pt x="350" y="1116" on="0"/>
        <pt x="350" y="938" on="1"/>
        <pt x="350" y="813" on="0"/>
        <pt x="460" y="682" on="0"/>
        <pt x="567" y="682" on="1"/>
        <pt x="724" y="682" on="0"/>
        <pt x="815" y="792" on="1"/>
        <pt x="861" y="846" on="0"/>
        <pt x="901" y="968" on="0"/>
        <pt x="901" y="1057" on="1"/>
        <pt x="901" y="1187" on="0"/>
        <pt x="783" y="1341" on="0"/>
      </contour>
    </TTGlyph>
    <TTGlyph name="notequal" xMin="127" yMin="166" xMax="1047" yMax="1282">
      <contour>
        <pt x="127" y="444" on="1"/>
        <pt x="127" y="586" on="1"/>
        <pt x="444" y="586" on="1"/>
        <pt x="571" y="858" on="1"/>
        <pt x="127" y="858" on="1"/>
        <pt x="127" y="997" on="1"/>
        <pt x="637" y="997" on="1"/>
        <pt x="770" y="1282" on="1"/>
        <pt x="899" y="1225" on="1"/>
        <pt x="793" y="997" on="1"/>
        <pt x="1047" y="997" on="1"/>
        <pt x="1047" y="858" on="1"/>
        <pt x="727" y="858" on="1"/>
        <pt x="598" y="586" on="1"/>
        <pt x="1047" y="586" on="1"/>
        <pt x="1047" y="444" on="1"/>
        <pt x="532" y="444" on="1"/>
        <pt x="403" y="166" on="1"/>
        <pt x="274" y="219" on="1"/>
        <pt x="379" y="444" on="1"/>
      </contour>
    </TTGlyph>
    <TTGlyph name="ntilde" xMin="59" yMin="0" xMax="1104" yMax="1501">
      <contour>
        <pt x="871" y="1243" on="1"/>
        <pt x="826" y="1243" on="0"/>
        <pt x="719" y="1300" on="0"/>
        <pt x="621" y="1356" on="0"/>
        <pt x="544" y="1356" on="0"/>
        <pt x="492" y="1302" on="0"/>
        <pt x="469" y="1241" on="1"/>
        <pt x="369" y="1241" on="1"/>
        <pt x="428" y="1499" on="0"/>
        <pt x="600" y="1499" on="1"/>
        <pt x="639" y="1499" on="0"/>
        <pt x="727" y="1463" on="0"/>
        <pt x="758" y="1442" on="1"/>
        <pt x="843" y="1384" on="0"/>
        <pt x="926" y="1384" on="0"/>
        <pt x="977" y="1436" on="0"/>
        <pt x="1004" y="1501" on="1"/>
        <pt x="1104" y="1501" on="1"/>
        <pt x="1038" y="1243" on="0"/>
      </contour>
      <contour>
        <pt x="897" y="836" on="1"/>
        <pt x="897" y="902" on="0"/>
        <pt x="824" y="975" on="0"/>
        <pt x="748" y="975" on="1"/>
        <pt x="610" y="975" on="0"/>
        <pt x="376" y="705" on="0"/>
        <pt x="328" y="475" on="1"/>
        <pt x="227" y="0" on="1"/>
        <pt x="59" y="0" on="1"/>
        <pt x="293" y="1096" on="1"/>
        <pt x="432" y="1096" on="1"/>
        <pt x="410" y="893" on="1"/>
        <pt x="420" y="893" on="1"/>
        <pt x="513" y="1012" on="0"/>
        <pt x="692" y="1116" on="0"/>
        <pt x="791" y="1116" on="1"/>
        <pt x="919" y="1116" on="0"/>
        <pt x="1065" y="976" on="0"/>
        <pt x="1065" y="852" on="1"/>
        <pt x="1065" y="775" on="0"/>
        <pt x="1042" y="672" on="1"/>
        <pt x="899" y="0" on="1"/>
        <pt x="729" y="0" on="1"/>
        <pt x="877" y="692" on="1"/>
        <pt x="897" y="798" on="0"/>
      </contour>
    </TTGlyph>
    <TTGlyph name="numbersign" xMin="63" yMin="0" xMax="1339" yMax="1462">
      <contour>
        <pt x="938" y="559" on="1"/>
        <pt x="1223" y="559" on="1"/>
        <pt x="1210" y="430" on="1"/>
        <pt x="901" y="430" on="1"/>
        <pt x="776" y="0" on="1"/>
        <pt x="637" y="0" on="1"/>
        <pt x="766" y="430" on="1"/>
        <pt x="463" y="430" on="1"/>
        <pt x="336" y="0" on="1"/>
        <pt x="203" y="0" on="1"/>
        <pt x="324" y="430" on="1"/>
        <pt x="63" y="430" on="1"/>
        <pt x="76" y="559" on="1"/>
        <pt x="360" y="559" on="1"/>
        <pt x="461" y="899" on="1"/>
        <pt x="184" y="899" on="1"/>
        <pt x="197" y="1026" on="1"/>
        <pt x="498" y="1026" on="1"/>
        <pt x="621" y="1462" on="1"/>
        <pt x="760" y="1462" on="1"/>
        <pt x="635" y="1026" on="1"/>
        <pt x="940" y="1026" on="1"/>
        <pt x="1067" y="1462" on="1"/>
        <pt x="1200" y="1462" on="1"/>
        <pt x="1075" y="1026" on="1"/>
        <pt x="1339" y="1026" on="1"/>
        <pt x="1327" y="899" on="1"/>
        <pt x="1036" y="899" on="1"/>
      </contour>
      <contour>
        <pt x="803" y="559" on="1"/>
        <pt x="899" y="899" on="1"/>
        <pt x="596" y="899" on="1"/>
        <pt x="500" y="559" on="1"/>
      </contour>
    </TTGlyph>
    <TTGlyph name="nundageshhb" xMin="-41" yMin="0" xMax="811" yMax="1310">
      <contour>
        <pt x="558" y="1310" on="1"/>
        <pt x="811" y="1310" on="0"/>
        <pt x="811" y="1085" on="1"/>
        <pt x="811" y="1032" on="0"/>
        <pt x="797" y="967" on="1"/>
        <pt x="659" y="315" on="1"/>
        <pt x="642" y="234" on="0"/>
        <pt x="589" y="76" on="0"/>
        <pt x="571" y="38" on="1"/>
        <pt x="553" y="0" on="1"/>
        <pt x="-41" y="0" on="1"/>
        <pt x="-14" y="129" on="1"/>
        <pt x="432" y="129" on="1"/>
        <pt x="468" y="204" on="0"/>
        <pt x="492" y="315" on="1"/>
        <pt x="627" y="953" on="1"/>
        <pt x="643" y="1021" on="0"/>
        <pt x="628" y="1106" on="0"/>
        <pt x="596" y="1148" on="0"/>
        <pt x="527" y="1176" on="0"/>
        <pt x="488" y="1176" on="1"/>
        <pt x="419" y="1176" on="0"/>
        <pt x="347" y="1158" on="1"/>
        <pt x="375" y="1289" on="1"/>
        <pt x="459" y="1310" on="0"/>
      </contour>
      <contour>
        <pt x="306" y="752" on="1"/>
        <pt x="365" y="752" on="0"/>
        <pt x="365" y="696" on="1"/>
        <pt x="365" y="682" on="0"/>
        <pt x="361" y="665" on="1"/>
        <pt x="343" y="579" on="0"/>
        <pt x="270" y="579" on="1"/>
        <pt x="214" y="579" on="0"/>
        <pt x="214" y="633" on="1"/>
        <pt x="214" y="647" on="0"/>
        <pt x="218" y="665" on="1"/>
        <pt x="236" y="752" on="0"/>
      </contour>
    </TTGlyph>
    <TTGlyph name="o" xMin="98" yMin="-16" xMax="1053" yMax="1110">
      <contour>
        <pt x="643" y="1110" on="1"/>
        <pt x="833" y="1110" on="0"/>
        <pt x="1053" y="884" on="0"/>
        <pt x="1053" y="500" on="0"/>
        <pt x="909" y="166" on="0"/>
        <pt x="663" y="-16" on="0"/>
        <pt x="508" y="-16" on="1"/>
        <pt x="317" y="-16" on="0"/>
        <pt x="98" y="209" on="0"/>
        <pt x="98" y="598" on="0"/>
        <pt x="243" y="930" on="0"/>
        <pt x="491" y="1110" on="0"/>
      </contour>
      <contour>
        <pt x="816" y="897" on="1"/>
        <pt x="754" y="969" on="0"/>
        <pt x="539" y="969" on="0"/>
        <pt x="451" y="895" on="1"/>
        <pt x="365" y="821" on="0"/>
        <pt x="270" y="557" on="0"/>
        <pt x="270" y="397" on="1"/>
        <pt x="270" y="265" on="0"/>
        <pt x="397" y="123" on="0"/>
        <pt x="516" y="123" on="1"/>
        <pt x="520" y="123" on="0"/>
        <pt x="524" y="123" on="1"/>
        <pt x="621" y="123" on="0"/>
        <pt x="786" y="269" on="0"/>
        <pt x="879" y="538" on="0"/>
        <pt x="879" y="704" on="1"/>
        <pt x="879" y="707" on="0"/>
        <pt x="879" y="711" on="1"/>
        <pt x="879" y="826" on="0"/>
      </contour>
    </TTGlyph>
    <TTGlyph name="oacute" xMin="98" yMin="-16" xMax="1053" yMax="1569">
      <contour>
        <pt x="589" y="1241" on="1"/>
        <pt x="589" y="1268" on="1"/>
        <pt x="649" y="1333" on="0"/>
        <pt x="779" y="1503" on="0"/>
        <pt x="821" y="1569" on="1"/>
        <pt x="1011" y="1569" on="1"/>
        <pt x="1011" y="1548" on="1"/>
        <pt x="977" y="1503" on="0"/>
        <pt x="769" y="1295" on="0"/>
        <pt x="694" y="1241" on="1"/>
      </contour>
      <contour>
        <pt x="643" y="1110" on="1"/>
        <pt x="833" y="1110" on="0"/>
        <pt x="1053" y="884" on="0"/>
        <pt x="1053" y="500" on="0"/>
        <pt x="909" y="166" on="0"/>
        <pt x="663" y="-16" on="0"/>
        <pt x="508" y="-16" on="1"/>
        <pt x="317" y="-16" on="0"/>
        <pt x="98" y="209" on="0"/>
        <pt x="98" y="598" on="0"/>
        <pt x="243" y="930" on="0"/>
        <pt x="491" y="1110" on="0"/>
      </contour>
      <contour>
        <pt x="816" y="897" on="1"/>
        <pt x="754" y="969" on="0"/>
        <pt x="539" y="969" on="0"/>
        <pt x="451" y="895" on="1"/>
        <pt x="365" y="821" on="0"/>
        <pt x="270" y="557" on="0"/>
        <pt x="270" y="397" on="1"/>
        <pt x="270" y="265" on="0"/>
        <pt x="397" y="123" on="0"/>
        <pt x="516" y="123" on="1"/>
        <pt x="520" y="123" on="0"/>
        <pt x="524" y="123" on="1"/>
        <pt x="621" y="123" on="0"/>
        <pt x="786" y="269" on="0"/>
        <pt x="879" y="538" on="0"/>
        <pt x="879" y="704" on="1"/>
        <pt x="879" y="707" on="0"/>
        <pt x="879" y="711" on="1"/>
        <pt x="879" y="826" on="0"/>
      </contour>
    </TTGlyph>
    <TTGlyph name="ocircumflex" xMin="98" yMin="-16" xMax="1053" yMax="1569">
      <contour>
        <pt x="997" y="1241" on="1"/>
        <pt x="894" y="1241" on="1"/>
        <pt x="836" y="1290" on="0"/>
        <pt x="733" y="1430" on="1"/>
        <pt x="601" y="1313" on="0"/>
        <pt x="491" y="1241" on="1"/>
        <pt x="382" y="1241" on="1"/>
        <pt x="382" y="1268" on="1"/>
        <pt x="533" y="1406" on="0"/>
        <pt x="586" y="1465" on="1"/>
        <pt x="647" y="1530" on="0"/>
        <pt x="669" y="1569" on="1"/>
        <pt x="827" y="1569" on="1"/>
        <pt x="865" y="1468" on="0"/>
        <pt x="955" y="1334" on="1"/>
        <pt x="997" y="1268" on="1"/>
      </contour>
      <contour>
        <pt x="643" y="1110" on="1"/>
        <pt x="833" y="1110" on="0"/>
        <pt x="1053" y="884" on="0"/>
        <pt x="1053" y="500" on="0"/>
        <pt x="909" y="166" on="0"/>
        <pt x="663" y="-16" on="0"/>
        <pt x="508" y="-16" on="1"/>
        <pt x="317" y="-16" on="0"/>
        <pt x="98" y="209" on="0"/>
        <pt x="98" y="598" on="0"/>
        <pt x="243" y="930" on="0"/>
        <pt x="491" y="1110" on="0"/>
      </contour>
      <contour>
        <pt x="816" y="897" on="1"/>
        <pt x="754" y="969" on="0"/>
        <pt x="539" y="969" on="0"/>
        <pt x="451" y="895" on="1"/>
        <pt x="365" y="821" on="0"/>
        <pt x="270" y="557" on="0"/>
        <pt x="270" y="397" on="1"/>
        <pt x="270" y="265" on="0"/>
        <pt x="397" y="123" on="0"/>
        <pt x="516" y="123" on="1"/>
        <pt x="520" y="123" on="0"/>
        <pt x="524" y="123" on="1"/>
        <pt x="621" y="123" on="0"/>
        <pt x="786" y="269" on="0"/>
        <pt x="879" y="538" on="0"/>
        <pt x="879" y="704" on="1"/>
        <pt x="879" y="707" on="0"/>
        <pt x="879" y="711" on="1"/>
        <pt x="879" y="826" on="0"/>
      </contour>
    </TTGlyph>
    <TTGlyph name="odieresis" xMin="98" yMin="-16" xMax="1053" yMax="1491">
      <contour>
        <pt x="479" y="1294" on="0"/>
        <pt x="433" y="1339" on="0"/>
        <pt x="433" y="1425" on="0"/>
        <pt x="490" y="1491" on="0"/>
        <pt x="535" y="1491" on="1"/>
        <pt x="613" y="1491" on="0"/>
        <pt x="613" y="1411" on="1"/>
        <pt x="613" y="1363" on="0"/>
        <pt x="555" y="1294" on="0"/>
      </contour>
      <contour>
        <pt x="843" y="1294" on="0"/>
        <pt x="797" y="1339" on="0"/>
        <pt x="797" y="1425" on="0"/>
        <pt x="854" y="1491" on="0"/>
        <pt x="900" y="1491" on="1"/>
        <pt x="977" y="1491" on="0"/>
        <pt x="977" y="1411" on="1"/>
        <pt x="977" y="1363" on="0"/>
        <pt x="919" y="1294" on="0"/>
      </contour>
      <contour>
        <pt x="643" y="1110" on="1"/>
        <pt x="833" y="1110" on="0"/>
        <pt x="1053" y="884" on="0"/>
        <pt x="1053" y="500" on="0"/>
        <pt x="909" y="166" on="0"/>
        <pt x="663" y="-16" on="0"/>
        <pt x="508" y="-16" on="1"/>
        <pt x="317" y="-16" on="0"/>
        <pt x="98" y="209" on="0"/>
        <pt x="98" y="598" on="0"/>
        <pt x="243" y="930" on="0"/>
        <pt x="491" y="1110" on="0"/>
      </contour>
      <contour>
        <pt x="816" y="897" on="1"/>
        <pt x="754" y="969" on="0"/>
        <pt x="539" y="969" on="0"/>
        <pt x="451" y="895" on="1"/>
        <pt x="365" y="821" on="0"/>
        <pt x="270" y="557" on="0"/>
        <pt x="270" y="397" on="1"/>
        <pt x="270" y="265" on="0"/>
        <pt x="397" y="123" on="0"/>
        <pt x="516" y="123" on="1"/>
        <pt x="520" y="123" on="0"/>
        <pt x="524" y="123" on="1"/>
        <pt x="621" y="123" on="0"/>
        <pt x="786" y="269" on="0"/>
        <pt x="879" y="538" on="0"/>
        <pt x="879" y="704" on="1"/>
        <pt x="879" y="707" on="0"/>
        <pt x="879" y="711" on="1"/>
        <pt x="879" y="826" on="0"/>
      </contour>
    </TTGlyph>
    <TTGlyph name="oe" xMin="98" yMin="-20" xMax="1708" yMax="1116">
      <contour>
        <pt x="1251" y="-20" on="1"/>
        <pt x="980" y="-20" on="0"/>
        <pt x="895" y="205" on="1"/>
        <pt x="826" y="98" on="0"/>
        <pt x="621" y="-16" on="0"/>
        <pt x="498" y="-16" on="1"/>
        <pt x="314" y="-16" on="0"/>
        <pt x="98" y="212" on="0"/>
        <pt x="98" y="600" on="0"/>
        <pt x="248" y="932" on="0"/>
        <pt x="499" y="1110" on="0"/>
        <pt x="655" y="1110" on="1"/>
        <pt x="926" y="1110" on="0"/>
        <pt x="1014" y="885" on="1"/>
        <pt x="1090" y="995" on="0"/>
        <pt x="1295" y="1116" on="0"/>
        <pt x="1552" y="1116" on="0"/>
        <pt x="1708" y="984" on="0"/>
        <pt x="1708" y="864" on="1"/>
        <pt x="1708" y="680" on="0"/>
        <pt x="1379" y="479" on="0"/>
        <pt x="1075" y="479" on="1"/>
        <pt x="1034" y="479" on="1"/>
        <pt x="1030" y="399" on="1"/>
        <pt x="1030" y="265" on="0"/>
        <pt x="1155" y="121" on="0"/>
        <pt x="1282" y="121" on="1"/>
        <pt x="1350" y="121" on="0"/>
        <pt x="1478" y="162" on="0"/>
        <pt x="1577" y="205" on="1"/>
        <pt x="1577" y="55" on="1"/>
        <pt x="1415" y="-20" on="0"/>
      </contour>
      <contour>
        <pt x="1071" y="618" on="1"/>
        <pt x="1302" y="618" on="0"/>
        <pt x="1542" y="740" on="0"/>
        <pt x="1542" y="856" on="1"/>
        <pt x="1542" y="907" on="0"/>
        <pt x="1475" y="973" on="0"/>
        <pt x="1413" y="973" on="1"/>
        <pt x="1289" y="973" on="0"/>
        <pt x="1192" y="878" on="1"/>
        <pt x="1096" y="782" on="0"/>
        <pt x="1053" y="618" on="1"/>
      </contour>
      <contour>
        <pt x="883" y="835" on="0"/>
        <pt x="763" y="969" on="0"/>
        <pt x="539" y="969" on="0"/>
        <pt x="366" y="822" on="0"/>
        <pt x="270" y="565" on="0"/>
        <pt x="270" y="270" on="0"/>
        <pt x="393" y="123" on="0"/>
        <pt x="504" y="123" on="1"/>
        <pt x="682" y="123" on="0"/>
        <pt x="883" y="444" on="0"/>
        <pt x="883" y="711" on="1"/>
      </contour>
    </TTGlyph>
    <TTGlyph name="ogonek" xMin="-145" yMin="-440" xMax="184" yMax="0">
      <contour>
        <pt x="68" y="-102" on="1"/>
        <pt x="-6" y="-183" on="0"/>
        <pt x="-6" y="-328" on="0"/>
        <pt x="63" y="-328" on="1"/>
        <pt x="102" y="-328" on="0"/>
        <pt x="143" y="-319" on="1"/>
        <pt x="143" y="-426" on="1"/>
        <pt x="99" y="-440" on="0"/>
        <pt x="-51" y="-440" on="0"/>
        <pt x="-145" y="-356" on="0"/>
        <pt x="-145" y="-279" on="1"/>
        <pt x="-145" y="-179" on="0"/>
        <pt x="-63" y="-97" on="1"/>
        <pt x="-22" y="-58" on="0"/>
        <pt x="68" y="0" on="1"/>
        <pt x="184" y="0" on="1"/>
        <pt x="105" y="-62" on="0"/>
      </contour>
    </TTGlyph>
    <TTGlyph name="ograve" xMin="98" yMin="-16" xMax="1053" yMax="1569">
      <contour>
        <pt x="798" y="1241" on="1"/>
        <pt x="694" y="1241" on="1"/>
        <pt x="631" y="1304" on="0"/>
        <pt x="500" y="1484" on="0"/>
        <pt x="470" y="1548" on="1"/>
        <pt x="470" y="1569" on="1"/>
        <pt x="651" y="1569" on="1"/>
        <pt x="694" y="1432" on="0"/>
        <pt x="798" y="1266" on="1"/>
      </contour>
      <contour>
        <pt x="643" y="1110" on="1"/>
        <pt x="833" y="1110" on="0"/>
        <pt x="1053" y="884" on="0"/>
        <pt x="1053" y="500" on="0"/>
        <pt x="909" y="166" on="0"/>
        <pt x="663" y="-16" on="0"/>
        <pt x="508" y="-16" on="1"/>
        <pt x="317" y="-16" on="0"/>
        <pt x="98" y="209" on="0"/>
        <pt x="98" y="598" on="0"/>
        <pt x="243" y="930" on="0"/>
        <pt x="491" y="1110" on="0"/>
      </contour>
      <contour>
        <pt x="816" y="897" on="1"/>
        <pt x="754" y="969" on="0"/>
        <pt x="539" y="969" on="0"/>
        <pt x="451" y="895" on="1"/>
        <pt x="365" y="821" on="0"/>
        <pt x="270" y="557" on="0"/>
        <pt x="270" y="397" on="1"/>
        <pt x="270" y="265" on="0"/>
        <pt x="397" y="123" on="0"/>
        <pt x="516" y="123" on="1"/>
        <pt x="520" y="123" on="0"/>
        <pt x="524" y="123" on="1"/>
        <pt x="621" y="123" on="0"/>
        <pt x="786" y="269" on="0"/>
        <pt x="879" y="538" on="0"/>
        <pt x="879" y="704" on="1"/>
        <pt x="879" y="707" on="0"/>
        <pt x="879" y="711" on="1"/>
        <pt x="879" y="826" on="0"/>
      </contour>
    </TTGlyph>
    <TTGlyph name="one" xMin="303" yMin="0" xMax="901" yMax="1462">
      <contour>
        <pt x="416" y="0" on="1"/>
        <pt x="612" y="913" on="1"/>
        <pt x="668" y="1161" on="0"/>
        <pt x="700" y="1272" on="1"/>
        <pt x="652" y="1221" on="0"/>
        <pt x="561" y="1161" on="1"/>
        <pt x="383" y="1051" on="1"/>
        <pt x="303" y="1178" on="1"/>
        <pt x="752" y="1462" on="1"/>
        <pt x="901" y="1462" on="1"/>
        <pt x="588" y="0" on="1"/>
      </contour>
    </TTGlyph>
    <TTGlyph name="ordfeminine" xMin="170" yMin="788" xMax="780" yMax="1479">
      <contour>
        <pt x="515" y="856" on="0"/>
        <pt x="414" y="788" on="0"/>
        <pt x="268" y="788" on="0"/>
        <pt x="170" y="907" on="0"/>
        <pt x="170" y="1140" on="0"/>
        <pt x="253" y="1357" on="0"/>
        <pt x="403" y="1479" on="0"/>
        <pt x="498" y="1479" on="1"/>
        <pt x="612" y="1479" on="0"/>
        <pt x="651" y="1376" on="1"/>
        <pt x="657" y="1376" on="1"/>
        <pt x="694" y="1466" on="1"/>
        <pt x="780" y="1466" on="1"/>
        <pt x="641" y="801" on="1"/>
        <pt x="549" y="801" on="1"/>
        <pt x="563" y="918" on="1"/>
        <pt x="559" y="918" on="1"/>
      </contour>
      <contour>
        <pt x="381" y="891" on="1"/>
        <pt x="443" y="891" on="0"/>
        <pt x="545" y="989" on="0"/>
        <pt x="614" y="1167" on="0"/>
        <pt x="614" y="1238" on="1"/>
        <pt x="614" y="1376" on="0"/>
        <pt x="500" y="1376" on="1"/>
        <pt x="408" y="1376" on="0"/>
        <pt x="345" y="1273" on="1"/>
        <pt x="283" y="1169" on="0"/>
        <pt x="283" y="891" on="0"/>
      </contour>
    </TTGlyph>
    <TTGlyph name="ordmasculine" xMin="168" yMin="788" xMax="745" yMax="1479">
      <contour>
        <pt x="745" y="1219" on="1"/>
        <pt x="745" y="1029" on="0"/>
        <pt x="568" y="788" on="0"/>
        <pt x="416" y="788" on="1"/>
        <pt x="303" y="788" on="0"/>
        <pt x="168" y="929" on="0"/>
        <pt x="168" y="1172" on="0"/>
        <pt x="252" y="1370" on="0"/>
        <pt x="404" y="1479" on="0"/>
        <pt x="619" y="1479" on="0"/>
        <pt x="745" y="1345" on="0"/>
      </contour>
      <contour>
        <pt x="500" y="1376" on="1"/>
        <pt x="397" y="1376" on="0"/>
        <pt x="281" y="1202" on="0"/>
        <pt x="281" y="1059" on="1"/>
        <pt x="281" y="975" on="0"/>
        <pt x="356" y="889" on="0"/>
        <pt x="426" y="889" on="1"/>
        <pt x="520" y="889" on="0"/>
        <pt x="637" y="1066" on="0"/>
        <pt x="637" y="1210" on="1"/>
        <pt x="637" y="1376" on="0"/>
      </contour>
    </TTGlyph>
    <TTGlyph name="oslash" xMin="61" yMin="-76" xMax="1104" yMax="1171">
      <contour>
        <pt x="985" y="963" on="1"/>
        <pt x="1047" y="865" on="0"/>
        <pt x="1047" y="515" on="0"/>
        <pt x="908" y="174" on="0"/>
        <pt x="664" y="-16" on="0"/>
        <pt x="365" y="-16" on="0"/>
        <pt x="264" y="49" on="1"/>
        <pt x="166" y="-76" on="1"/>
        <pt x="61" y="6" on="1"/>
        <pt x="170" y="141" on="1"/>
        <pt x="102" y="245" on="0"/>
        <pt x="102" y="406" on="1"/>
        <pt x="102" y="602" on="0"/>
        <pt x="249" y="933" on="0"/>
        <pt x="492" y="1110" on="0"/>
        <pt x="788" y="1110" on="0"/>
        <pt x="895" y="1042" on="1"/>
        <pt x="999" y="1171" on="1"/>
        <pt x="1104" y="1092" on="1"/>
      </contour>
      <contour>
        <pt x="799" y="924" on="1"/>
        <pt x="744" y="971" on="0"/>
        <pt x="539" y="971" on="0"/>
        <pt x="363" y="824" on="0"/>
        <pt x="264" y="566" on="0"/>
        <pt x="264" y="416" on="1"/>
        <pt x="264" y="325" on="0"/>
        <pt x="281" y="279" on="1"/>
      </contour>
      <contour>
        <pt x="522" y="121" on="1"/>
        <pt x="620" y="121" on="0"/>
        <pt x="789" y="263" on="0"/>
        <pt x="885" y="521" on="0"/>
        <pt x="885" y="675" on="1"/>
        <pt x="885" y="682" on="0"/>
        <pt x="885" y="688" on="1"/>
        <pt x="885" y="774" on="0"/>
        <pt x="872" y="807" on="1"/>
        <pt x="358" y="166" on="1"/>
        <pt x="415" y="121" on="0"/>
        <pt x="516" y="121" on="1"/>
        <pt x="519" y="121" on="0"/>
      </contour>
    </TTGlyph>
    <TTGlyph name="otilde" xMin="98" yMin="-16" xMax="1077" yMax="1501">
      <contour>
        <pt x="844" y="1243" on="1"/>
        <pt x="799" y="1243" on="0"/>
        <pt x="692" y="1300" on="0"/>
        <pt x="594" y="1356" on="0"/>
        <pt x="517" y="1356" on="0"/>
        <pt x="465" y="1302" on="0"/>
        <pt x="442" y="1241" on="1"/>
        <pt x="342" y="1241" on="1"/>
        <pt x="400" y="1499" on="0"/>
        <pt x="573" y="1499" on="1"/>
        <pt x="612" y="1499" on="0"/>
        <pt x="700" y="1463" on="0"/>
        <pt x="732" y="1442" on="1"/>
        <pt x="816" y="1384" on="0"/>
        <pt x="899" y="1384" on="0"/>
        <pt x="950" y="1436" on="0"/>
        <pt x="977" y="1501" on="1"/>
        <pt x="1077" y="1501" on="1"/>
        <pt x="1011" y="1243" on="0"/>
      </contour>
      <contour>
        <pt x="643" y="1110" on="1"/>
        <pt x="833" y="1110" on="0"/>
        <pt x="1053" y="884" on="0"/>
        <pt x="1053" y="500" on="0"/>
        <pt x="909" y="166" on="0"/>
        <pt x="663" y="-16" on="0"/>
        <pt x="508" y="-16" on="1"/>
        <pt x="317" y="-16" on="0"/>
        <pt x="98" y="209" on="0"/>
        <pt x="98" y="598" on="0"/>
        <pt x="243" y="930" on="0"/>
        <pt x="491" y="1110" on="0"/>
      </contour>
      <contour>
        <pt x="816" y="897" on="1"/>
        <pt x="754" y="969" on="0"/>
        <pt x="539" y="969" on="0"/>
        <pt x="451" y="895" on="1"/>
        <pt x="365" y="821" on="0"/>
        <pt x="270" y="557" on="0"/>
        <pt x="270" y="397" on="1"/>
        <pt x="270" y="265" on="0"/>
        <pt x="397" y="123" on="0"/>
        <pt x="516" y="123" on="1"/>
        <pt x="520" y="123" on="0"/>
        <pt x="524" y="123" on="1"/>
        <pt x="621" y="123" on="0"/>
        <pt x="786" y="269" on="0"/>
        <pt x="879" y="538" on="0"/>
        <pt x="879" y="704" on="1"/>
        <pt x="879" y="707" on="0"/>
        <pt x="879" y="711" on="1"/>
        <pt x="879" y="826" on="0"/>
      </contour>
    </TTGlyph>
    <TTGlyph name="overscore" xMin="227" yMin="1556" xMax="1047" yMax="1688">
      <contour>
        <pt x="227" y="1556" on="1"/>
        <pt x="260" y="1688" on="1"/>
        <pt x="1047" y="1688" on="1"/>
        <pt x="1012" y="1556" on="1"/>
      </contour>
    </TTGlyph>
</ttFont>
